<?xml version="1.0" encoding="UTF-8" standalone="no"?>
<!DOCTYPE svg PUBLIC "-//W3C//DTD SVG 1.1//EN"
 "http://www.w3.org/Graphics/SVG/1.1/DTD/svg11.dtd">
<!-- Generated by graphviz version 2.43.0 (0)
 -->
<!-- Title: classes_orchestration Pages: 1 -->
<svg width="1651pt" height="369pt"
 viewBox="0.00 0.00 1651.00 368.60" xmlns="http://www.w3.org/2000/svg" xmlns:xlink="http://www.w3.org/1999/xlink">
<g id="graph0" class="graph" transform="scale(1 1) rotate(0) translate(4 364.6)">
<title>classes_orchestration</title>
<polygon fill="white" stroke="transparent" points="-4,4 -4,-364.6 1647,-364.6 1647,4 -4,4"/>
<!-- orchestration.config.ArtifactValidationConfig -->
<g id="node1" class="node">
<title>orchestration.config.ArtifactValidationConfig</title>
<polygon fill="none" stroke="black" points="0,-15.5 0,-99.5 152,-99.5 152,-15.5 0,-15.5"/>
<text text-anchor="start" x="8" y="-84.3" font-family="Times,serif" font-size="14.00">ArtifactValidationConfig</text>
<polyline fill="none" stroke="black" points="0,-76.5 152,-76.5 "/>
<text text-anchor="start" x="11" y="-61.3" font-family="Times,serif" font-size="14.00">fail_on_warnings : bool</text>
<text text-anchor="start" x="11" y="-46.3" font-family="Times,serif" font-size="14.00">strict_mode : bool</text>
<polyline fill="none" stroke="black" points="0,-38.5 152,-38.5 "/>
<text text-anchor="start" x="74" y="-23.3" font-family="Times,serif" font-size="14.00"> </text>
</g>
<!-- orchestration.cli.BM25BuildConfig -->
<g id="node2" class="node">
<title>orchestration.cli.BM25BuildConfig</title>
<polygon fill="none" stroke="black" points="170.5,-8 170.5,-107 289.5,-107 289.5,-8 170.5,-8"/>
<text text-anchor="start" x="178.5" y="-91.8" font-family="Times,serif" font-size="14.00">BM25BuildConfig</text>
<polyline fill="none" stroke="black" points="170.5,-84 289.5,-84 "/>
<text text-anchor="start" x="183" y="-68.8" font-family="Times,serif" font-size="14.00">backend : str</text>
<text text-anchor="start" x="183" y="-53.8" font-family="Times,serif" font-size="14.00">chunks_path : str</text>
<text text-anchor="start" x="183" y="-38.8" font-family="Times,serif" font-size="14.00">index_dir : str</text>
<polyline fill="none" stroke="black" points="170.5,-31 289.5,-31 "/>
<text text-anchor="start" x="228" y="-15.8" font-family="Times,serif" font-size="14.00"> </text>
</g>
<!-- orchestration.cli.FaissIndexConfig -->
<g id="node3" class="node">
<title>orchestration.cli.FaissIndexConfig</title>
<polygon fill="none" stroke="black" points="308,-0.5 308,-114.5 426,-114.5 426,-0.5 308,-0.5"/>
<text text-anchor="start" x="318.5" y="-99.3" font-family="Times,serif" font-size="14.00">FaissIndexConfig</text>
<polyline fill="none" stroke="black" points="308,-91.5 426,-91.5 "/>
<text text-anchor="start" x="316" y="-76.3" font-family="Times,serif" font-size="14.00">dense_vectors : str</text>
<text text-anchor="start" x="316" y="-61.3" font-family="Times,serif" font-size="14.00">factory : str</text>
<text text-anchor="start" x="316" y="-46.3" font-family="Times,serif" font-size="14.00">index_path : str</text>
<text text-anchor="start" x="316" y="-31.3" font-family="Times,serif" font-size="14.00">metric : str</text>
<polyline fill="none" stroke="black" points="308,-23.5 426,-23.5 "/>
<text text-anchor="start" x="365" y="-8.3" font-family="Times,serif" font-size="14.00"> </text>
</g>
<!-- orchestration.config.IndexCliConfig -->
<g id="node4" class="node">
<title>orchestration.config.IndexCliConfig</title>
<polygon fill="none" stroke="black" points="444,-0.5 444,-114.5 562,-114.5 562,-0.5 444,-0.5"/>
<text text-anchor="start" x="460.5" y="-99.3" font-family="Times,serif" font-size="14.00">IndexCliConfig</text>
<polyline fill="none" stroke="black" points="444,-91.5 562,-91.5 "/>
<text text-anchor="start" x="452" y="-76.3" font-family="Times,serif" font-size="14.00">dense_vectors : str</text>
<text text-anchor="start" x="452" y="-61.3" font-family="Times,serif" font-size="14.00">factory : str</text>
<text text-anchor="start" x="452" y="-46.3" font-family="Times,serif" font-size="14.00">index_path : str</text>
<text text-anchor="start" x="452" y="-31.3" font-family="Times,serif" font-size="14.00">metric : str</text>
<polyline fill="none" stroke="black" points="444,-23.5 562,-23.5 "/>
<text text-anchor="start" x="501" y="-8.3" font-family="Times,serif" font-size="14.00"> </text>
</g>
<!-- orchestration.safe_pickle.SafeUnpickler -->
<g id="node5" class="node">
<title>orchestration.safe_pickle.SafeUnpickler</title>
<polygon fill="none" stroke="black" points="580.5,-14.6 580.5,-100.4 811.5,-100.4 811.5,-14.6 580.5,-14.6"/>
<text text-anchor="start" x="656.5" y="-85.2" font-family="Times,serif" font-size="14.00">SafeUnpickler</text>
<polyline fill="none" stroke="black" points="580.5,-77.4 811.5,-77.4 "/>
<polyline fill="none" stroke="black" points="580.5,-52.6 811.5,-52.6 "/>
<text text-anchor="start" x="588.5" y="-37.4" font-family="Times,serif" font-size="14.00">find_class(module: str, name: str): type</text>
<text text-anchor="start" x="588.5" y="-22.4" font-family="Times,serif" font-size="14.00">load(): object</text>
</g>
<!-- orchestration.safe_pickle._StdlibUnpickler -->
<g id="node9" class="node">
<title>orchestration.safe_pickle._StdlibUnpickler</title>
<polygon fill="none" stroke="black" points="575.5,-151.5 575.5,-237.3 816.5,-237.3 816.5,-151.5 575.5,-151.5"/>
<text text-anchor="start" x="649" y="-222.1" font-family="Times,serif" font-size="14.00">_StdlibUnpickler</text>
<polyline fill="none" stroke="black" points="575.5,-214.3 816.5,-214.3 "/>
<polyline fill="none" stroke="black" points="575.5,-189.5 816.5,-189.5 "/>
<text text-anchor="start" x="583.5" y="-174.3" font-family="Times,serif" font-size="14.00">find_class(module: str, name: str): object</text>
<text text-anchor="start" x="583.5" y="-159.3" font-family="Times,serif" font-size="14.00">load(): object</text>
</g>
<!-- orchestration.safe_pickle.SafeUnpickler&#45;&gt;orchestration.safe_pickle._StdlibUnpickler -->
<g id="edge1" class="edge">
<title>orchestration.safe_pickle.SafeUnpickler&#45;&gt;orchestration.safe_pickle._StdlibUnpickler</title>
<path fill="none" stroke="black" d="M696,-100.44C696,-113.39 696,-127.8 696,-141.34"/>
<polygon fill="none" stroke="black" points="692.5,-141.48 696,-151.48 699.5,-141.48 692.5,-141.48"/>
</g>
<!-- orchestration.safe_pickle.UnsafePickleError -->
<g id="node6" class="node">
<title>orchestration.safe_pickle.UnsafePickleError</title>
<polygon fill="none" stroke="black" points="829.5,-23 829.5,-92 970.5,-92 970.5,-23 829.5,-23"/>
<text text-anchor="start" x="849.5" y="-76.8" font-family="Times,serif" font-size="14.00" fill="red">UnsafePickleError</text>
<polyline fill="none" stroke="black" points="829.5,-69 970.5,-69 "/>
<text text-anchor="start" x="837.5" y="-53.8" font-family="Times,serif" font-size="14.00" fill="red">type_name : str | None</text>
<polyline fill="none" stroke="black" points="829.5,-46 970.5,-46 "/>
<text text-anchor="start" x="898" y="-30.8" font-family="Times,serif" font-size="14.00" fill="red"> </text>
</g>
<!-- orchestration.cli._BM25Builder -->
<g id="node7" class="node">
<title>orchestration.cli._BM25Builder</title>
<polygon fill="none" stroke="black" points="989,-22.1 989,-92.9 1281,-92.9 1281,-22.1 989,-22.1"/>
<text text-anchor="start" x="1093.5" y="-77.7" font-family="Times,serif" font-size="14.00">_BM25Builder</text>
<polyline fill="none" stroke="black" points="989,-69.9 1281,-69.9 "/>
<polyline fill="none" stroke="black" points="989,-45.1 1281,-45.1 "/>
<text text-anchor="start" x="997" y="-29.9" font-family="Times,serif" font-size="14.00">build(docs: Iterable[tuple[str, dict[str, str]]]): None</text>
</g>
<!-- orchestration.safe_pickle._PickleModule -->
<g id="node8" class="node">
<title>orchestration.safe_pickle._PickleModule</title>
<polygon fill="none" stroke="black" points="1299,-15.5 1299,-99.5 1535,-99.5 1535,-15.5 1299,-15.5"/>
<text text-anchor="start" x="1375" y="-84.3" font-family="Times,serif" font-size="14.00">_PickleModule</text>
<polyline fill="none" stroke="black" points="1299,-76.5 1535,-76.5 "/>
<text text-anchor="start" x="1314.5" y="-61.3" font-family="Times,serif" font-size="14.00">Unpickler : type[_UnpicklerProtocol]</text>
<polyline fill="none" stroke="black" points="1299,-53.5 1535,-53.5 "/>
<text text-anchor="start" x="1307" y="-38.3" font-family="Times,serif" font-size="14.00">dump(obj: object, file: BinaryIO): None</text>
<text text-anchor="start" x="1307" y="-23.3" font-family="Times,serif" font-size="14.00">dumps(obj: object): bytes</text>
</g>
<!-- orchestration.safe_pickle._UnpicklerProtocol -->
<g id="node10" class="node">
<title>orchestration.safe_pickle._UnpicklerProtocol</title>
<polygon fill="none" stroke="black" points="575.5,-274.3 575.5,-360.1 816.5,-360.1 816.5,-274.3 575.5,-274.3"/>
<text text-anchor="start" x="642.5" y="-344.9" font-family="Times,serif" font-size="14.00">_UnpicklerProtocol</text>
<polyline fill="none" stroke="black" points="575.5,-337.1 816.5,-337.1 "/>
<polyline fill="none" stroke="black" points="575.5,-312.3 816.5,-312.3 "/>
<text text-anchor="start" x="583.5" y="-297.1" font-family="Times,serif" font-size="14.00">find_class(module: str, name: str): object</text>
<text text-anchor="start" x="583.5" y="-282.1" font-family="Times,serif" font-size="14.00">load(): object</text>
</g>
<!-- orchestration.safe_pickle._StdlibUnpickler&#45;&gt;orchestration.safe_pickle._UnpicklerProtocol -->
<g id="edge2" class="edge">
<title>orchestration.safe_pickle._StdlibUnpickler&#45;&gt;orchestration.safe_pickle._UnpicklerProtocol</title>
<path fill="none" stroke="black" d="M696,-237.31C696,-245.83 696,-254.9 696,-263.73"/>
<polygon fill="none" stroke="black" points="692.5,-263.95 696,-273.95 699.5,-263.95 692.5,-263.95"/>
</g>
<!-- orchestration.cli._UvicornRun -->
<g id="node11" class="node">
<title>orchestration.cli._UvicornRun</title>
<polygon fill="none" stroke="black" points="1553,-22.1 1553,-92.9 1643,-92.9 1643,-22.1 1553,-22.1"/>
<text text-anchor="start" x="1561" y="-77.7" font-family="Times,serif" font-size="14.00">_UvicornRun</text>
<polyline fill="none" stroke="black" points="1553,-69.9 1643,-69.9 "/>
<polyline fill="none" stroke="black" points="1553,-45.1 1643,-45.1 "/>
<text text-anchor="start" x="1596" y="-29.9" font-family="Times,serif" font-size="14.00"> </text>
</g>
</g>
</svg>
