<?xml version="1.0" encoding="UTF-8" standalone="no"?>
<!DOCTYPE svg PUBLIC "-//W3C//DTD SVG 1.1//EN"
 "http://www.w3.org/Graphics/SVG/1.1/DTD/svg11.dtd">
<!-- Generated by graphviz version 2.43.0 (0)
 -->
<!-- Title: classes_kgfoundry_common Pages: 1 -->
<svg width="4328pt" height="258pt"
 viewBox="0.00 0.00 4327.50 258.00" xmlns="http://www.w3.org/2000/svg" xmlns:xlink="http://www.w3.org/1999/xlink">
<g id="graph0" class="graph" transform="scale(1 1) rotate(0) translate(4 254)">
<title>classes_kgfoundry_common</title>
<polygon fill="white" stroke="transparent" points="-4,4 -4,-254 4323.5,-254 4323.5,4 -4,4"/>
<!-- src.kgfoundry_common.models.Chunk -->
<g id="node1" class="node">
<title>src.kgfoundry_common.models.Chunk</title>
<polygon fill="none" stroke="black" points="0,-45.5 0,-204.5 164,-204.5 164,-45.5 0,-45.5"/>
<text text-anchor="start" x="63.5" y="-189.3" font-family="Times,serif" font-size="14.00">Chunk</text>
<polyline fill="none" stroke="black" points="0,-181.5 164,-181.5 "/>
<text text-anchor="start" x="8" y="-166.3" font-family="Times,serif" font-size="14.00">doc_id : str</text>
<text text-anchor="start" x="8" y="-151.3" font-family="Times,serif" font-size="14.00">doctags_span : dict[str, int]</text>
<text text-anchor="start" x="8" y="-136.3" font-family="Times,serif" font-size="14.00">end_char : int</text>
<text text-anchor="start" x="8" y="-121.3" font-family="Times,serif" font-size="14.00">id : str</text>
<text text-anchor="start" x="8" y="-106.3" font-family="Times,serif" font-size="14.00">section : str | None</text>
<text text-anchor="start" x="8" y="-91.3" font-family="Times,serif" font-size="14.00">start_char : int</text>
<text text-anchor="start" x="8" y="-76.3" font-family="Times,serif" font-size="14.00">tokens : int</text>
<polyline fill="none" stroke="black" points="0,-68.5 164,-68.5 "/>
<text text-anchor="start" x="80" y="-53.3" font-family="Times,serif" font-size="14.00"> </text>
</g>
<!-- src.kgfoundry_common.errors.ChunkingError -->
<g id="node2" class="node">
<title>src.kgfoundry_common.errors.ChunkingError</title>
<polygon fill="none" stroke="black" points="182,-89.6 182,-160.4 280,-160.4 280,-89.6 182,-89.6"/>
<text text-anchor="start" x="190" y="-145.2" font-family="Times,serif" font-size="14.00" fill="red">ChunkingError</text>
<polyline fill="none" stroke="black" points="182,-137.4 280,-137.4 "/>
<polyline fill="none" stroke="black" points="182,-112.6 280,-112.6 "/>
<text text-anchor="start" x="229" y="-97.4" font-family="Times,serif" font-size="14.00" fill="red"> </text>
</g>
<!-- src.kgfoundry_common.models.Doc -->
<g id="node3" class="node">
<title>src.kgfoundry_common.models.Doc</title>
<polygon fill="none" stroke="black" points="298,-0.5 298,-249.5 450,-249.5 450,-0.5 298,-0.5"/>
<text text-anchor="start" x="362.5" y="-234.3" font-family="Times,serif" font-size="14.00">Doc</text>
<polyline fill="none" stroke="black" points="298,-226.5 450,-226.5 "/>
<text text-anchor="start" x="306" y="-211.3" font-family="Times,serif" font-size="14.00">arxiv_id : str | None</text>
<text text-anchor="start" x="306" y="-196.3" font-family="Times,serif" font-size="14.00">authors : list[str]</text>
<text text-anchor="start" x="306" y="-181.3" font-family="Times,serif" font-size="14.00">content_hash : str | None</text>
<text text-anchor="start" x="306" y="-166.3" font-family="Times,serif" font-size="14.00">doi : str | None</text>
<text text-anchor="start" x="306" y="-151.3" font-family="Times,serif" font-size="14.00">id : str</text>
<text text-anchor="start" x="306" y="-136.3" font-family="Times,serif" font-size="14.00">language : str | None</text>
<text text-anchor="start" x="306" y="-121.3" font-family="Times,serif" font-size="14.00">license : str | None</text>
<text text-anchor="start" x="306" y="-106.3" font-family="Times,serif" font-size="14.00">openalex_id : str | None</text>
<text text-anchor="start" x="306" y="-91.3" font-family="Times,serif" font-size="14.00">pdf_uri : str</text>
<text text-anchor="start" x="306" y="-76.3" font-family="Times,serif" font-size="14.00">pmcid : str | None</text>
<text text-anchor="start" x="306" y="-61.3" font-family="Times,serif" font-size="14.00">pub_date : str | None</text>
<text text-anchor="start" x="306" y="-46.3" font-family="Times,serif" font-size="14.00">source : str</text>
<text text-anchor="start" x="306" y="-31.3" font-family="Times,serif" font-size="14.00">title : str</text>
<polyline fill="none" stroke="black" points="298,-23.5 450,-23.5 "/>
<text text-anchor="start" x="372" y="-8.3" font-family="Times,serif" font-size="14.00"> </text>
</g>
<!-- src.kgfoundry_common.errors.DoclingError -->
<g id="node4" class="node">
<title>src.kgfoundry_common.errors.DoclingError</title>
<polygon fill="none" stroke="black" points="468.5,-89.6 468.5,-160.4 557.5,-160.4 557.5,-89.6 468.5,-89.6"/>
<text text-anchor="start" x="476.5" y="-145.2" font-family="Times,serif" font-size="14.00" fill="red">DoclingError</text>
<polyline fill="none" stroke="black" points="468.5,-137.4 557.5,-137.4 "/>
<polyline fill="none" stroke="black" points="468.5,-112.6 557.5,-112.6 "/>
<text text-anchor="start" x="511" y="-97.4" font-family="Times,serif" font-size="14.00" fill="red"> </text>
</g>
<!-- src.kgfoundry_common.models.DoctagsAsset -->
<g id="node5" class="node">
<title>src.kgfoundry_common.models.DoctagsAsset</title>
<polygon fill="none" stroke="black" points="575.5,-53 575.5,-197 736.5,-197 736.5,-53 575.5,-53"/>
<text text-anchor="start" x="618.5" y="-181.8" font-family="Times,serif" font-size="14.00">DoctagsAsset</text>
<polyline fill="none" stroke="black" points="575.5,-174 736.5,-174 "/>
<text text-anchor="start" x="583.5" y="-158.8" font-family="Times,serif" font-size="14.00">avg_logprob : float | None</text>
<text text-anchor="start" x="583.5" y="-143.8" font-family="Times,serif" font-size="14.00">doc_id : str</text>
<text text-anchor="start" x="583.5" y="-128.8" font-family="Times,serif" font-size="14.00">doctags_uri : str</text>
<text text-anchor="start" x="583.5" y="-113.8" font-family="Times,serif" font-size="14.00">pages : int</text>
<text text-anchor="start" x="583.5" y="-98.8" font-family="Times,serif" font-size="14.00">vlm_model : str</text>
<text text-anchor="start" x="583.5" y="-83.8" font-family="Times,serif" font-size="14.00">vlm_revision : str</text>
<polyline fill="none" stroke="black" points="575.5,-76 736.5,-76 "/>
<text text-anchor="start" x="654" y="-60.8" font-family="Times,serif" font-size="14.00"> </text>
</g>
<!-- src.kgfoundry_common.errors.DownloadError -->
<g id="node6" class="node">
<title>src.kgfoundry_common.errors.DownloadError</title>
<polygon fill="none" stroke="black" points="754.5,-89.6 754.5,-160.4 855.5,-160.4 855.5,-89.6 754.5,-89.6"/>
<text text-anchor="start" x="762.5" y="-145.2" font-family="Times,serif" font-size="14.00" fill="red">DownloadError</text>
<polyline fill="none" stroke="black" points="754.5,-137.4 855.5,-137.4 "/>
<polyline fill="none" stroke="black" points="754.5,-112.6 855.5,-112.6 "/>
<text text-anchor="start" x="803" y="-97.4" font-family="Times,serif" font-size="14.00" fill="red"> </text>
</g>
<!-- src.kgfoundry_common.exceptions.DownloadError -->
<g id="node7" class="node">
<title>src.kgfoundry_common.exceptions.DownloadError</title>
<polygon fill="none" stroke="black" points="873.5,-89.6 873.5,-160.4 974.5,-160.4 974.5,-89.6 873.5,-89.6"/>
<text text-anchor="start" x="881.5" y="-145.2" font-family="Times,serif" font-size="14.00" fill="red">DownloadError</text>
<polyline fill="none" stroke="black" points="873.5,-137.4 974.5,-137.4 "/>
<polyline fill="none" stroke="black" points="873.5,-112.6 974.5,-112.6 "/>
<text text-anchor="start" x="922" y="-97.4" font-family="Times,serif" font-size="14.00" fill="red"> </text>
</g>
<!-- src.kgfoundry_common.errors.EmbeddingError -->
<g id="node8" class="node">
<title>src.kgfoundry_common.errors.EmbeddingError</title>
<polygon fill="none" stroke="black" points="993,-89.6 993,-160.4 1101,-160.4 1101,-89.6 993,-89.6"/>
<text text-anchor="start" x="1001" y="-145.2" font-family="Times,serif" font-size="14.00" fill="red">EmbeddingError</text>
<polyline fill="none" stroke="black" points="993,-137.4 1101,-137.4 "/>
<polyline fill="none" stroke="black" points="993,-112.6 1101,-112.6 "/>
<text text-anchor="start" x="1045" y="-97.4" font-family="Times,serif" font-size="14.00" fill="red"> </text>
</g>
<!-- src.kgfoundry_common.errors.IndexBuildError -->
<g id="node9" class="node">
<title>src.kgfoundry_common.errors.IndexBuildError</title>
<polygon fill="none" stroke="black" points="1119,-89.6 1119,-160.4 1225,-160.4 1225,-89.6 1119,-89.6"/>
<text text-anchor="start" x="1127" y="-145.2" font-family="Times,serif" font-size="14.00" fill="red">IndexBuildError</text>
<polyline fill="none" stroke="black" points="1119,-137.4 1225,-137.4 "/>
<polyline fill="none" stroke="black" points="1119,-112.6 1225,-112.6 "/>
<text text-anchor="start" x="1170" y="-97.4" font-family="Times,serif" font-size="14.00" fill="red"> </text>
</g>
<!-- src.kgfoundry_common.logging.JsonFormatter -->
<g id="node10" class="node">
<title>src.kgfoundry_common.logging.JsonFormatter</title>
<polygon fill="none" stroke="black" points="1243.5,-89.6 1243.5,-160.4 1474.5,-160.4 1474.5,-89.6 1243.5,-89.6"/>
<text text-anchor="start" x="1319.5" y="-145.2" font-family="Times,serif" font-size="14.00">JsonFormatter</text>
<polyline fill="none" stroke="black" points="1243.5,-137.4 1474.5,-137.4 "/>
<polyline fill="none" stroke="black" points="1243.5,-112.6 1474.5,-112.6 "/>
<text text-anchor="start" x="1251.5" y="-97.4" font-family="Times,serif" font-size="14.00">format(record: logging.LogRecord): str</text>
</g>
<!-- src.kgfoundry_common.models.LinkAssertion -->
<g id="node11" class="node">
<title>src.kgfoundry_common.models.LinkAssertion</title>
<polygon fill="none" stroke="black" points="1493,-38 1493,-212 1741,-212 1741,-38 1493,-38"/>
<text text-anchor="start" x="1578" y="-196.8" font-family="Times,serif" font-size="14.00">LinkAssertion</text>
<polyline fill="none" stroke="black" points="1493,-189 1741,-189 "/>
<text text-anchor="start" x="1501" y="-173.8" font-family="Times,serif" font-size="14.00">chunk_id : str</text>
<text text-anchor="start" x="1501" y="-158.8" font-family="Times,serif" font-size="14.00">concept_id : str</text>
<text text-anchor="start" x="1501" y="-143.8" font-family="Times,serif" font-size="14.00">decision : Literal[&#39;link&#39;, &#39;reject&#39;, &#39;uncertain&#39;]</text>
<text text-anchor="start" x="1501" y="-128.8" font-family="Times,serif" font-size="14.00">evidence_span : str | None</text>
<text text-anchor="start" x="1501" y="-113.8" font-family="Times,serif" font-size="14.00">features : dict[str, float]</text>
<text text-anchor="start" x="1501" y="-98.8" font-family="Times,serif" font-size="14.00">id : str</text>
<text text-anchor="start" x="1501" y="-83.8" font-family="Times,serif" font-size="14.00">run_id : str</text>
<text text-anchor="start" x="1501" y="-68.8" font-family="Times,serif" font-size="14.00">score : float</text>
<polyline fill="none" stroke="black" points="1493,-61 1741,-61 "/>
<text text-anchor="start" x="1615" y="-45.8" font-family="Times,serif" font-size="14.00"> </text>
</g>
<!-- src.kgfoundry_common.errors.LinkerCalibrationError -->
<g id="node12" class="node">
<title>src.kgfoundry_common.errors.LinkerCalibrationError</title>
<polygon fill="none" stroke="black" points="1759,-89.6 1759,-160.4 1901,-160.4 1901,-89.6 1759,-89.6"/>
<text text-anchor="start" x="1767" y="-145.2" font-family="Times,serif" font-size="14.00" fill="red">LinkerCalibrationError</text>
<polyline fill="none" stroke="black" points="1759,-137.4 1901,-137.4 "/>
<polyline fill="none" stroke="black" points="1759,-112.6 1901,-112.6 "/>
<text text-anchor="start" x="1828" y="-97.4" font-family="Times,serif" font-size="14.00" fill="red"> </text>
</g>
<!-- src.kgfoundry_common.navmap_types.NavMap -->
<g id="node13" class="node">
<title>src.kgfoundry_common.navmap_types.NavMap</title>
<polygon fill="none" stroke="black" points="1919,-15.5 1919,-234.5 2113,-234.5 2113,-15.5 1919,-15.5"/>
<text text-anchor="start" x="1991.5" y="-219.3" font-family="Times,serif" font-size="14.00">NavMap</text>
<polyline fill="none" stroke="black" points="1919,-211.5 2113,-211.5 "/>
<text text-anchor="start" x="1927" y="-196.3" font-family="Times,serif" font-size="14.00">deprecated : str</text>
<text text-anchor="start" x="1927" y="-181.3" font-family="Times,serif" font-size="14.00">deps : list[str]</text>
<text text-anchor="start" x="1927" y="-166.3" font-family="Times,serif" font-size="14.00">edit_scopes : dict[str, list[str]]</text>
<text text-anchor="start" x="1927" y="-151.3" font-family="Times,serif" font-size="14.00">exports : list[str]</text>
<text text-anchor="start" x="1927" y="-136.3" font-family="Times,serif" font-size="14.00">sections : list[NavSection]</text>
<text text-anchor="start" x="1927" y="-121.3" font-family="Times,serif" font-size="14.00">see_also : list[str]</text>
<text text-anchor="start" x="1927" y="-106.3" font-family="Times,serif" font-size="14.00">since : str</text>
<text text-anchor="start" x="1927" y="-91.3" font-family="Times,serif" font-size="14.00">symbols : dict[str, SymbolMeta]</text>
<text text-anchor="start" x="1927" y="-76.3" font-family="Times,serif" font-size="14.00">synopsis : str</text>
<text text-anchor="start" x="1927" y="-61.3" font-family="Times,serif" font-size="14.00">tags : list[str]</text>
<text text-anchor="start" x="1927" y="-46.3" font-family="Times,serif" font-size="14.00">title : str</text>
<polyline fill="none" stroke="black" points="1919,-38.5 2113,-38.5 "/>
<text text-anchor="start" x="2014" y="-23.3" font-family="Times,serif" font-size="14.00"> </text>
</g>
<!-- src.kgfoundry_common.navmap_types.NavSection -->
<g id="node14" class="node">
<title>src.kgfoundry_common.navmap_types.NavSection</title>
<polygon fill="none" stroke="black" points="2131.5,-75.5 2131.5,-174.5 2244.5,-174.5 2244.5,-75.5 2131.5,-75.5"/>
<text text-anchor="start" x="2156" y="-159.3" font-family="Times,serif" font-size="14.00">NavSection</text>
<polyline fill="none" stroke="black" points="2131.5,-151.5 2244.5,-151.5 "/>
<text text-anchor="start" x="2139.5" y="-136.3" font-family="Times,serif" font-size="14.00">id : str</text>
<text text-anchor="start" x="2139.5" y="-121.3" font-family="Times,serif" font-size="14.00">symbols : list[str]</text>
<text text-anchor="start" x="2139.5" y="-106.3" font-family="Times,serif" font-size="14.00">title : str</text>
<polyline fill="none" stroke="black" points="2131.5,-98.5 2244.5,-98.5 "/>
<text text-anchor="start" x="2186" y="-83.3" font-family="Times,serif" font-size="14.00"> </text>
</g>
<!-- src.kgfoundry_common.errors.Neo4jError -->
<g id="node15" class="node">
<title>src.kgfoundry_common.errors.Neo4jError</title>
<polygon fill="none" stroke="black" points="2263,-89.6 2263,-160.4 2341,-160.4 2341,-89.6 2263,-89.6"/>
<text text-anchor="start" x="2271" y="-145.2" font-family="Times,serif" font-size="14.00" fill="red">Neo4jError</text>
<polyline fill="none" stroke="black" points="2263,-137.4 2341,-137.4 "/>
<polyline fill="none" stroke="black" points="2263,-112.6 2341,-112.6 "/>
<text text-anchor="start" x="2300" y="-97.4" font-family="Times,serif" font-size="14.00" fill="red"> </text>
</g>
<!-- src.kgfoundry_common.errors.OCRTimeoutError -->
<g id="node16" class="node">
<title>src.kgfoundry_common.errors.OCRTimeoutError</title>
<polygon fill="none" stroke="black" points="2359.5,-89.6 2359.5,-160.4 2478.5,-160.4 2478.5,-89.6 2359.5,-89.6"/>
<text text-anchor="start" x="2367.5" y="-145.2" font-family="Times,serif" font-size="14.00" fill="red">OCRTimeoutError</text>
<polyline fill="none" stroke="black" points="2359.5,-137.4 2478.5,-137.4 "/>
<polyline fill="none" stroke="black" points="2359.5,-112.6 2478.5,-112.6 "/>
<text text-anchor="start" x="2417" y="-97.4" font-family="Times,serif" font-size="14.00" fill="red"> </text>
</g>
<!-- src.kgfoundry_common.errors.OntologyParseError -->
<g id="node17" class="node">
<title>src.kgfoundry_common.errors.OntologyParseError</title>
<polygon fill="none" stroke="black" points="2496.5,-89.6 2496.5,-160.4 2621.5,-160.4 2621.5,-89.6 2496.5,-89.6"/>
<text text-anchor="start" x="2504.5" y="-145.2" font-family="Times,serif" font-size="14.00" fill="red">OntologyParseError</text>
<polyline fill="none" stroke="black" points="2496.5,-137.4 2621.5,-137.4 "/>
<polyline fill="none" stroke="black" points="2496.5,-112.6 2621.5,-112.6 "/>
<text text-anchor="start" x="2557" y="-97.4" font-family="Times,serif" font-size="14.00" fill="red"> </text>
</g>
<!-- src.kgfoundry_common.parquet_io.ParquetChunkWriter -->
<g id="node18" class="node">
<title>src.kgfoundry_common.parquet_io.ParquetChunkWriter</title>
<polygon fill="none" stroke="black" points="2640,-83 2640,-167 2870,-167 2870,-83 2640,-83"/>
<text text-anchor="start" x="2698.5" y="-151.8" font-family="Times,serif" font-size="14.00">ParquetChunkWriter</text>
<polyline fill="none" stroke="black" points="2640,-144 2870,-144 "/>
<text text-anchor="start" x="2744" y="-128.8" font-family="Times,serif" font-size="14.00">root</text>
<polyline fill="none" stroke="black" points="2640,-121 2870,-121 "/>
<text text-anchor="start" x="2648" y="-105.8" font-family="Times,serif" font-size="14.00">chunk_schema(): pa.schema</text>
<text text-anchor="start" x="2648" y="-90.8" font-family="Times,serif" font-size="14.00">write(rows: Iterable[dict[str, Any]]): str</text>
</g>
<!-- src.kgfoundry_common.parquet_io.ParquetVectorWriter -->
<g id="node19" class="node">
<title>src.kgfoundry_common.parquet_io.ParquetVectorWriter</title>
<polygon fill="none" stroke="black" points="2888.5,-68 2888.5,-182 3471.5,-182 3471.5,-68 2888.5,-68"/>
<text text-anchor="start" x="3124" y="-166.8" font-family="Times,serif" font-size="14.00">ParquetVectorWriter</text>
<polyline fill="none" stroke="black" points="2888.5,-159 3471.5,-159 "/>
<text text-anchor="start" x="3151" y="-143.8" font-family="Times,serif" font-size="14.00">root : Path</text>
<polyline fill="none" stroke="black" points="2888.5,-136 3471.5,-136 "/>
<text text-anchor="start" x="2896.5" y="-120.8" font-family="Times,serif" font-size="14.00">dense_schema(dim: int): pa.schema</text>
<text text-anchor="start" x="2896.5" y="-105.8" font-family="Times,serif" font-size="14.00">splade_schema(): pa.schema</text>
<text text-anchor="start" x="2896.5" y="-90.8" font-family="Times,serif" font-size="14.00">write_dense(model: str, run_id: str, dim: int, records: Iterable[tuple[str, list[float], float]], shard: int): str</text>
<text text-anchor="start" x="2896.5" y="-75.8" font-family="Times,serif" font-size="14.00">write_splade(model: str, run_id: str, records: Iterable[tuple[str, list[int], list[float]]], shard: int): str</text>
</g>
<!-- src.kgfoundry_common.errors.SpladeOOMError -->
<g id="node20" class="node">
<title>src.kgfoundry_common.errors.SpladeOOMError</title>
<polygon fill="none" stroke="black" points="3490,-89.6 3490,-160.4 3604,-160.4 3604,-89.6 3490,-89.6"/>
<text text-anchor="start" x="3498" y="-145.2" font-family="Times,serif" font-size="14.00" fill="red">SpladeOOMError</text>
<polyline fill="none" stroke="black" points="3490,-137.4 3604,-137.4 "/>
<polyline fill="none" stroke="black" points="3490,-112.6 3604,-112.6 "/>
<text text-anchor="start" x="3545" y="-97.4" font-family="Times,serif" font-size="14.00" fill="red"> </text>
</g>
<!-- src.kgfoundry_common.navmap_types.SymbolMeta -->
<g id="node21" class="node">
<title>src.kgfoundry_common.navmap_types.SymbolMeta</title>
<polygon fill="none" stroke="black" points="3622.5,-15.5 3622.5,-234.5 3977.5,-234.5 3977.5,-15.5 3622.5,-15.5"/>
<text text-anchor="start" x="3764" y="-219.3" font-family="Times,serif" font-size="14.00">SymbolMeta</text>
<polyline fill="none" stroke="black" points="3622.5,-211.5 3977.5,-211.5 "/>
<text text-anchor="start" x="3630.5" y="-196.3" font-family="Times,serif" font-size="14.00">async_ok : bool</text>
<text text-anchor="start" x="3630.5" y="-181.3" font-family="Times,serif" font-size="14.00">contracts : NotRequired[list[str]]</text>
<text text-anchor="start" x="3630.5" y="-166.3" font-family="Times,serif" font-size="14.00">coverage_target : NotRequired[float]</text>
<text text-anchor="start" x="3630.5" y="-151.3" font-family="Times,serif" font-size="14.00">deprecated_msg : NotRequired[str]</text>
<text text-anchor="start" x="3630.5" y="-136.3" font-family="Times,serif" font-size="14.00">perf_budget_ms : float</text>
<text text-anchor="start" x="3630.5" y="-121.3" font-family="Times,serif" font-size="14.00">replaced_by : NotRequired[str]</text>
<text text-anchor="start" x="3630.5" y="-106.3" font-family="Times,serif" font-size="14.00">side_effects : list[Literal[&#39;none&#39;, &#39;fs&#39;, &#39;net&#39;, &#39;gpu&#39;, &#39;db&#39;]]</text>
<text text-anchor="start" x="3630.5" y="-91.3" font-family="Times,serif" font-size="14.00">since : str</text>
<text text-anchor="start" x="3630.5" y="-76.3" font-family="Times,serif" font-size="14.00">stability : Literal[&#39;frozen&#39;, &#39;stable&#39;, &#39;experimental&#39;, &#39;internal&#39;]</text>
<text text-anchor="start" x="3630.5" y="-61.3" font-family="Times,serif" font-size="14.00">tests : list[str]</text>
<text text-anchor="start" x="3630.5" y="-46.3" font-family="Times,serif" font-size="14.00">thread_safety : Literal[&#39;reentrant&#39;, &#39;threadsafe&#39;, &#39;not&#45;threadsafe&#39;]</text>
<polyline fill="none" stroke="black" points="3622.5,-38.5 3977.5,-38.5 "/>
<text text-anchor="start" x="3798" y="-23.3" font-family="Times,serif" font-size="14.00"> </text>
</g>
<!-- src.kgfoundry_common.errors.UnsupportedMIMEError -->
<g id="node22" class="node">
<title>src.kgfoundry_common.errors.UnsupportedMIMEError</title>
<polygon fill="none" stroke="black" points="3995.5,-89.6 3995.5,-160.4 4148.5,-160.4 4148.5,-89.6 3995.5,-89.6"/>
<text text-anchor="start" x="4003.5" y="-145.2" font-family="Times,serif" font-size="14.00" fill="red">UnsupportedMIMEError</text>
<polyline fill="none" stroke="black" points="3995.5,-137.4 4148.5,-137.4 "/>
<polyline fill="none" stroke="black" points="3995.5,-112.6 4148.5,-112.6 "/>
<text text-anchor="start" x="4070" y="-97.4" font-family="Times,serif" font-size="14.00" fill="red"> </text>
</g>
<!-- src.kgfoundry_common.exceptions.UnsupportedMIMEError -->
<g id="node23" class="node">
<title>src.kgfoundry_common.exceptions.UnsupportedMIMEError</title>
<polygon fill="none" stroke="black" points="4166.5,-89.6 4166.5,-160.4 4319.5,-160.4 4319.5,-89.6 4166.5,-89.6"/>
<text text-anchor="start" x="4174.5" y="-145.2" font-family="Times,serif" font-size="14.00" fill="red">UnsupportedMIMEError</text>
<polyline fill="none" stroke="black" points="4166.5,-137.4 4319.5,-137.4 "/>
<polyline fill="none" stroke="black" points="4166.5,-112.6 4319.5,-112.6 "/>
<text text-anchor="start" x="4241" y="-97.4" font-family="Times,serif" font-size="14.00" fill="red"> </text>
</g>
</g>
</svg>
