<?xml version="1.0" encoding="UTF-8" standalone="no"?>
<!DOCTYPE svg PUBLIC "-//W3C//DTD SVG 1.1//EN"
 "http://www.w3.org/Graphics/SVG/1.1/DTD/svg11.dtd">
<!-- Generated by graphviz version 2.43.0 (0)
 -->
<!-- Title: classes_download Pages: 1 -->
<svg width="557pt" height="213pt"
 viewBox="0.00 0.00 556.50 213.00" xmlns="http://www.w3.org/2000/svg" xmlns:xlink="http://www.w3.org/1999/xlink">
<g id="graph0" class="graph" transform="scale(1 1) rotate(0) translate(4 209)">
<title>classes_download</title>
<polygon fill="white" stroke="transparent" points="-4,4 -4,-209 552.5,-209 552.5,4 -4,4"/>
<!-- download.harvester.HarvesterConfig -->
<g id="node1" class="node">
<title>download.harvester.HarvesterConfig</title>
<polygon fill="none" stroke="black" points="0,-45.5 0,-159.5 159,-159.5 159,-45.5 0,-45.5"/>
<text text-anchor="start" x="34" y="-144.3" font-family="Times,serif" font-size="14.00">HarvesterConfig</text>
<polyline fill="none" stroke="black" points="0,-136.5 159,-136.5 "/>
<text text-anchor="start" x="8" y="-121.3" font-family="Times,serif" font-size="14.00">openalex_base : str</text>
<text text-anchor="start" x="8" y="-106.3" font-family="Times,serif" font-size="14.00">out_dir : str</text>
<text text-anchor="start" x="8" y="-91.3" font-family="Times,serif" font-size="14.00">pdf_host_base : str | None</text>
<text text-anchor="start" x="8" y="-76.3" font-family="Times,serif" font-size="14.00">unpaywall_base : str</text>
<polyline fill="none" stroke="black" points="0,-68.5 159,-68.5 "/>
<text text-anchor="start" x="77.5" y="-53.3" font-family="Times,serif" font-size="14.00"> </text>
</g>
<!-- download.harvester.OpenAccessHarvester -->
<g id="node2" class="node">
<title>download.harvester.OpenAccessHarvester</title>
<polygon fill="none" stroke="black" points="176.5,-0.5 176.5,-204.5 548.5,-204.5 548.5,-0.5 176.5,-0.5"/>
<text text-anchor="start" x="302" y="-189.3" font-family="Times,serif" font-size="14.00">OpenAccessHarvester</text>
<polyline fill="none" stroke="black" points="176.5,-181.5 548.5,-181.5 "/>
<text text-anchor="start" x="316.5" y="-166.3" font-family="Times,serif" font-size="14.00">email : str</text>
<text text-anchor="start" x="316.5" y="-151.3" font-family="Times,serif" font-size="14.00">openalex : str</text>
<text text-anchor="start" x="316.5" y="-136.3" font-family="Times,serif" font-size="14.00">out_dir : str</text>
<text text-anchor="start" x="316.5" y="-121.3" font-family="Times,serif" font-size="14.00">pdf_host : str</text>
<text text-anchor="start" x="316.5" y="-106.3" font-family="Times,serif" font-size="14.00">session : Session</text>
<text text-anchor="start" x="316.5" y="-91.3" font-family="Times,serif" font-size="14.00">ua : str</text>
<text text-anchor="start" x="316.5" y="-76.3" font-family="Times,serif" font-size="14.00">unpaywall : str</text>
<polyline fill="none" stroke="black" points="176.5,-68.5 548.5,-68.5 "/>
<text text-anchor="start" x="184.5" y="-53.3" font-family="Times,serif" font-size="14.00">download_pdf(url: str, target_path: str | Path): Path</text>
<text text-anchor="start" x="184.5" y="-38.3" font-family="Times,serif" font-size="14.00">resolve_pdf(work: Mapping[str, object]): str | None</text>
<text text-anchor="start" x="184.5" y="-23.3" font-family="Times,serif" font-size="14.00">run(topic: str, years: str, max_works: int): list[Doc]</text>
<text text-anchor="start" x="184.5" y="-8.3" font-family="Times,serif" font-size="14.00">search(topic: str, years: str, max_works: int): list[dict[str, object]]</text>
</g>
</g>
</svg>
