<?xml version="1.0" encoding="UTF-8" standalone="no"?>
<!DOCTYPE svg PUBLIC "-//W3C//DTD SVG 1.1//EN"
 "http://www.w3.org/Graphics/SVG/1.1/DTD/svg11.dtd">
<!-- Generated by graphviz version 2.43.0 (0)
 -->
<!-- Title: G Pages: 1 -->
<svg width="186pt" height="194pt"
 viewBox="0.00 0.00 186.29 194.43" xmlns="http://www.w3.org/2000/svg" xmlns:xlink="http://www.w3.org/1999/xlink">
<g id="graph0" class="graph" transform="scale(1 1) rotate(0) translate(4 190.43)">
<title>G</title><style>.edge>path:hover{stroke-width:8}</style>
<polygon fill="white" stroke="transparent" points="-4,4 -4,-190.43 182.29,-190.43 182.29,4 -4,4"/>
<!-- kgfoundry -->
<g id="node1" class="node">
<title>kgfoundry</title><style>.edge>path:hover{stroke-width:8}</style>
<ellipse fill="#ac4949" stroke="black" cx="74.25" cy="-18" rx="34.96" ry="18"/>
<text text-anchor="middle" x="74.25" y="-15.5" font-family="Helvetica,sans-Serif" font-size="10.00" fill="#ffffff">kgfoundry</text>
</g>
<!-- kgfoundry_common -->
<g id="node2" class="node">
<title>kgfoundry_common</title><style>.edge>path:hover{stroke-width:8}</style>
<ellipse fill="#3db8b8" stroke="black" cx="118.25" cy="-90" rx="60.09" ry="18"/>
<text text-anchor="middle" x="118.25" y="-87.5" font-family="Helvetica,sans-Serif" font-size="10.00" fill="#000000">kgfoundry_common</text>
</g>
<!-- kgfoundry_common&#45;&gt;kgfoundry -->
<g id="edge1" class="edge">
<title>kgfoundry_common&#45;&gt;kgfoundry</title><style>.edge>path:hover{stroke-width:8}</style>
<path fill="none" stroke="black" d="M107.6,-72.05C102.28,-63.59 95.74,-53.19 89.86,-43.84"/>
<polygon fill="#3db8b8" stroke="black" points="92.78,-41.91 84.5,-35.31 86.85,-45.64 92.78,-41.91"/>
</g>
<!-- kgfoundry_common_navmap_loader -->
<g id="node3" class="node">
<title>kgfoundry_common_navmap_loader</title><style>.edge>path:hover{stroke-width:8}</style>
<ellipse fill="#47c2c2" stroke="black" cx="74.25" cy="-165.21" rx="74.49" ry="21.43"/>
<text text-anchor="middle" x="74.25" y="-168.21" font-family="Helvetica,sans-Serif" font-size="10.00" fill="#000000">kgfoundry_common.</text>
<text text-anchor="middle" x="74.25" y="-157.21" font-family="Helvetica,sans-Serif" font-size="10.00" fill="#000000">navmap_loader</text>
</g>
<!-- kgfoundry_common_navmap_loader&#45;&gt;kgfoundry -->
<g id="edge2" class="edge">
<title>kgfoundry_common_navmap_loader&#45;&gt;kgfoundry</title><style>.edge>path:hover{stroke-width:8}</style>
<path fill="none" stroke="black" d="M62.83,-144.09C57.57,-133.67 51.91,-120.54 49.25,-108 45.92,-92.35 45.75,-87.61 49.25,-72 51.35,-62.62 55.3,-52.95 59.45,-44.48"/>
<polygon fill="#47c2c2" stroke="black" points="62.62,-45.98 64.14,-35.5 56.41,-42.74 62.62,-45.98"/>
</g>
<!-- kgfoundry_common_navmap_loader&#45;&gt;kgfoundry_common -->
<g id="edge3" class="edge">
<title>kgfoundry_common_navmap_loader&#45;&gt;kgfoundry_common</title><style>.edge>path:hover{stroke-width:8}</style>
<path fill="none" stroke="black" d="M86.27,-144.21C91.38,-135.7 97.41,-125.67 102.85,-116.63"/>
<polygon fill="#47c2c2" stroke="black" points="105.88,-118.38 108.03,-108 99.88,-114.77 105.88,-118.38"/>
</g>
</g>
</svg>
