<?xml version="1.0" encoding="UTF-8" standalone="no"?>
<!DOCTYPE svg PUBLIC "-//W3C//DTD SVG 1.1//EN"
 "http://www.w3.org/Graphics/SVG/1.1/DTD/svg11.dtd">
<!-- Generated by graphviz version 2.43.0 (0)
 -->
<!-- Title: packages_kgfoundry_common Pages: 1 -->
<svg width="1704pt" height="116pt"
 viewBox="0.00 0.00 1703.50 116.00" xmlns="http://www.w3.org/2000/svg" xmlns:xlink="http://www.w3.org/1999/xlink">
<g id="graph0" class="graph" transform="scale(1 1) rotate(0) translate(4 112)">
<title>packages_kgfoundry_common</title>
<polygon fill="white" stroke="transparent" points="-4,4 -4,-112 1699.5,-112 1699.5,4 -4,4"/>
<!-- src.kgfoundry_common -->
<g id="node1" class="node">
<title>src.kgfoundry_common</title>
<polygon fill="none" stroke="black" points="889,-36 741,-36 741,0 889,0 889,-36"/>
<text text-anchor="middle" x="815" y="-14.3" font-family="Times,serif" font-size="14.00">src.kgfoundry_common</text>
</g>
<!-- src.kgfoundry_common&#45;&gt;src.kgfoundry_common -->
<g id="edge1" class="edge">
<title>src.kgfoundry_common&#45;&gt;src.kgfoundry_common</title>
<path fill="none" stroke="black" d="M889.36,-5.89C899.92,-7.84 907,-11.88 907,-18 907,-21.92 904.09,-24.98 899.23,-27.2"/>
<polygon fill="black" stroke="black" points="889.36,-30.11 897.67,-22.96 894.15,-28.7 898.95,-27.28 898.95,-27.28 898.95,-27.28 894.15,-28.7 900.23,-31.59 889.36,-30.11 889.36,-30.11"/>
</g>
<!-- src.kgfoundry_common.config -->
<g id="node2" class="node">
<title>src.kgfoundry_common.config</title>
<polygon fill="none" stroke="black" points="186,-108 0,-108 0,-72 186,-72 186,-108"/>
<text text-anchor="middle" x="93" y="-86.3" font-family="Times,serif" font-size="14.00">src.kgfoundry_common.config</text>
</g>
<!-- src.kgfoundry_common&#45;&gt;src.kgfoundry_common.config -->
<g id="edge2" class="edge">
<title>src.kgfoundry_common&#45;&gt;src.kgfoundry_common.config</title>
<path fill="none" stroke="black" d="M740.83,-23.42C626.2,-30.67 398.89,-46.75 196.01,-71.93"/>
<polygon fill="black" stroke="black" points="186.07,-73.17 195.43,-67.47 191.03,-72.55 195.99,-71.93 195.99,-71.93 195.99,-71.93 191.03,-72.55 196.55,-76.4 186.07,-73.17 186.07,-73.17"/>
</g>
<!-- src.kgfoundry_common.errors -->
<g id="node3" class="node">
<title>src.kgfoundry_common.errors</title>
<polygon fill="none" stroke="black" points="387.5,-108 204.5,-108 204.5,-72 387.5,-72 387.5,-108"/>
<text text-anchor="middle" x="296" y="-86.3" font-family="Times,serif" font-size="14.00">src.kgfoundry_common.errors</text>
</g>
<!-- src.kgfoundry_common&#45;&gt;src.kgfoundry_common.errors -->
<g id="edge3" class="edge">
<title>src.kgfoundry_common&#45;&gt;src.kgfoundry_common.errors</title>
<path fill="none" stroke="black" d="M740.7,-27.43C659.05,-36.91 523.77,-53.27 397.74,-71.77"/>
<polygon fill="black" stroke="black" points="387.53,-73.28 396.76,-67.37 392.47,-72.55 397.42,-71.82 397.42,-71.82 397.42,-71.82 392.47,-72.55 398.08,-76.27 387.53,-73.28 387.53,-73.28"/>
</g>
<!-- src.kgfoundry_common.exceptions -->
<g id="node4" class="node">
<title>src.kgfoundry_common.exceptions</title>
<polygon fill="none" stroke="black" points="614.5,-108 405.5,-108 405.5,-72 614.5,-72 614.5,-108"/>
<text text-anchor="middle" x="510" y="-86.3" font-family="Times,serif" font-size="14.00">src.kgfoundry_common.exceptions</text>
</g>
<!-- src.kgfoundry_common&#45;&gt;src.kgfoundry_common.exceptions -->
<g id="edge4" class="edge">
<title>src.kgfoundry_common&#45;&gt;src.kgfoundry_common.exceptions</title>
<path fill="none" stroke="black" d="M740.78,-36.03C696.51,-46.2 640.16,-59.13 594.22,-69.67"/>
<polygon fill="black" stroke="black" points="584.29,-71.95 593.03,-65.33 589.16,-70.83 594.04,-69.71 594.04,-69.71 594.04,-69.71 589.16,-70.83 595.04,-74.1 584.29,-71.95 584.29,-71.95"/>
</g>
<!-- src.kgfoundry_common.ids -->
<g id="node5" class="node">
<title>src.kgfoundry_common.ids</title>
<polygon fill="none" stroke="black" points="799.5,-108 632.5,-108 632.5,-72 799.5,-72 799.5,-108"/>
<text text-anchor="middle" x="716" y="-86.3" font-family="Times,serif" font-size="14.00">src.kgfoundry_common.ids</text>
</g>
<!-- src.kgfoundry_common&#45;&gt;src.kgfoundry_common.ids -->
<g id="edge5" class="edge">
<title>src.kgfoundry_common&#45;&gt;src.kgfoundry_common.ids</title>
<path fill="none" stroke="black" d="M790.78,-36.12C778.08,-45.11 762.34,-56.24 748.58,-65.97"/>
<polygon fill="black" stroke="black" points="740.31,-71.81 745.88,-62.36 744.39,-68.92 748.48,-66.04 748.48,-66.04 748.48,-66.04 744.39,-68.92 751.07,-69.71 740.31,-71.81 740.31,-71.81"/>
</g>
<!-- src.kgfoundry_common.logging -->
<g id="node6" class="node">
<title>src.kgfoundry_common.logging</title>
<polygon fill="none" stroke="black" points="1010.5,-108 817.5,-108 817.5,-72 1010.5,-72 1010.5,-108"/>
<text text-anchor="middle" x="914" y="-86.3" font-family="Times,serif" font-size="14.00">src.kgfoundry_common.logging</text>
</g>
<!-- src.kgfoundry_common&#45;&gt;src.kgfoundry_common.logging -->
<g id="edge6" class="edge">
<title>src.kgfoundry_common&#45;&gt;src.kgfoundry_common.logging</title>
<path fill="none" stroke="black" d="M839.22,-36.12C851.92,-45.11 867.66,-56.24 881.42,-65.97"/>
<polygon fill="black" stroke="black" points="889.69,-71.81 878.93,-69.71 885.61,-68.92 881.52,-66.04 881.52,-66.04 881.52,-66.04 885.61,-68.92 884.12,-62.36 889.69,-71.81 889.69,-71.81"/>
</g>
<!-- src.kgfoundry_common.models -->
<g id="node7" class="node">
<title>src.kgfoundry_common.models</title>
<polygon fill="none" stroke="black" points="1219.5,-108 1028.5,-108 1028.5,-72 1219.5,-72 1219.5,-108"/>
<text text-anchor="middle" x="1124" y="-86.3" font-family="Times,serif" font-size="14.00">src.kgfoundry_common.models</text>
</g>
<!-- src.kgfoundry_common&#45;&gt;src.kgfoundry_common.models -->
<g id="edge7" class="edge">
<title>src.kgfoundry_common&#45;&gt;src.kgfoundry_common.models</title>
<path fill="none" stroke="black" d="M889.01,-35.77C934.1,-45.98 991.88,-59.07 1038.86,-69.71"/>
<polygon fill="black" stroke="black" points="1048.71,-71.94 1037.97,-74.12 1043.84,-70.84 1038.96,-69.74 1038.96,-69.74 1038.96,-69.74 1043.84,-70.84 1039.95,-65.35 1048.71,-71.94 1048.71,-71.94"/>
</g>
<!-- src.kgfoundry_common.navmap_types -->
<g id="node8" class="node">
<title>src.kgfoundry_common.navmap_types</title>
<polygon fill="none" stroke="black" points="1468,-108 1238,-108 1238,-72 1468,-72 1468,-108"/>
<text text-anchor="middle" x="1353" y="-86.3" font-family="Times,serif" font-size="14.00">src.kgfoundry_common.navmap_types</text>
</g>
<!-- src.kgfoundry_common&#45;&gt;src.kgfoundry_common.navmap_types -->
<g id="edge8" class="edge">
<title>src.kgfoundry_common&#45;&gt;src.kgfoundry_common.navmap_types</title>
<path fill="none" stroke="black" d="M889.06,-28.28C969.73,-38.43 1102.87,-55.32 1227.7,-71.83"/>
<polygon fill="black" stroke="black" points="1237.83,-73.17 1227.32,-76.32 1232.87,-72.52 1227.91,-71.86 1227.91,-71.86 1227.91,-71.86 1232.87,-72.52 1228.5,-67.4 1237.83,-73.17 1237.83,-73.17"/>
</g>
<!-- src.kgfoundry_common.parquet_io -->
<g id="node9" class="node">
<title>src.kgfoundry_common.parquet_io</title>
<polygon fill="none" stroke="black" points="1695.5,-108 1486.5,-108 1486.5,-72 1695.5,-72 1695.5,-108"/>
<text text-anchor="middle" x="1591" y="-86.3" font-family="Times,serif" font-size="14.00">src.kgfoundry_common.parquet_io</text>
</g>
<!-- src.kgfoundry_common&#45;&gt;src.kgfoundry_common.parquet_io -->
<g id="edge9" class="edge">
<title>src.kgfoundry_common&#45;&gt;src.kgfoundry_common.parquet_io</title>
<path fill="none" stroke="black" d="M889.12,-23.28C1009.84,-30.62 1256.61,-47.14 1476.25,-71.96"/>
<polygon fill="black" stroke="black" points="1486.36,-73.11 1475.92,-76.45 1481.39,-72.55 1476.43,-71.98 1476.43,-71.98 1476.43,-71.98 1481.39,-72.55 1476.94,-67.51 1486.36,-73.11 1486.36,-73.11"/>
</g>
</g>
</svg>
