<?xml version="1.0" encoding="UTF-8" standalone="no"?>
<!DOCTYPE svg PUBLIC "-//W3C//DTD SVG 1.1//EN"
 "http://www.w3.org/Graphics/SVG/1.1/DTD/svg11.dtd">
<!-- Generated by graphviz version 2.43.0 (0)
 -->
<!-- Title: packages_kg_builder Pages: 1 -->
<svg width="336pt" height="116pt"
 viewBox="0.00 0.00 336.00 116.00" xmlns="http://www.w3.org/2000/svg" xmlns:xlink="http://www.w3.org/1999/xlink">
<g id="graph0" class="graph" transform="scale(1 1) rotate(0) translate(4 112)">
<title>packages_kg_builder</title>
<polygon fill="white" stroke="transparent" points="-4,4 -4,-112 332,-112 332,4 -4,4"/>
<!-- src.kg_builder -->
<g id="node1" class="node">
<title>src.kg_builder</title>
<polygon fill="none" stroke="black" points="208,-36 113,-36 113,0 208,0 208,-36"/>
<text text-anchor="middle" x="160.5" y="-14.3" font-family="Times,serif" font-size="14.00">src.kg_builder</text>
</g>
<!-- src.kg_builder&#45;&gt;src.kg_builder -->
<g id="edge1" class="edge">
<title>src.kg_builder&#45;&gt;src.kg_builder</title>
<path fill="none" stroke="black" d="M208.19,-4.9C218.51,-6.18 226,-10.55 226,-18 226,-22.77 222.93,-26.28 218.01,-28.52"/>
<polygon fill="black" stroke="black" points="208.19,-31.1 216.72,-24.21 213.03,-29.83 217.86,-28.56 217.86,-28.56 217.86,-28.56 213.03,-29.83 219.01,-32.91 208.19,-31.1 208.19,-31.1"/>
</g>
<!-- src.kg_builder.mock_kg -->
<g id="node2" class="node">
<title>src.kg_builder.mock_kg</title>
<polygon fill="none" stroke="black" points="149,-108 0,-108 0,-72 149,-72 149,-108"/>
<text text-anchor="middle" x="74.5" y="-86.3" font-family="Times,serif" font-size="14.00">src.kg_builder.mock_kg</text>
</g>
<!-- src.kg_builder&#45;&gt;src.kg_builder.mock_kg -->
<g id="edge2" class="edge">
<title>src.kg_builder&#45;&gt;src.kg_builder.mock_kg</title>
<path fill="none" stroke="black" d="M139.24,-36.3C128.41,-45.12 115.08,-55.97 103.34,-65.53"/>
<polygon fill="black" stroke="black" points="95.51,-71.9 100.43,-62.09 99.39,-68.74 103.27,-65.58 103.27,-65.58 103.27,-65.58 99.39,-68.74 106.11,-69.07 95.51,-71.9 95.51,-71.9"/>
</g>
<!-- src.kg_builder.neo4j_store -->
<g id="node3" class="node">
<title>src.kg_builder.neo4j_store</title>
<polygon fill="none" stroke="black" points="328,-108 167,-108 167,-72 328,-72 328,-108"/>
<text text-anchor="middle" x="247.5" y="-86.3" font-family="Times,serif" font-size="14.00">src.kg_builder.neo4j_store</text>
</g>
<!-- src.kg_builder&#45;&gt;src.kg_builder.neo4j_store -->
<g id="edge3" class="edge">
<title>src.kg_builder&#45;&gt;src.kg_builder.neo4j_store</title>
<path fill="none" stroke="black" d="M182.01,-36.3C192.96,-45.12 206.45,-55.97 218.32,-65.53"/>
<polygon fill="black" stroke="black" points="226.24,-71.9 215.63,-69.13 222.35,-68.76 218.45,-65.63 218.45,-65.63 218.45,-65.63 222.35,-68.76 221.27,-62.12 226.24,-71.9 226.24,-71.9"/>
</g>
</g>
</svg>
