<?xml version="1.0" encoding="UTF-8" standalone="no"?>
<!DOCTYPE svg PUBLIC "-//W3C//DTD SVG 1.1//EN"
 "http://www.w3.org/Graphics/SVG/1.1/DTD/svg11.dtd">
<!-- Generated by graphviz version 2.43.0 (0)
 -->
<!-- Title: packages_vectorstore_faiss Pages: 1 -->
<svg width="166pt" height="116pt"
 viewBox="0.00 0.00 166.00 116.00" xmlns="http://www.w3.org/2000/svg" xmlns:xlink="http://www.w3.org/1999/xlink">
<g id="graph0" class="graph" transform="scale(1 1) rotate(0) translate(4 112)">
<title>packages_vectorstore_faiss</title>
<polygon fill="white" stroke="transparent" points="-4,4 -4,-112 162,-112 162,4 -4,4"/>
<!-- src.vectorstore_faiss -->
<g id="node1" class="node">
<title>src.vectorstore_faiss</title>
<polygon fill="none" stroke="black" points="140,-36 12,-36 12,0 140,0 140,-36"/>
<text text-anchor="middle" x="76" y="-14.3" font-family="Times,serif" font-size="14.00">src.vectorstore_faiss</text>
</g>
<!-- src.vectorstore_faiss&#45;&gt;src.vectorstore_faiss -->
<g id="edge1" class="edge">
<title>src.vectorstore_faiss&#45;&gt;src.vectorstore_faiss</title>
<path fill="none" stroke="black" d="M140.29,-5.51C150.79,-7.3 158,-11.46 158,-18 158,-22.19 155.04,-25.4 150.15,-27.64"/>
<polygon fill="black" stroke="black" points="140.29,-30.49 148.65,-23.39 145.09,-29.1 149.9,-27.72 149.9,-27.72 149.9,-27.72 145.09,-29.1 151.14,-32.04 140.29,-30.49 140.29,-30.49"/>
</g>
<!-- src.vectorstore_faiss.gpu -->
<g id="node2" class="node">
<title>src.vectorstore_faiss.gpu</title>
<polygon fill="none" stroke="black" points="152,-108 0,-108 0,-72 152,-72 152,-108"/>
<text text-anchor="middle" x="76" y="-86.3" font-family="Times,serif" font-size="14.00">src.vectorstore_faiss.gpu</text>
</g>
<!-- src.vectorstore_faiss&#45;&gt;src.vectorstore_faiss.gpu -->
<g id="edge2" class="edge">
<title>src.vectorstore_faiss&#45;&gt;src.vectorstore_faiss.gpu</title>
<path fill="none" stroke="black" d="M76,-36.3C76,-44.02 76,-53.29 76,-61.89"/>
<polygon fill="black" stroke="black" points="76,-71.9 71.5,-61.9 76,-66.9 76,-61.9 76,-61.9 76,-61.9 76,-66.9 80.5,-61.9 76,-71.9 76,-71.9"/>
</g>
</g>
</svg>
