<?xml version="1.0" encoding="UTF-8" standalone="no"?>
<!DOCTYPE svg PUBLIC "-//W3C//DTD SVG 1.1//EN"
 "http://www.w3.org/Graphics/SVG/1.1/DTD/svg11.dtd">
<!-- Generated by graphviz version 2.43.0 (0)
 -->
<!-- Title: packages_docling Pages: 1 -->
<svg width="414pt" height="116pt"
 viewBox="0.00 0.00 414.00 116.00" xmlns="http://www.w3.org/2000/svg" xmlns:xlink="http://www.w3.org/1999/xlink">
<g id="graph0" class="graph" transform="scale(1 1) rotate(0) translate(4 112)">
<title>packages_docling</title>
<polygon fill="white" stroke="transparent" points="-4,4 -4,-112 410,-112 410,4 -4,4"/>
<!-- src.docling -->
<g id="node1" class="node">
<title>src.docling</title>
<polygon fill="none" stroke="black" points="266.5,-36 189.5,-36 189.5,0 266.5,0 266.5,-36"/>
<text text-anchor="middle" x="228" y="-14.3" font-family="Times,serif" font-size="14.00">src.docling</text>
</g>
<!-- src.docling&#45;&gt;src.docling -->
<g id="edge1" class="edge">
<title>src.docling&#45;&gt;src.docling</title>
<path fill="none" stroke="black" d="M266.56,-4.62C276.77,-5.38 284.5,-9.84 284.5,-18 284.5,-23.23 281.33,-26.93 276.36,-29.13"/>
<polygon fill="black" stroke="black" points="266.56,-31.38 275.29,-24.75 271.43,-30.26 276.3,-29.14 276.3,-29.14 276.3,-29.14 271.43,-30.26 277.31,-33.52 266.56,-31.38 266.56,-31.38"/>
</g>
<!-- src.docling.canonicalizer -->
<g id="node2" class="node">
<title>src.docling.canonicalizer</title>
<polygon fill="none" stroke="black" points="152,-108 0,-108 0,-72 152,-72 152,-108"/>
<text text-anchor="middle" x="76" y="-86.3" font-family="Times,serif" font-size="14.00">src.docling.canonicalizer</text>
</g>
<!-- src.docling&#45;&gt;src.docling.canonicalizer -->
<g id="edge2" class="edge">
<title>src.docling&#45;&gt;src.docling.canonicalizer</title>
<path fill="none" stroke="black" d="M190.82,-36.12C170.13,-45.65 144.2,-57.59 122.22,-67.72"/>
<polygon fill="black" stroke="black" points="113.06,-71.93 120.26,-63.66 117.6,-69.84 122.15,-67.75 122.15,-67.75 122.15,-67.75 117.6,-69.84 124.03,-71.84 113.06,-71.93 113.06,-71.93"/>
</g>
<!-- src.docling.hybrid -->
<g id="node3" class="node">
<title>src.docling.hybrid</title>
<polygon fill="none" stroke="black" points="286,-108 170,-108 170,-72 286,-72 286,-108"/>
<text text-anchor="middle" x="228" y="-86.3" font-family="Times,serif" font-size="14.00">src.docling.hybrid</text>
</g>
<!-- src.docling&#45;&gt;src.docling.hybrid -->
<g id="edge3" class="edge">
<title>src.docling&#45;&gt;src.docling.hybrid</title>
<path fill="none" stroke="black" d="M228,-36.3C228,-44.02 228,-53.29 228,-61.89"/>
<polygon fill="black" stroke="black" points="228,-71.9 223.5,-61.9 228,-66.9 228,-61.9 228,-61.9 228,-61.9 228,-66.9 232.5,-61.9 228,-71.9 228,-71.9"/>
</g>
<!-- src.docling.vlm -->
<g id="node4" class="node">
<title>src.docling.vlm</title>
<polygon fill="none" stroke="black" points="406,-108 304,-108 304,-72 406,-72 406,-108"/>
<text text-anchor="middle" x="355" y="-86.3" font-family="Times,serif" font-size="14.00">src.docling.vlm</text>
</g>
<!-- src.docling&#45;&gt;src.docling.vlm -->
<g id="edge4" class="edge">
<title>src.docling&#45;&gt;src.docling.vlm</title>
<path fill="none" stroke="black" d="M259.07,-36.12C275.83,-45.36 296.71,-56.87 314.7,-66.79"/>
<polygon fill="black" stroke="black" points="323.81,-71.81 312.88,-70.92 319.43,-69.4 315.06,-66.98 315.06,-66.98 315.06,-66.98 319.43,-69.4 317.23,-63.04 323.81,-71.81 323.81,-71.81"/>
</g>
</g>
</svg>
