<?xml version="1.0" encoding="UTF-8" standalone="no"?>
<!DOCTYPE svg PUBLIC "-//W3C//DTD SVG 1.1//EN"
 "http://www.w3.org/Graphics/SVG/1.1/DTD/svg11.dtd">
<!-- Generated by graphviz version 2.43.0 (0)
 -->
<!-- Title: packages_ontology Pages: 1 -->
<svg width="274pt" height="116pt"
 viewBox="0.00 0.00 273.50 116.00" xmlns="http://www.w3.org/2000/svg" xmlns:xlink="http://www.w3.org/1999/xlink">
<g id="graph0" class="graph" transform="scale(1 1) rotate(0) translate(4 112)">
<title>packages_ontology</title>
<polygon fill="white" stroke="transparent" points="-4,4 -4,-112 269.5,-112 269.5,4 -4,4"/>
<!-- src.ontology -->
<g id="node1" class="node">
<title>src.ontology</title>
<polygon fill="none" stroke="black" points="176,-36 92,-36 92,0 176,0 176,-36"/>
<text text-anchor="middle" x="134" y="-14.3" font-family="Times,serif" font-size="14.00">src.ontology</text>
</g>
<!-- src.ontology&#45;&gt;src.ontology -->
<g id="edge1" class="edge">
<title>src.ontology&#45;&gt;src.ontology</title>
<path fill="none" stroke="black" d="M176.06,-4.71C186.34,-5.7 194,-10.12 194,-18 194,-23.04 190.86,-26.68 185.89,-28.89"/>
<polygon fill="black" stroke="black" points="176.06,-31.29 184.71,-24.55 180.91,-30.11 185.77,-28.92 185.77,-28.92 185.77,-28.92 180.91,-30.11 186.84,-33.29 176.06,-31.29 176.06,-31.29"/>
</g>
<!-- src.ontology.catalog -->
<g id="node2" class="node">
<title>src.ontology.catalog</title>
<polygon fill="none" stroke="black" points="126,-108 0,-108 0,-72 126,-72 126,-108"/>
<text text-anchor="middle" x="63" y="-86.3" font-family="Times,serif" font-size="14.00">src.ontology.catalog</text>
</g>
<!-- src.ontology&#45;&gt;src.ontology.catalog -->
<g id="edge2" class="edge">
<title>src.ontology&#45;&gt;src.ontology.catalog</title>
<path fill="none" stroke="black" d="M116.45,-36.3C107.77,-44.86 97.14,-55.34 87.65,-64.7"/>
<polygon fill="black" stroke="black" points="80.35,-71.9 84.31,-61.67 83.91,-68.39 87.47,-64.87 87.47,-64.87 87.47,-64.87 83.91,-68.39 90.63,-68.08 80.35,-71.9 80.35,-71.9"/>
</g>
<!-- src.ontology.loader -->
<g id="node3" class="node">
<title>src.ontology.loader</title>
<polygon fill="none" stroke="black" points="265.5,-108 144.5,-108 144.5,-72 265.5,-72 265.5,-108"/>
<text text-anchor="middle" x="205" y="-86.3" font-family="Times,serif" font-size="14.00">src.ontology.loader</text>
</g>
<!-- src.ontology&#45;&gt;src.ontology.loader -->
<g id="edge3" class="edge">
<title>src.ontology&#45;&gt;src.ontology.loader</title>
<path fill="none" stroke="black" d="M151.55,-36.3C160.23,-44.86 170.86,-55.34 180.35,-64.7"/>
<polygon fill="black" stroke="black" points="187.65,-71.9 177.37,-68.08 184.09,-68.39 180.53,-64.87 180.53,-64.87 180.53,-64.87 184.09,-68.39 183.69,-61.67 187.65,-71.9 187.65,-71.9"/>
</g>
</g>
</svg>
