<?xml version="1.0" encoding="UTF-8" standalone="no"?>
<!DOCTYPE svg PUBLIC "-//W3C//DTD SVG 1.1//EN"
 "http://www.w3.org/Graphics/SVG/1.1/DTD/svg11.dtd">
<!-- Generated by graphviz version 2.43.0 (0)
 -->
<!-- Title: packages_embeddings_sparse Pages: 1 -->
<svg width="574pt" height="116pt"
 viewBox="0.00 0.00 573.50 116.00" xmlns="http://www.w3.org/2000/svg" xmlns:xlink="http://www.w3.org/1999/xlink">
<g id="graph0" class="graph" transform="scale(1 1) rotate(0) translate(4 112)">
<title>packages_embeddings_sparse</title>
<polygon fill="white" stroke="transparent" points="-4,4 -4,-112 569.5,-112 569.5,4 -4,4"/>
<!-- src.embeddings_sparse -->
<g id="node1" class="node">
<title>src.embeddings_sparse</title>
<polygon fill="none" stroke="black" points="348.5,-36 205.5,-36 205.5,0 348.5,0 348.5,-36"/>
<text text-anchor="middle" x="277" y="-14.3" font-family="Times,serif" font-size="14.00">src.embeddings_sparse</text>
</g>
<!-- src.embeddings_sparse&#45;&gt;src.embeddings_sparse -->
<g id="edge1" class="edge">
<title>src.embeddings_sparse&#45;&gt;src.embeddings_sparse</title>
<path fill="none" stroke="black" d="M348.63,-5.75C359.29,-7.66 366.5,-11.74 366.5,-18 366.5,-22.11 363.39,-25.28 358.25,-27.51"/>
<polygon fill="black" stroke="black" points="348.63,-30.25 357.01,-23.18 353.43,-28.88 358.24,-27.51 358.24,-27.51 358.24,-27.51 353.43,-28.88 359.48,-31.84 348.63,-30.25 348.63,-30.25"/>
</g>
<!-- src.embeddings_sparse.base -->
<g id="node2" class="node">
<title>src.embeddings_sparse.base</title>
<polygon fill="none" stroke="black" points="170,-108 0,-108 0,-72 170,-72 170,-108"/>
<text text-anchor="middle" x="85" y="-86.3" font-family="Times,serif" font-size="14.00">src.embeddings_sparse.base</text>
</g>
<!-- src.embeddings_sparse&#45;&gt;src.embeddings_sparse.base -->
<g id="edge2" class="edge">
<title>src.embeddings_sparse&#45;&gt;src.embeddings_sparse.base</title>
<path fill="none" stroke="black" d="M230.03,-36.12C203.32,-45.86 169.68,-58.13 141.53,-68.39"/>
<polygon fill="black" stroke="black" points="131.82,-71.93 139.67,-64.28 136.51,-70.22 141.21,-68.51 141.21,-68.51 141.21,-68.51 136.51,-70.22 142.75,-72.73 131.82,-71.93 131.82,-71.93"/>
</g>
<!-- src.embeddings_sparse.bm25 -->
<g id="node3" class="node">
<title>src.embeddings_sparse.bm25</title>
<polygon fill="none" stroke="black" points="366,-108 188,-108 188,-72 366,-72 366,-108"/>
<text text-anchor="middle" x="277" y="-86.3" font-family="Times,serif" font-size="14.00">src.embeddings_sparse.bm25</text>
</g>
<!-- src.embeddings_sparse&#45;&gt;src.embeddings_sparse.bm25 -->
<g id="edge3" class="edge">
<title>src.embeddings_sparse&#45;&gt;src.embeddings_sparse.bm25</title>
<path fill="none" stroke="black" d="M277,-36.3C277,-44.02 277,-53.29 277,-61.89"/>
<polygon fill="black" stroke="black" points="277,-71.9 272.5,-61.9 277,-66.9 277,-61.9 277,-61.9 277,-61.9 277,-66.9 281.5,-61.9 277,-71.9 277,-71.9"/>
</g>
<!-- src.embeddings_sparse.splade -->
<g id="node4" class="node">
<title>src.embeddings_sparse.splade</title>
<polygon fill="none" stroke="black" points="565.5,-108 384.5,-108 384.5,-72 565.5,-72 565.5,-108"/>
<text text-anchor="middle" x="475" y="-86.3" font-family="Times,serif" font-size="14.00">src.embeddings_sparse.splade</text>
</g>
<!-- src.embeddings_sparse&#45;&gt;src.embeddings_sparse.splade -->
<g id="edge4" class="edge">
<title>src.embeddings_sparse&#45;&gt;src.embeddings_sparse.splade</title>
<path fill="none" stroke="black" d="M325.18,-36.03C352.85,-45.81 387.78,-58.16 416.95,-68.48"/>
<polygon fill="black" stroke="black" points="426.6,-71.89 415.67,-72.8 421.89,-70.22 417.17,-68.56 417.17,-68.56 417.17,-68.56 421.89,-70.22 418.67,-64.31 426.6,-71.89 426.6,-71.89"/>
</g>
</g>
</svg>
