<?xml version="1.0" encoding="UTF-8" standalone="no"?>
<!DOCTYPE svg PUBLIC "-//W3C//DTD SVG 1.1//EN"
 "http://www.w3.org/Graphics/SVG/1.1/DTD/svg11.dtd">
<!-- Generated by graphviz version 2.43.0 (0)
 -->
<!-- Title: packages_download Pages: 1 -->
<svg width="276pt" height="116pt"
 viewBox="0.00 0.00 276.00 116.00" xmlns="http://www.w3.org/2000/svg" xmlns:xlink="http://www.w3.org/1999/xlink">
<g id="graph0" class="graph" transform="scale(1 1) rotate(0) translate(4 112)">
<title>packages_download</title>
<polygon fill="white" stroke="transparent" points="-4,4 -4,-112 272,-112 272,4 -4,4"/>
<!-- src.download -->
<g id="node1" class="node">
<title>src.download</title>
<polygon fill="none" stroke="black" points="169,-36 80,-36 80,0 169,0 169,-36"/>
<text text-anchor="middle" x="124.5" y="-14.3" font-family="Times,serif" font-size="14.00">src.download</text>
</g>
<!-- src.download&#45;&gt;src.download -->
<g id="edge1" class="edge">
<title>src.download&#45;&gt;src.download</title>
<path fill="none" stroke="black" d="M169.16,-4.8C179.45,-5.94 187,-10.34 187,-18 187,-22.91 183.9,-26.48 178.97,-28.71"/>
<polygon fill="black" stroke="black" points="169.16,-31.2 177.75,-24.38 174.01,-29.97 178.86,-28.74 178.86,-28.74 178.86,-28.74 174.01,-29.97 179.96,-33.1 169.16,-31.2 169.16,-31.2"/>
</g>
<!-- src.download.cli -->
<g id="node2" class="node">
<title>src.download.cli</title>
<polygon fill="none" stroke="black" points="107,-108 0,-108 0,-72 107,-72 107,-108"/>
<text text-anchor="middle" x="53.5" y="-86.3" font-family="Times,serif" font-size="14.00">src.download.cli</text>
</g>
<!-- src.download&#45;&gt;src.download.cli -->
<g id="edge2" class="edge">
<title>src.download&#45;&gt;src.download.cli</title>
<path fill="none" stroke="black" d="M106.95,-36.3C98.27,-44.86 87.64,-55.34 78.15,-64.7"/>
<polygon fill="black" stroke="black" points="70.85,-71.9 74.81,-61.67 74.41,-68.39 77.97,-64.87 77.97,-64.87 77.97,-64.87 74.41,-68.39 81.13,-68.08 70.85,-71.9 70.85,-71.9"/>
</g>
<!-- src.download.harvester -->
<g id="node3" class="node">
<title>src.download.harvester</title>
<polygon fill="none" stroke="black" points="268,-108 125,-108 125,-72 268,-72 268,-108"/>
<text text-anchor="middle" x="196.5" y="-86.3" font-family="Times,serif" font-size="14.00">src.download.harvester</text>
</g>
<!-- src.download&#45;&gt;src.download.harvester -->
<g id="edge3" class="edge">
<title>src.download&#45;&gt;src.download.harvester</title>
<path fill="none" stroke="black" d="M142.3,-36.3C151.1,-44.86 161.88,-55.34 171.5,-64.7"/>
<polygon fill="black" stroke="black" points="178.91,-71.9 168.6,-68.15 175.32,-68.41 171.74,-64.92 171.74,-64.92 171.74,-64.92 175.32,-68.41 174.87,-61.7 178.91,-71.9 178.91,-71.9"/>
</g>
</g>
</svg>
