<?xml version="1.0" encoding="UTF-8" standalone="no"?>
<!DOCTYPE svg PUBLIC "-//W3C//DTD SVG 1.1//EN"
 "http://www.w3.org/Graphics/SVG/1.1/DTD/svg11.dtd">
<!-- Generated by graphviz version 2.43.0 (0)
 -->
<!-- Title: packages_linking Pages: 1 -->
<svg width="272pt" height="116pt"
 viewBox="0.00 0.00 272.00 116.00" xmlns="http://www.w3.org/2000/svg" xmlns:xlink="http://www.w3.org/1999/xlink">
<g id="graph0" class="graph" transform="scale(1 1) rotate(0) translate(4 112)">
<title>packages_linking</title>
<polygon fill="white" stroke="transparent" points="-4,4 -4,-112 268,-112 268,4 -4,4"/>
<!-- src.linking -->
<g id="node1" class="node">
<title>src.linking</title>
<polygon fill="none" stroke="black" points="175,-36 101,-36 101,0 175,0 175,-36"/>
<text text-anchor="middle" x="138" y="-14.3" font-family="Times,serif" font-size="14.00">src.linking</text>
</g>
<!-- src.linking&#45;&gt;src.linking -->
<g id="edge1" class="edge">
<title>src.linking&#45;&gt;src.linking</title>
<path fill="none" stroke="black" d="M175.02,-4.58C185.21,-5.23 193,-9.7 193,-18 193,-23.32 189.8,-27.06 184.82,-29.24"/>
<polygon fill="black" stroke="black" points="175.02,-31.42 183.8,-24.85 179.9,-30.33 184.78,-29.25 184.78,-29.25 184.78,-29.25 179.9,-30.33 185.75,-33.64 175.02,-31.42 175.02,-31.42"/>
</g>
<!-- src.linking.calibration -->
<g id="node2" class="node">
<title>src.linking.calibration</title>
<polygon fill="none" stroke="black" points="136,-108 0,-108 0,-72 136,-72 136,-108"/>
<text text-anchor="middle" x="68" y="-86.3" font-family="Times,serif" font-size="14.00">src.linking.calibration</text>
</g>
<!-- src.linking&#45;&gt;src.linking.calibration -->
<g id="edge2" class="edge">
<title>src.linking&#45;&gt;src.linking.calibration</title>
<path fill="none" stroke="black" d="M120.7,-36.3C112.14,-44.86 101.66,-55.34 92.3,-64.7"/>
<polygon fill="black" stroke="black" points="85.1,-71.9 88.99,-61.64 88.64,-68.36 92.18,-64.82 92.18,-64.82 92.18,-64.82 88.64,-68.36 95.36,-68.01 85.1,-71.9 85.1,-71.9"/>
</g>
<!-- src.linking.linker -->
<g id="node3" class="node">
<title>src.linking.linker</title>
<polygon fill="none" stroke="black" points="264,-108 154,-108 154,-72 264,-72 264,-108"/>
<text text-anchor="middle" x="209" y="-86.3" font-family="Times,serif" font-size="14.00">src.linking.linker</text>
</g>
<!-- src.linking&#45;&gt;src.linking.linker -->
<g id="edge3" class="edge">
<title>src.linking&#45;&gt;src.linking.linker</title>
<path fill="none" stroke="black" d="M155.55,-36.3C164.23,-44.86 174.86,-55.34 184.35,-64.7"/>
<polygon fill="black" stroke="black" points="191.65,-71.9 181.37,-68.08 188.09,-68.39 184.53,-64.87 184.53,-64.87 184.53,-64.87 188.09,-68.39 187.69,-61.67 191.65,-71.9 191.65,-71.9"/>
</g>
</g>
</svg>
