<?xml version="1.0" encoding="UTF-8" standalone="no"?>
<!DOCTYPE svg PUBLIC "-//W3C//DTD SVG 1.1//EN"
 "http://www.w3.org/Graphics/SVG/1.1/DTD/svg11.dtd">
<!-- Generated by graphviz version 2.43.0 (0)
 -->
<!-- Title: packages_orchestration Pages: 1 -->
<svg width="486pt" height="116pt"
 viewBox="0.00 0.00 486.00 116.00" xmlns="http://www.w3.org/2000/svg" xmlns:xlink="http://www.w3.org/1999/xlink">
<g id="graph0" class="graph" transform="scale(1 1) rotate(0) translate(4 112)">
<title>packages_orchestration</title>
<polygon fill="white" stroke="transparent" points="-4,4 -4,-112 482,-112 482,4 -4,4"/>
<!-- src.orchestration -->
<g id="node1" class="node">
<title>src.orchestration</title>
<polygon fill="none" stroke="black" points="284.5,-36 177.5,-36 177.5,0 284.5,0 284.5,-36"/>
<text text-anchor="middle" x="231" y="-14.3" font-family="Times,serif" font-size="14.00">src.orchestration</text>
</g>
<!-- src.orchestration&#45;&gt;src.orchestration -->
<g id="edge1" class="edge">
<title>src.orchestration&#45;&gt;src.orchestration</title>
<path fill="none" stroke="black" d="M284.63,-5.1C295.08,-6.6 302.5,-10.9 302.5,-18 302.5,-22.55 299.46,-25.95 294.52,-28.2"/>
<polygon fill="black" stroke="black" points="284.63,-30.9 293.09,-23.92 289.46,-29.58 294.28,-28.26 294.28,-28.26 294.28,-28.26 289.46,-29.58 295.46,-32.61 284.63,-30.9 284.63,-30.9"/>
</g>
<!-- src.orchestration.cli -->
<g id="node2" class="node">
<title>src.orchestration.cli</title>
<polygon fill="none" stroke="black" points="124,-108 0,-108 0,-72 124,-72 124,-108"/>
<text text-anchor="middle" x="62" y="-86.3" font-family="Times,serif" font-size="14.00">src.orchestration.cli</text>
</g>
<!-- src.orchestration&#45;&gt;src.orchestration.cli -->
<g id="edge2" class="edge">
<title>src.orchestration&#45;&gt;src.orchestration.cli</title>
<path fill="none" stroke="black" d="M189.66,-36.12C166.45,-45.74 137.31,-57.81 112.73,-67.99"/>
<polygon fill="black" stroke="black" points="103.21,-71.93 110.72,-63.95 107.83,-70.02 112.45,-68.1 112.45,-68.1 112.45,-68.1 107.83,-70.02 114.17,-72.26 103.21,-71.93 103.21,-71.93"/>
</g>
<!-- src.orchestration.fixture_flow -->
<g id="node3" class="node">
<title>src.orchestration.fixture_flow</title>
<polygon fill="none" stroke="black" points="320,-108 142,-108 142,-72 320,-72 320,-108"/>
<text text-anchor="middle" x="231" y="-86.3" font-family="Times,serif" font-size="14.00">src.orchestration.fixture_flow</text>
</g>
<!-- src.orchestration&#45;&gt;src.orchestration.fixture_flow -->
<g id="edge3" class="edge">
<title>src.orchestration&#45;&gt;src.orchestration.fixture_flow</title>
<path fill="none" stroke="black" d="M231,-36.3C231,-44.02 231,-53.29 231,-61.89"/>
<polygon fill="black" stroke="black" points="231,-71.9 226.5,-61.9 231,-66.9 231,-61.9 231,-61.9 231,-61.9 231,-66.9 235.5,-61.9 231,-71.9 231,-71.9"/>
</g>
<!-- src.orchestration.flows -->
<g id="node4" class="node">
<title>src.orchestration.flows</title>
<polygon fill="none" stroke="black" points="478,-108 338,-108 338,-72 478,-72 478,-108"/>
<text text-anchor="middle" x="408" y="-86.3" font-family="Times,serif" font-size="14.00">src.orchestration.flows</text>
</g>
<!-- src.orchestration&#45;&gt;src.orchestration.flows -->
<g id="edge4" class="edge">
<title>src.orchestration&#45;&gt;src.orchestration.flows</title>
<path fill="none" stroke="black" d="M274.3,-36.12C298.71,-45.78 329.4,-57.91 355.21,-68.12"/>
<polygon fill="black" stroke="black" points="364.84,-71.93 353.89,-72.44 360.19,-70.09 355.54,-68.25 355.54,-68.25 355.54,-68.25 360.19,-70.09 357.2,-64.07 364.84,-71.93 364.84,-71.93"/>
</g>
</g>
</svg>
