<?xml version="1.0" encoding="UTF-8" standalone="no"?>
<!DOCTYPE svg PUBLIC "-//W3C//DTD SVG 1.1//EN"
 "http://www.w3.org/Graphics/SVG/1.1/DTD/svg11.dtd">
<!-- Generated by graphviz version 2.43.0 (0)
 -->
<!-- Title: packages_search_client Pages: 1 -->
<svg width="149pt" height="116pt"
 viewBox="0.00 0.00 149.00 116.00" xmlns="http://www.w3.org/2000/svg" xmlns:xlink="http://www.w3.org/1999/xlink">
<g id="graph0" class="graph" transform="scale(1 1) rotate(0) translate(4 112)">
<title>packages_search_client</title>
<polygon fill="white" stroke="transparent" points="-4,4 -4,-112 145,-112 145,4 -4,4"/>
<!-- src.search_client -->
<g id="node1" class="node">
<title>src.search_client</title>
<polygon fill="none" stroke="black" points="124,-36 17,-36 17,0 124,0 124,-36"/>
<text text-anchor="middle" x="70.5" y="-14.3" font-family="Times,serif" font-size="14.00">src.search_client</text>
</g>
<!-- src.search_client.client -->
<g id="node2" class="node">
<title>src.search_client.client</title>
<polygon fill="none" stroke="black" points="141,-108 0,-108 0,-72 141,-72 141,-108"/>
<text text-anchor="middle" x="70.5" y="-86.3" font-family="Times,serif" font-size="14.00">src.search_client.client</text>
</g>
<!-- src.search_client&#45;&gt;src.search_client.client -->
<g id="edge1" class="edge">
<title>src.search_client&#45;&gt;src.search_client.client</title>
<path fill="none" stroke="black" d="M70.5,-36.3C70.5,-44.02 70.5,-53.29 70.5,-61.89"/>
<polygon fill="black" stroke="black" points="70.5,-71.9 66,-61.9 70.5,-66.9 70.5,-61.9 70.5,-61.9 70.5,-61.9 70.5,-66.9 75,-61.9 70.5,-71.9 70.5,-71.9"/>
</g>
</g>
</svg>
