<?xml version="1.0" encoding="UTF-8" standalone="no"?>
<!DOCTYPE svg PUBLIC "-//W3C//DTD SVG 1.1//EN"
 "http://www.w3.org/Graphics/SVG/1.1/DTD/svg11.dtd">
<!-- Generated by graphviz version 2.43.0 (0)
 -->
<!-- Title: packages_embeddings_dense Pages: 1 -->
<svg width="372pt" height="116pt"
 viewBox="0.00 0.00 372.00 116.00" xmlns="http://www.w3.org/2000/svg" xmlns:xlink="http://www.w3.org/1999/xlink">
<g id="graph0" class="graph" transform="scale(1 1) rotate(0) translate(4 112)">
<title>packages_embeddings_dense</title>
<polygon fill="white" stroke="transparent" points="-4,4 -4,-112 368,-112 368,4 -4,4"/>
<!-- src.embeddings_dense -->
<g id="node1" class="node">
<title>src.embeddings_dense</title>
<polygon fill="none" stroke="black" points="248.5,-36 108.5,-36 108.5,0 248.5,0 248.5,-36"/>
<text text-anchor="middle" x="178.5" y="-14.3" font-family="Times,serif" font-size="14.00">src.embeddings_dense</text>
</g>
<!-- src.embeddings_dense&#45;&gt;src.embeddings_dense -->
<g id="edge1" class="edge">
<title>src.embeddings_dense&#45;&gt;src.embeddings_dense</title>
<path fill="none" stroke="black" d="M248.57,-5.69C259.25,-7.57 266.5,-11.67 266.5,-18 266.5,-22.15 263.38,-25.35 258.21,-27.58"/>
<polygon fill="black" stroke="black" points="248.57,-30.31 256.97,-23.26 253.38,-28.95 258.19,-27.59 258.19,-27.59 258.19,-27.59 253.38,-28.95 259.42,-31.92 248.57,-30.31 248.57,-30.31"/>
</g>
<!-- src.embeddings_dense.base -->
<g id="node2" class="node">
<title>src.embeddings_dense.base</title>
<polygon fill="none" stroke="black" points="167,-108 0,-108 0,-72 167,-72 167,-108"/>
<text text-anchor="middle" x="83.5" y="-86.3" font-family="Times,serif" font-size="14.00">src.embeddings_dense.base</text>
</g>
<!-- src.embeddings_dense&#45;&gt;src.embeddings_dense.base -->
<g id="edge2" class="edge">
<title>src.embeddings_dense&#45;&gt;src.embeddings_dense.base</title>
<path fill="none" stroke="black" d="M155.02,-36.3C142.94,-45.2 128.05,-56.18 114.98,-65.8"/>
<polygon fill="black" stroke="black" points="106.71,-71.9 112.09,-62.34 110.74,-68.93 114.76,-65.96 114.76,-65.96 114.76,-65.96 110.74,-68.93 117.43,-69.59 106.71,-71.9 106.71,-71.9"/>
</g>
<!-- src.embeddings_dense.qwen3 -->
<g id="node3" class="node">
<title>src.embeddings_dense.qwen3</title>
<polygon fill="none" stroke="black" points="364,-108 185,-108 185,-72 364,-72 364,-108"/>
<text text-anchor="middle" x="274.5" y="-86.3" font-family="Times,serif" font-size="14.00">src.embeddings_dense.qwen3</text>
</g>
<!-- src.embeddings_dense&#45;&gt;src.embeddings_dense.qwen3 -->
<g id="edge3" class="edge">
<title>src.embeddings_dense&#45;&gt;src.embeddings_dense.qwen3</title>
<path fill="none" stroke="black" d="M202.23,-36.3C214.44,-45.2 229.49,-56.18 242.68,-65.8"/>
<polygon fill="black" stroke="black" points="251.04,-71.9 240.31,-69.64 247,-68.95 242.96,-66 242.96,-66 242.96,-66 247,-68.95 245.61,-62.37 251.04,-71.9 251.04,-71.9"/>
</g>
</g>
</svg>
