<?xml version="1.0" encoding="UTF-8" standalone="no"?>
<!DOCTYPE svg PUBLIC "-//W3C//DTD SVG 1.1//EN"
 "http://www.w3.org/Graphics/SVG/1.1/DTD/svg11.dtd">
<!-- Generated by graphviz version 2.43.0 (0)
 -->
<!-- Title: packages_registry Pages: 1 -->
<svg width="564pt" height="116pt"
 viewBox="0.00 0.00 563.50 116.00" xmlns="http://www.w3.org/2000/svg" xmlns:xlink="http://www.w3.org/1999/xlink">
<g id="graph0" class="graph" transform="scale(1 1) rotate(0) translate(4 112)">
<title>packages_registry</title>
<polygon fill="white" stroke="transparent" points="-4,4 -4,-112 559.5,-112 559.5,4 -4,4"/>
<!-- src.registry -->
<g id="node1" class="node">
<title>src.registry</title>
<polygon fill="none" stroke="black" points="317,-36 240,-36 240,0 317,0 317,-36"/>
<text text-anchor="middle" x="278.5" y="-14.3" font-family="Times,serif" font-size="14.00">src.registry</text>
</g>
<!-- src.registry&#45;&gt;src.registry -->
<g id="edge1" class="edge">
<title>src.registry&#45;&gt;src.registry</title>
<path fill="none" stroke="black" d="M317.06,-4.62C327.27,-5.38 335,-9.84 335,-18 335,-23.23 331.83,-26.93 326.86,-29.13"/>
<polygon fill="black" stroke="black" points="317.06,-31.38 325.79,-24.75 321.93,-30.26 326.8,-29.14 326.8,-29.14 326.8,-29.14 321.93,-30.26 327.81,-33.52 317.06,-31.38 317.06,-31.38"/>
</g>
<!-- src.registry.api -->
<g id="node2" class="node">
<title>src.registry.api</title>
<polygon fill="none" stroke="black" points="97,-108 0,-108 0,-72 97,-72 97,-108"/>
<text text-anchor="middle" x="48.5" y="-86.3" font-family="Times,serif" font-size="14.00">src.registry.api</text>
</g>
<!-- src.registry&#45;&gt;src.registry.api -->
<g id="edge2" class="edge">
<title>src.registry&#45;&gt;src.registry.api</title>
<path fill="none" stroke="black" d="M239.74,-30.8C203.36,-41.87 148.44,-58.58 106.77,-71.27"/>
<polygon fill="black" stroke="black" points="97.02,-74.23 105.28,-67.02 101.81,-72.78 106.59,-71.32 106.59,-71.32 106.59,-71.32 101.81,-72.78 107.9,-75.63 97.02,-74.23 97.02,-74.23"/>
</g>
<!-- src.registry.duckdb_registry -->
<g id="node3" class="node">
<title>src.registry.duckdb_registry</title>
<polygon fill="none" stroke="black" points="283.5,-108 115.5,-108 115.5,-72 283.5,-72 283.5,-108"/>
<text text-anchor="middle" x="199.5" y="-86.3" font-family="Times,serif" font-size="14.00">src.registry.duckdb_registry</text>
</g>
<!-- src.registry&#45;&gt;src.registry.duckdb_registry -->
<g id="edge3" class="edge">
<title>src.registry&#45;&gt;src.registry.duckdb_registry</title>
<path fill="none" stroke="black" d="M258.97,-36.3C249.12,-45.03 237.01,-55.76 226.3,-65.25"/>
<polygon fill="black" stroke="black" points="218.8,-71.9 223.3,-61.9 222.55,-68.58 226.29,-65.26 226.29,-65.26 226.29,-65.26 222.55,-68.58 229.27,-68.63 218.8,-71.9 218.8,-71.9"/>
</g>
<!-- src.registry.helper -->
<g id="node4" class="node">
<title>src.registry.helper</title>
<polygon fill="none" stroke="black" points="415.5,-108 301.5,-108 301.5,-72 415.5,-72 415.5,-108"/>
<text text-anchor="middle" x="358.5" y="-86.3" font-family="Times,serif" font-size="14.00">src.registry.helper</text>
</g>
<!-- src.registry&#45;&gt;src.registry.helper -->
<g id="edge4" class="edge">
<title>src.registry&#45;&gt;src.registry.helper</title>
<path fill="none" stroke="black" d="M298.28,-36.3C308.25,-45.03 320.51,-55.76 331.36,-65.25"/>
<polygon fill="black" stroke="black" points="338.95,-71.9 328.46,-68.7 335.19,-68.6 331.43,-65.31 331.43,-65.31 331.43,-65.31 335.19,-68.6 334.39,-61.92 338.95,-71.9 338.95,-71.9"/>
</g>
<!-- src.registry.migrate -->
<g id="node5" class="node">
<title>src.registry.migrate</title>
<polygon fill="none" stroke="black" points="555.5,-108 433.5,-108 433.5,-72 555.5,-72 555.5,-108"/>
<text text-anchor="middle" x="494.5" y="-86.3" font-family="Times,serif" font-size="14.00">src.registry.migrate</text>
</g>
<!-- src.registry&#45;&gt;src.registry.migrate -->
<g id="edge5" class="edge">
<title>src.registry&#45;&gt;src.registry.migrate</title>
<path fill="none" stroke="black" d="M317.12,-31.51C349.09,-41.88 395.12,-56.79 432.28,-68.84"/>
<polygon fill="black" stroke="black" points="442.02,-71.99 431.12,-73.19 437.26,-70.45 432.5,-68.91 432.5,-68.91 432.5,-68.91 437.26,-70.45 433.89,-64.63 442.02,-71.99 442.02,-71.99"/>
</g>
</g>
</svg>
