<?xml version="1.0" encoding="UTF-8" standalone="no"?>
<!DOCTYPE svg PUBLIC "-//W3C//DTD SVG 1.1//EN"
 "http://www.w3.org/Graphics/SVG/1.1/DTD/svg11.dtd">
<!-- Generated by graphviz version 2.43.0 (0)
 -->
<!-- Title: packages_search_api Pages: 1 -->
<svg width="1506pt" height="116pt"
 viewBox="0.00 0.00 1506.00 116.00" xmlns="http://www.w3.org/2000/svg" xmlns:xlink="http://www.w3.org/1999/xlink">
<g id="graph0" class="graph" transform="scale(1 1) rotate(0) translate(4 112)">
<title>packages_search_api</title>
<polygon fill="white" stroke="transparent" points="-4,4 -4,-112 1502,-112 1502,4 -4,4"/>
<!-- src.search_api -->
<g id="node1" class="node">
<title>src.search_api</title>
<polygon fill="none" stroke="black" points="808.5,-36 714.5,-36 714.5,0 808.5,0 808.5,-36"/>
<text text-anchor="middle" x="761.5" y="-14.3" font-family="Times,serif" font-size="14.00">src.search_api</text>
</g>
<!-- src.search_api&#45;&gt;src.search_api -->
<g id="edge1" class="edge">
<title>src.search_api&#45;&gt;src.search_api</title>
<path fill="none" stroke="black" d="M808.54,-4.86C818.93,-6.1 826.5,-10.48 826.5,-18 826.5,-22.82 823.39,-26.35 818.43,-28.59"/>
<polygon fill="black" stroke="black" points="808.54,-31.14 817.1,-24.28 813.38,-29.89 818.22,-28.64 818.22,-28.64 818.22,-28.64 813.38,-29.89 819.34,-33 808.54,-31.14 808.54,-31.14"/>
</g>
<!-- src.search_api.app -->
<g id="node2" class="node">
<title>src.search_api.app</title>
<polygon fill="none" stroke="black" points="117,-108 0,-108 0,-72 117,-72 117,-108"/>
<text text-anchor="middle" x="58.5" y="-86.3" font-family="Times,serif" font-size="14.00">src.search_api.app</text>
</g>
<!-- src.search_api&#45;&gt;src.search_api.app -->
<g id="edge2" class="edge">
<title>src.search_api&#45;&gt;src.search_api.app</title>
<path fill="none" stroke="black" d="M714.18,-20.34C609.8,-23.84 351.93,-35.59 127.34,-72.03"/>
<polygon fill="black" stroke="black" points="117.35,-73.67 126.49,-67.61 122.28,-72.86 127.22,-72.05 127.22,-72.05 127.22,-72.05 122.28,-72.86 127.95,-76.49 117.35,-73.67 117.35,-73.67"/>
</g>
<!-- src.search_api.bm25_index -->
<g id="node3" class="node">
<title>src.search_api.bm25_index</title>
<polygon fill="none" stroke="black" points="301.5,-108 135.5,-108 135.5,-72 301.5,-72 301.5,-108"/>
<text text-anchor="middle" x="218.5" y="-86.3" font-family="Times,serif" font-size="14.00">src.search_api.bm25_index</text>
</g>
<!-- src.search_api&#45;&gt;src.search_api.bm25_index -->
<g id="edge3" class="edge">
<title>src.search_api&#45;&gt;src.search_api.bm25_index</title>
<path fill="none" stroke="black" d="M714.29,-23.52C633.81,-31.44 464.72,-49.06 311.75,-71.86"/>
<polygon fill="black" stroke="black" points="301.7,-73.37 310.92,-67.44 306.65,-72.63 311.59,-71.89 311.59,-71.89 311.59,-71.89 306.65,-72.63 312.26,-76.34 301.7,-73.37 301.7,-73.37"/>
</g>
<!-- src.search_api.faiss_adapter -->
<g id="node4" class="node">
<title>src.search_api.faiss_adapter</title>
<polygon fill="none" stroke="black" points="489,-108 320,-108 320,-72 489,-72 489,-108"/>
<text text-anchor="middle" x="404.5" y="-86.3" font-family="Times,serif" font-size="14.00">src.search_api.faiss_adapter</text>
</g>
<!-- src.search_api&#45;&gt;src.search_api.faiss_adapter -->
<g id="edge4" class="edge">
<title>src.search_api&#45;&gt;src.search_api.faiss_adapter</title>
<path fill="none" stroke="black" d="M714.46,-28.22C659.96,-38.91 568.77,-56.79 499.37,-70.4"/>
<polygon fill="black" stroke="black" points="489.3,-72.37 498.25,-66.03 494.21,-71.41 499.11,-70.45 499.11,-70.45 499.11,-70.45 494.21,-71.41 499.98,-74.86 489.3,-72.37 489.3,-72.37"/>
</g>
<!-- src.search_api.fixture_index -->
<g id="node5" class="node">
<title>src.search_api.fixture_index</title>
<polygon fill="none" stroke="black" points="677.5,-108 507.5,-108 507.5,-72 677.5,-72 677.5,-108"/>
<text text-anchor="middle" x="592.5" y="-86.3" font-family="Times,serif" font-size="14.00">src.search_api.fixture_index</text>
</g>
<!-- src.search_api&#45;&gt;src.search_api.fixture_index -->
<g id="edge5" class="edge">
<title>src.search_api&#45;&gt;src.search_api.fixture_index</title>
<path fill="none" stroke="black" d="M720.16,-36.12C696.95,-45.74 667.81,-57.81 643.23,-67.99"/>
<polygon fill="black" stroke="black" points="633.71,-71.93 641.22,-63.95 638.33,-70.02 642.95,-68.1 642.95,-68.1 642.95,-68.1 638.33,-70.02 644.67,-72.26 633.71,-71.93 633.71,-71.93"/>
</g>
<!-- src.search_api.fusion -->
<g id="node6" class="node">
<title>src.search_api.fusion</title>
<polygon fill="none" stroke="black" points="827,-108 696,-108 696,-72 827,-72 827,-108"/>
<text text-anchor="middle" x="761.5" y="-86.3" font-family="Times,serif" font-size="14.00">src.search_api.fusion</text>
</g>
<!-- src.search_api&#45;&gt;src.search_api.fusion -->
<g id="edge6" class="edge">
<title>src.search_api&#45;&gt;src.search_api.fusion</title>
<path fill="none" stroke="black" d="M761.5,-36.3C761.5,-44.02 761.5,-53.29 761.5,-61.89"/>
<polygon fill="black" stroke="black" points="761.5,-71.9 757,-61.9 761.5,-66.9 761.5,-61.9 761.5,-61.9 761.5,-61.9 761.5,-66.9 766,-61.9 761.5,-71.9 761.5,-71.9"/>
</g>
<!-- src.search_api.kg_mock -->
<g id="node7" class="node">
<title>src.search_api.kg_mock</title>
<polygon fill="none" stroke="black" points="994,-108 845,-108 845,-72 994,-72 994,-108"/>
<text text-anchor="middle" x="919.5" y="-86.3" font-family="Times,serif" font-size="14.00">src.search_api.kg_mock</text>
</g>
<!-- src.search_api&#45;&gt;src.search_api.kg_mock -->
<g id="edge7" class="edge">
<title>src.search_api&#45;&gt;src.search_api.kg_mock</title>
<path fill="none" stroke="black" d="M800.15,-36.12C821.75,-45.69 848.85,-57.7 871.77,-67.85"/>
<polygon fill="black" stroke="black" points="880.97,-71.93 870.01,-72 876.4,-69.91 871.83,-67.88 871.83,-67.88 871.83,-67.88 876.4,-69.91 873.65,-63.77 880.97,-71.93 880.97,-71.93"/>
</g>
<!-- src.search_api.schemas -->
<g id="node8" class="node">
<title>src.search_api.schemas</title>
<polygon fill="none" stroke="black" points="1156.5,-108 1012.5,-108 1012.5,-72 1156.5,-72 1156.5,-108"/>
<text text-anchor="middle" x="1084.5" y="-86.3" font-family="Times,serif" font-size="14.00">src.search_api.schemas</text>
</g>
<!-- src.search_api&#45;&gt;src.search_api.schemas -->
<g id="edge8" class="edge">
<title>src.search_api&#45;&gt;src.search_api.schemas</title>
<path fill="none" stroke="black" d="M808.81,-29.25C859.52,-40.24 940.98,-57.9 1002.23,-71.17"/>
<polygon fill="black" stroke="black" points="1012.26,-73.34 1001.54,-75.62 1007.38,-72.29 1002.49,-71.23 1002.49,-71.23 1002.49,-71.23 1007.38,-72.29 1003.44,-66.83 1012.26,-73.34 1012.26,-73.34"/>
</g>
<!-- src.search_api.service -->
<g id="node9" class="node">
<title>src.search_api.service</title>
<polygon fill="none" stroke="black" points="1310.5,-108 1174.5,-108 1174.5,-72 1310.5,-72 1310.5,-108"/>
<text text-anchor="middle" x="1242.5" y="-86.3" font-family="Times,serif" font-size="14.00">src.search_api.service</text>
</g>
<!-- src.search_api&#45;&gt;src.search_api.service -->
<g id="edge9" class="edge">
<title>src.search_api&#45;&gt;src.search_api.service</title>
<path fill="none" stroke="black" d="M808.66,-23.84C882.42,-31.71 1029.71,-48.6 1164.07,-71.83"/>
<polygon fill="black" stroke="black" points="1174.13,-73.58 1163.5,-76.3 1169.2,-72.72 1164.28,-71.86 1164.28,-71.86 1164.28,-71.86 1169.2,-72.72 1165.05,-67.43 1174.13,-73.58 1174.13,-73.58"/>
</g>
<!-- src.search_api.splade_index -->
<g id="node10" class="node">
<title>src.search_api.splade_index</title>
<polygon fill="none" stroke="black" points="1498,-108 1329,-108 1329,-72 1498,-72 1498,-108"/>
<text text-anchor="middle" x="1413.5" y="-86.3" font-family="Times,serif" font-size="14.00">src.search_api.splade_index</text>
</g>
<!-- src.search_api&#45;&gt;src.search_api.splade_index -->
<g id="edge10" class="edge">
<title>src.search_api&#45;&gt;src.search_api.splade_index</title>
<path fill="none" stroke="black" d="M808.69,-22.13C903.35,-28.71 1123.35,-45.47 1318.59,-71.94"/>
<polygon fill="black" stroke="black" points="1328.75,-73.33 1318.23,-76.44 1323.8,-72.66 1318.84,-71.98 1318.84,-71.98 1318.84,-71.98 1323.8,-72.66 1319.45,-67.52 1328.75,-73.33 1328.75,-73.33"/>
</g>
</g>
</svg>
