<?xml version="1.0" encoding="UTF-8" standalone="no"?>
<!DOCTYPE svg PUBLIC "-//W3C//DTD SVG 1.1//EN"
 "http://www.w3.org/Graphics/SVG/1.1/DTD/svg11.dtd">
<!-- Generated by graphviz version 2.43.0 (0)
 -->
<!-- Title: packages_observability Pages: 1 -->
<svg width="158pt" height="116pt"
 viewBox="0.00 0.00 158.00 116.00" xmlns="http://www.w3.org/2000/svg" xmlns:xlink="http://www.w3.org/1999/xlink">
<g id="graph0" class="graph" transform="scale(1 1) rotate(0) translate(4 112)">
<title>packages_observability</title>
<polygon fill="white" stroke="transparent" points="-4,4 -4,-112 154,-112 154,4 -4,4"/>
<!-- src.observability -->
<g id="node1" class="node">
<title>src.observability</title>
<polygon fill="none" stroke="black" points="128.5,-36 21.5,-36 21.5,0 128.5,0 128.5,-36"/>
<text text-anchor="middle" x="75" y="-14.3" font-family="Times,serif" font-size="14.00">src.observability</text>
</g>
<!-- src.observability&#45;&gt;src.observability -->
<g id="edge1" class="edge">
<title>src.observability&#45;&gt;src.observability</title>
<path fill="none" stroke="black" d="M128.63,-5.1C139.08,-6.6 146.5,-10.9 146.5,-18 146.5,-22.55 143.46,-25.95 138.52,-28.2"/>
<polygon fill="black" stroke="black" points="128.63,-30.9 137.09,-23.92 133.46,-29.58 138.28,-28.26 138.28,-28.26 138.28,-28.26 133.46,-29.58 139.46,-32.61 128.63,-30.9 128.63,-30.9"/>
</g>
<!-- src.observability.metrics -->
<g id="node2" class="node">
<title>src.observability.metrics</title>
<polygon fill="none" stroke="black" points="150,-108 0,-108 0,-72 150,-72 150,-108"/>
<text text-anchor="middle" x="75" y="-86.3" font-family="Times,serif" font-size="14.00">src.observability.metrics</text>
</g>
<!-- src.observability&#45;&gt;src.observability.metrics -->
<g id="edge2" class="edge">
<title>src.observability&#45;&gt;src.observability.metrics</title>
<path fill="none" stroke="black" d="M75,-36.3C75,-44.02 75,-53.29 75,-61.89"/>
<polygon fill="black" stroke="black" points="75,-71.9 70.5,-61.9 75,-66.9 75,-61.9 75,-61.9 75,-61.9 75,-66.9 79.5,-61.9 75,-71.9 75,-71.9"/>
</g>
</g>
</svg>
