<?xml version="1.0" encoding="UTF-8" standalone="no"?>
<!DOCTYPE svg PUBLIC "-//W3C//DTD SVG 1.1//EN"
 "http://www.w3.org/Graphics/SVG/1.1/DTD/svg11.dtd">
<!-- Generated by graphviz version 2.43.0 (0)
 -->
<!-- Title: classes_kgfoundry_common Pages: 1 -->
<svg width="4038pt" height="424pt"
 viewBox="0.00 0.00 4037.50 424.00" xmlns="http://www.w3.org/2000/svg" xmlns:xlink="http://www.w3.org/1999/xlink">
<g id="graph0" class="graph" transform="scale(1 1) rotate(0) translate(4 420)">
<title>classes_kgfoundry_common</title>
<polygon fill="white" stroke="transparent" points="-4,4 -4,-420 4033.5,-420 4033.5,4 -4,4"/>
<!-- src.kgfoundry_common.models.Chunk -->
<g id="node1" class="node">
<title>src.kgfoundry_common.models.Chunk</title>
<polygon fill="none" stroke="black" points="0,-45.5 0,-204.5 164,-204.5 164,-45.5 0,-45.5"/>
<text text-anchor="start" x="63.5" y="-189.3" font-family="Times,serif" font-size="14.00">Chunk</text>
<polyline fill="none" stroke="black" points="0,-181.5 164,-181.5 "/>
<text text-anchor="start" x="8" y="-166.3" font-family="Times,serif" font-size="14.00">doc_id : str</text>
<text text-anchor="start" x="8" y="-151.3" font-family="Times,serif" font-size="14.00">doctags_span : dict[str, int]</text>
<text text-anchor="start" x="8" y="-136.3" font-family="Times,serif" font-size="14.00">end_char : int</text>
<text text-anchor="start" x="8" y="-121.3" font-family="Times,serif" font-size="14.00">id : str</text>
<text text-anchor="start" x="8" y="-106.3" font-family="Times,serif" font-size="14.00">section : str | None</text>
<text text-anchor="start" x="8" y="-91.3" font-family="Times,serif" font-size="14.00">start_char : int</text>
<text text-anchor="start" x="8" y="-76.3" font-family="Times,serif" font-size="14.00">tokens : int</text>
<polyline fill="none" stroke="black" points="0,-68.5 164,-68.5 "/>
<text text-anchor="start" x="80" y="-53.3" font-family="Times,serif" font-size="14.00"> </text>
</g>
<!-- src.kgfoundry_common.errors.ChunkingError -->
<g id="node2" class="node">
<title>src.kgfoundry_common.errors.ChunkingError</title>
<polygon fill="none" stroke="black" points="182,-89.6 182,-160.4 280,-160.4 280,-89.6 182,-89.6"/>
<text text-anchor="start" x="190" y="-145.2" font-family="Times,serif" font-size="14.00" fill="red">ChunkingError</text>
<polyline fill="none" stroke="black" points="182,-137.4 280,-137.4 "/>
<polyline fill="none" stroke="black" points="182,-112.6 280,-112.6 "/>
<text text-anchor="start" x="229" y="-97.4" font-family="Times,serif" font-size="14.00" fill="red"> </text>
</g>
<!-- src.kgfoundry_common.models.Doc -->
<g id="node3" class="node">
<title>src.kgfoundry_common.models.Doc</title>
<polygon fill="none" stroke="black" points="298,-0.5 298,-249.5 450,-249.5 450,-0.5 298,-0.5"/>
<text text-anchor="start" x="362.5" y="-234.3" font-family="Times,serif" font-size="14.00">Doc</text>
<polyline fill="none" stroke="black" points="298,-226.5 450,-226.5 "/>
<text text-anchor="start" x="306" y="-211.3" font-family="Times,serif" font-size="14.00">arxiv_id : str | None</text>
<text text-anchor="start" x="306" y="-196.3" font-family="Times,serif" font-size="14.00">authors : list[str]</text>
<text text-anchor="start" x="306" y="-181.3" font-family="Times,serif" font-size="14.00">content_hash : str | None</text>
<text text-anchor="start" x="306" y="-166.3" font-family="Times,serif" font-size="14.00">doi : str | None</text>
<text text-anchor="start" x="306" y="-151.3" font-family="Times,serif" font-size="14.00">id : str</text>
<text text-anchor="start" x="306" y="-136.3" font-family="Times,serif" font-size="14.00">language : str | None</text>
<text text-anchor="start" x="306" y="-121.3" font-family="Times,serif" font-size="14.00">license : str | None</text>
<text text-anchor="start" x="306" y="-106.3" font-family="Times,serif" font-size="14.00">openalex_id : str | None</text>
<text text-anchor="start" x="306" y="-91.3" font-family="Times,serif" font-size="14.00">pdf_uri : str</text>
<text text-anchor="start" x="306" y="-76.3" font-family="Times,serif" font-size="14.00">pmcid : str | None</text>
<text text-anchor="start" x="306" y="-61.3" font-family="Times,serif" font-size="14.00">pub_date : str | None</text>
<text text-anchor="start" x="306" y="-46.3" font-family="Times,serif" font-size="14.00">source : str</text>
<text text-anchor="start" x="306" y="-31.3" font-family="Times,serif" font-size="14.00">title : str</text>
<polyline fill="none" stroke="black" points="298,-23.5 450,-23.5 "/>
<text text-anchor="start" x="372" y="-8.3" font-family="Times,serif" font-size="14.00"> </text>
</g>
<!-- src.kgfoundry_common.errors.DoclingError -->
<g id="node4" class="node">
<title>src.kgfoundry_common.errors.DoclingError</title>
<polygon fill="none" stroke="black" points="468.5,-89.6 468.5,-160.4 557.5,-160.4 557.5,-89.6 468.5,-89.6"/>
<text text-anchor="start" x="476.5" y="-145.2" font-family="Times,serif" font-size="14.00" fill="red">DoclingError</text>
<polyline fill="none" stroke="black" points="468.5,-137.4 557.5,-137.4 "/>
<polyline fill="none" stroke="black" points="468.5,-112.6 557.5,-112.6 "/>
<text text-anchor="start" x="511" y="-97.4" font-family="Times,serif" font-size="14.00" fill="red"> </text>
</g>
<!-- src.kgfoundry_common.models.DoctagsAsset -->
<g id="node5" class="node">
<title>src.kgfoundry_common.models.DoctagsAsset</title>
<polygon fill="none" stroke="black" points="575.5,-53 575.5,-197 736.5,-197 736.5,-53 575.5,-53"/>
<text text-anchor="start" x="618.5" y="-181.8" font-family="Times,serif" font-size="14.00">DoctagsAsset</text>
<polyline fill="none" stroke="black" points="575.5,-174 736.5,-174 "/>
<text text-anchor="start" x="583.5" y="-158.8" font-family="Times,serif" font-size="14.00">avg_logprob : float | None</text>
<text text-anchor="start" x="583.5" y="-143.8" font-family="Times,serif" font-size="14.00">doc_id : str</text>
<text text-anchor="start" x="583.5" y="-128.8" font-family="Times,serif" font-size="14.00">doctags_uri : str</text>
<text text-anchor="start" x="583.5" y="-113.8" font-family="Times,serif" font-size="14.00">pages : int</text>
<text text-anchor="start" x="583.5" y="-98.8" font-family="Times,serif" font-size="14.00">vlm_model : str</text>
<text text-anchor="start" x="583.5" y="-83.8" font-family="Times,serif" font-size="14.00">vlm_revision : str</text>
<polyline fill="none" stroke="black" points="575.5,-76 736.5,-76 "/>
<text text-anchor="start" x="654" y="-60.8" font-family="Times,serif" font-size="14.00"> </text>
</g>
<!-- src.kgfoundry_common.errors.DownloadError -->
<g id="node6" class="node">
<title>src.kgfoundry_common.errors.DownloadError</title>
<polygon fill="none" stroke="black" points="754.5,-89.6 754.5,-160.4 855.5,-160.4 855.5,-89.6 754.5,-89.6"/>
<text text-anchor="start" x="762.5" y="-145.2" font-family="Times,serif" font-size="14.00" fill="red">DownloadError</text>
<polyline fill="none" stroke="black" points="754.5,-137.4 855.5,-137.4 "/>
<polyline fill="none" stroke="black" points="754.5,-112.6 855.5,-112.6 "/>
<text text-anchor="start" x="803" y="-97.4" font-family="Times,serif" font-size="14.00" fill="red"> </text>
</g>
<!-- src.kgfoundry_common.errors.EmbeddingError -->
<g id="node7" class="node">
<title>src.kgfoundry_common.errors.EmbeddingError</title>
<polygon fill="none" stroke="black" points="874,-89.6 874,-160.4 982,-160.4 982,-89.6 874,-89.6"/>
<text text-anchor="start" x="882" y="-145.2" font-family="Times,serif" font-size="14.00" fill="red">EmbeddingError</text>
<polyline fill="none" stroke="black" points="874,-137.4 982,-137.4 "/>
<polyline fill="none" stroke="black" points="874,-112.6 982,-112.6 "/>
<text text-anchor="start" x="926" y="-97.4" font-family="Times,serif" font-size="14.00" fill="red"> </text>
</g>
<!-- src.kgfoundry_common.errors.IndexBuildError -->
<g id="node8" class="node">
<title>src.kgfoundry_common.errors.IndexBuildError</title>
<polygon fill="none" stroke="black" points="1000,-89.6 1000,-160.4 1106,-160.4 1106,-89.6 1000,-89.6"/>
<text text-anchor="start" x="1008" y="-145.2" font-family="Times,serif" font-size="14.00" fill="red">IndexBuildError</text>
<polyline fill="none" stroke="black" points="1000,-137.4 1106,-137.4 "/>
<polyline fill="none" stroke="black" points="1000,-112.6 1106,-112.6 "/>
<text text-anchor="start" x="1051" y="-97.4" font-family="Times,serif" font-size="14.00" fill="red"> </text>
</g>
<!-- src.kgfoundry_common.logging.JsonFormatter -->
<g id="node9" class="node">
<title>src.kgfoundry_common.logging.JsonFormatter</title>
<polygon fill="none" stroke="black" points="1124.5,-89.6 1124.5,-160.4 1355.5,-160.4 1355.5,-89.6 1124.5,-89.6"/>
<text text-anchor="start" x="1200.5" y="-145.2" font-family="Times,serif" font-size="14.00">JsonFormatter</text>
<polyline fill="none" stroke="black" points="1124.5,-137.4 1355.5,-137.4 "/>
<polyline fill="none" stroke="black" points="1124.5,-112.6 1355.5,-112.6 "/>
<text text-anchor="start" x="1132.5" y="-97.4" font-family="Times,serif" font-size="14.00">format(record: logging.LogRecord): str</text>
</g>
<!-- src.kgfoundry_common.models.LinkAssertion -->
<g id="node10" class="node">
<title>src.kgfoundry_common.models.LinkAssertion</title>
<polygon fill="none" stroke="black" points="1374,-38 1374,-212 1622,-212 1622,-38 1374,-38"/>
<text text-anchor="start" x="1459" y="-196.8" font-family="Times,serif" font-size="14.00">LinkAssertion</text>
<polyline fill="none" stroke="black" points="1374,-189 1622,-189 "/>
<text text-anchor="start" x="1382" y="-173.8" font-family="Times,serif" font-size="14.00">chunk_id : str</text>
<text text-anchor="start" x="1382" y="-158.8" font-family="Times,serif" font-size="14.00">concept_id : str</text>
<text text-anchor="start" x="1382" y="-143.8" font-family="Times,serif" font-size="14.00">decision : Literal[&#39;link&#39;, &#39;reject&#39;, &#39;uncertain&#39;]</text>
<text text-anchor="start" x="1382" y="-128.8" font-family="Times,serif" font-size="14.00">evidence_span : str | None</text>
<text text-anchor="start" x="1382" y="-113.8" font-family="Times,serif" font-size="14.00">features : dict[str, float]</text>
<text text-anchor="start" x="1382" y="-98.8" font-family="Times,serif" font-size="14.00">id : str</text>
<text text-anchor="start" x="1382" y="-83.8" font-family="Times,serif" font-size="14.00">run_id : str</text>
<text text-anchor="start" x="1382" y="-68.8" font-family="Times,serif" font-size="14.00">score : float</text>
<polyline fill="none" stroke="black" points="1374,-61 1622,-61 "/>
<text text-anchor="start" x="1496" y="-45.8" font-family="Times,serif" font-size="14.00"> </text>
</g>
<!-- src.kgfoundry_common.errors.LinkerCalibrationError -->
<g id="node11" class="node">
<title>src.kgfoundry_common.errors.LinkerCalibrationError</title>
<polygon fill="none" stroke="black" points="1640,-89.6 1640,-160.4 1782,-160.4 1782,-89.6 1640,-89.6"/>
<text text-anchor="start" x="1648" y="-145.2" font-family="Times,serif" font-size="14.00" fill="red">LinkerCalibrationError</text>
<polyline fill="none" stroke="black" points="1640,-137.4 1782,-137.4 "/>
<polyline fill="none" stroke="black" points="1640,-112.6 1782,-112.6 "/>
<text text-anchor="start" x="1709" y="-97.4" font-family="Times,serif" font-size="14.00" fill="red"> </text>
</g>
<!-- src.kgfoundry_common.navmap_types.ModuleMeta -->
<g id="node12" class="node">
<title>src.kgfoundry_common.navmap_types.ModuleMeta</title>
<polygon fill="none" stroke="black" points="1838.5,-301.5 1838.5,-415.5 1955.5,-415.5 1955.5,-301.5 1838.5,-301.5"/>
<text text-anchor="start" x="1861" y="-400.3" font-family="Times,serif" font-size="14.00">ModuleMeta</text>
<polyline fill="none" stroke="black" points="1838.5,-392.5 1955.5,-392.5 "/>
<text text-anchor="start" x="1846.5" y="-377.3" font-family="Times,serif" font-size="14.00">deprecated_in : str</text>
<text text-anchor="start" x="1846.5" y="-362.3" font-family="Times,serif" font-size="14.00">owner : str</text>
<text text-anchor="start" x="1846.5" y="-347.3" font-family="Times,serif" font-size="14.00">since : str</text>
<text text-anchor="start" x="1846.5" y="-332.3" font-family="Times,serif" font-size="14.00">stability : Literal</text>
<polyline fill="none" stroke="black" points="1838.5,-324.5 1955.5,-324.5 "/>
<text text-anchor="start" x="1895" y="-309.3" font-family="Times,serif" font-size="14.00"> </text>
</g>
<!-- src.kgfoundry_common.navmap_types.NavMap -->
<g id="node13" class="node">
<title>src.kgfoundry_common.navmap_types.NavMap</title>
<polygon fill="none" stroke="black" points="1800,-8 1800,-242 1994,-242 1994,-8 1800,-8"/>
<text text-anchor="start" x="1872.5" y="-226.8" font-family="Times,serif" font-size="14.00">NavMap</text>
<polyline fill="none" stroke="black" points="1800,-219 1994,-219 "/>
<text text-anchor="start" x="1808" y="-203.8" font-family="Times,serif" font-size="14.00">deprecated : str</text>
<text text-anchor="start" x="1808" y="-188.8" font-family="Times,serif" font-size="14.00">deps : list[str]</text>
<text text-anchor="start" x="1808" y="-173.8" font-family="Times,serif" font-size="14.00">edit_scopes : dict[str, list[str]]</text>
<text text-anchor="start" x="1808" y="-158.8" font-family="Times,serif" font-size="14.00">exports : list[str]</text>
<text text-anchor="start" x="1808" y="-143.8" font-family="Times,serif" font-size="14.00">module_meta</text>
<text text-anchor="start" x="1808" y="-128.8" font-family="Times,serif" font-size="14.00">sections : list[NavSection]</text>
<text text-anchor="start" x="1808" y="-113.8" font-family="Times,serif" font-size="14.00">see_also : list[str]</text>
<text text-anchor="start" x="1808" y="-98.8" font-family="Times,serif" font-size="14.00">since : str</text>
<text text-anchor="start" x="1808" y="-83.8" font-family="Times,serif" font-size="14.00">symbols : dict[str, SymbolMeta]</text>
<text text-anchor="start" x="1808" y="-68.8" font-family="Times,serif" font-size="14.00">synopsis : str</text>
<text text-anchor="start" x="1808" y="-53.8" font-family="Times,serif" font-size="14.00">tags : list[str]</text>
<text text-anchor="start" x="1808" y="-38.8" font-family="Times,serif" font-size="14.00">title : str</text>
<polyline fill="none" stroke="black" points="1800,-31 1994,-31 "/>
<text text-anchor="start" x="1895" y="-15.8" font-family="Times,serif" font-size="14.00"> </text>
</g>
<!-- src.kgfoundry_common.navmap_types.NavMap&#45;&gt;src.kgfoundry_common.navmap_types.ModuleMeta -->
<g id="edge1" class="edge">
<title>src.kgfoundry_common.navmap_types.NavMap&#45;&gt;src.kgfoundry_common.navmap_types.ModuleMeta</title>
<path fill="none" stroke="black" d="M1897,-242.09C1897,-258.86 1897,-275.63 1897,-290.97"/>
<polygon fill="black" stroke="black" points="1897,-301.35 1892.5,-291.35 1897,-296.35 1897,-291.35 1897,-291.35 1897,-291.35 1897,-296.35 1901.5,-291.35 1897,-301.35 1897,-301.35"/>
<text text-anchor="middle" x="1935" y="-271.8" font-family="Times,serif" font-size="14.00" fill="green">module_meta</text>
</g>
<!-- src.kgfoundry_common.navmap_types.NavSection -->
<g id="node14" class="node">
<title>src.kgfoundry_common.navmap_types.NavSection</title>
<polygon fill="none" stroke="black" points="2012.5,-75.5 2012.5,-174.5 2125.5,-174.5 2125.5,-75.5 2012.5,-75.5"/>
<text text-anchor="start" x="2037" y="-159.3" font-family="Times,serif" font-size="14.00">NavSection</text>
<polyline fill="none" stroke="black" points="2012.5,-151.5 2125.5,-151.5 "/>
<text text-anchor="start" x="2020.5" y="-136.3" font-family="Times,serif" font-size="14.00">id : str</text>
<text text-anchor="start" x="2020.5" y="-121.3" font-family="Times,serif" font-size="14.00">symbols : list[str]</text>
<text text-anchor="start" x="2020.5" y="-106.3" font-family="Times,serif" font-size="14.00">title : str</text>
<polyline fill="none" stroke="black" points="2012.5,-98.5 2125.5,-98.5 "/>
<text text-anchor="start" x="2067" y="-83.3" font-family="Times,serif" font-size="14.00"> </text>
</g>
<!-- src.kgfoundry_common.errors.Neo4jError -->
<g id="node15" class="node">
<title>src.kgfoundry_common.errors.Neo4jError</title>
<polygon fill="none" stroke="black" points="2144,-89.6 2144,-160.4 2222,-160.4 2222,-89.6 2144,-89.6"/>
<text text-anchor="start" x="2152" y="-145.2" font-family="Times,serif" font-size="14.00" fill="red">Neo4jError</text>
<polyline fill="none" stroke="black" points="2144,-137.4 2222,-137.4 "/>
<polyline fill="none" stroke="black" points="2144,-112.6 2222,-112.6 "/>
<text text-anchor="start" x="2181" y="-97.4" font-family="Times,serif" font-size="14.00" fill="red"> </text>
</g>
<!-- src.kgfoundry_common.errors.OCRTimeoutError -->
<g id="node16" class="node">
<title>src.kgfoundry_common.errors.OCRTimeoutError</title>
<polygon fill="none" stroke="black" points="2240.5,-89.6 2240.5,-160.4 2359.5,-160.4 2359.5,-89.6 2240.5,-89.6"/>
<text text-anchor="start" x="2248.5" y="-145.2" font-family="Times,serif" font-size="14.00" fill="red">OCRTimeoutError</text>
<polyline fill="none" stroke="black" points="2240.5,-137.4 2359.5,-137.4 "/>
<polyline fill="none" stroke="black" points="2240.5,-112.6 2359.5,-112.6 "/>
<text text-anchor="start" x="2298" y="-97.4" font-family="Times,serif" font-size="14.00" fill="red"> </text>
</g>
<!-- src.kgfoundry_common.errors.OntologyParseError -->
<g id="node17" class="node">
<title>src.kgfoundry_common.errors.OntologyParseError</title>
<polygon fill="none" stroke="black" points="2377.5,-89.6 2377.5,-160.4 2502.5,-160.4 2502.5,-89.6 2377.5,-89.6"/>
<text text-anchor="start" x="2385.5" y="-145.2" font-family="Times,serif" font-size="14.00" fill="red">OntologyParseError</text>
<polyline fill="none" stroke="black" points="2377.5,-137.4 2502.5,-137.4 "/>
<polyline fill="none" stroke="black" points="2377.5,-112.6 2502.5,-112.6 "/>
<text text-anchor="start" x="2438" y="-97.4" font-family="Times,serif" font-size="14.00" fill="red"> </text>
</g>
<!-- src.kgfoundry_common.parquet_io.ParquetChunkWriter -->
<g id="node18" class="node">
<title>src.kgfoundry_common.parquet_io.ParquetChunkWriter</title>
<polygon fill="none" stroke="black" points="2521,-83 2521,-167 2751,-167 2751,-83 2521,-83"/>
<text text-anchor="start" x="2579.5" y="-151.8" font-family="Times,serif" font-size="14.00">ParquetChunkWriter</text>
<polyline fill="none" stroke="black" points="2521,-144 2751,-144 "/>
<text text-anchor="start" x="2625" y="-128.8" font-family="Times,serif" font-size="14.00">root</text>
<polyline fill="none" stroke="black" points="2521,-121 2751,-121 "/>
<text text-anchor="start" x="2529" y="-105.8" font-family="Times,serif" font-size="14.00">chunk_schema(): pa.schema</text>
<text text-anchor="start" x="2529" y="-90.8" font-family="Times,serif" font-size="14.00">write(rows: Iterable[dict[str, Any]]): str</text>
</g>
<!-- src.kgfoundry_common.parquet_io.ParquetVectorWriter -->
<g id="node19" class="node">
<title>src.kgfoundry_common.parquet_io.ParquetVectorWriter</title>
<polygon fill="none" stroke="black" points="2769.5,-68 2769.5,-182 3352.5,-182 3352.5,-68 2769.5,-68"/>
<text text-anchor="start" x="3005" y="-166.8" font-family="Times,serif" font-size="14.00">ParquetVectorWriter</text>
<polyline fill="none" stroke="black" points="2769.5,-159 3352.5,-159 "/>
<text text-anchor="start" x="3032" y="-143.8" font-family="Times,serif" font-size="14.00">root : Path</text>
<polyline fill="none" stroke="black" points="2769.5,-136 3352.5,-136 "/>
<text text-anchor="start" x="2777.5" y="-120.8" font-family="Times,serif" font-size="14.00">dense_schema(dim: int): pa.schema</text>
<text text-anchor="start" x="2777.5" y="-105.8" font-family="Times,serif" font-size="14.00">splade_schema(): pa.schema</text>
<text text-anchor="start" x="2777.5" y="-90.8" font-family="Times,serif" font-size="14.00">write_dense(model: str, run_id: str, dim: int, records: Iterable[tuple[str, list[float], float]], shard: int): str</text>
<text text-anchor="start" x="2777.5" y="-75.8" font-family="Times,serif" font-size="14.00">write_splade(model: str, run_id: str, records: Iterable[tuple[str, list[int], list[float]]], shard: int): str</text>
</g>
<!-- src.kgfoundry_common.errors.SpladeOOMError -->
<g id="node20" class="node">
<title>src.kgfoundry_common.errors.SpladeOOMError</title>
<polygon fill="none" stroke="black" points="3371,-89.6 3371,-160.4 3485,-160.4 3485,-89.6 3371,-89.6"/>
<text text-anchor="start" x="3379" y="-145.2" font-family="Times,serif" font-size="14.00" fill="red">SpladeOOMError</text>
<polyline fill="none" stroke="black" points="3371,-137.4 3485,-137.4 "/>
<polyline fill="none" stroke="black" points="3371,-112.6 3485,-112.6 "/>
<text text-anchor="start" x="3426" y="-97.4" font-family="Times,serif" font-size="14.00" fill="red"> </text>
</g>
<!-- src.kgfoundry_common.navmap_types.SymbolMeta -->
<g id="node21" class="node">
<title>src.kgfoundry_common.navmap_types.SymbolMeta</title>
<polygon fill="none" stroke="black" points="3503.5,-0.5 3503.5,-249.5 3858.5,-249.5 3858.5,-0.5 3503.5,-0.5"/>
<text text-anchor="start" x="3645" y="-234.3" font-family="Times,serif" font-size="14.00">SymbolMeta</text>
<polyline fill="none" stroke="black" points="3503.5,-226.5 3858.5,-226.5 "/>
<text text-anchor="start" x="3511.5" y="-211.3" font-family="Times,serif" font-size="14.00">async_ok : bool</text>
<text text-anchor="start" x="3511.5" y="-196.3" font-family="Times,serif" font-size="14.00">contracts : NotRequired[list[str]]</text>
<text text-anchor="start" x="3511.5" y="-181.3" font-family="Times,serif" font-size="14.00">coverage_target : NotRequired[float]</text>
<text text-anchor="start" x="3511.5" y="-166.3" font-family="Times,serif" font-size="14.00">deprecated_in : NotRequired[str]</text>
<text text-anchor="start" x="3511.5" y="-151.3" font-family="Times,serif" font-size="14.00">deprecated_msg : NotRequired[str]</text>
<text text-anchor="start" x="3511.5" y="-136.3" font-family="Times,serif" font-size="14.00">owner : NotRequired[str]</text>
<text text-anchor="start" x="3511.5" y="-121.3" font-family="Times,serif" font-size="14.00">perf_budget_ms : float</text>
<text text-anchor="start" x="3511.5" y="-106.3" font-family="Times,serif" font-size="14.00">replaced_by : NotRequired[str]</text>
<text text-anchor="start" x="3511.5" y="-91.3" font-family="Times,serif" font-size="14.00">side_effects : list[Literal[&#39;none&#39;, &#39;fs&#39;, &#39;net&#39;, &#39;gpu&#39;, &#39;db&#39;]]</text>
<text text-anchor="start" x="3511.5" y="-76.3" font-family="Times,serif" font-size="14.00">since : str</text>
<text text-anchor="start" x="3511.5" y="-61.3" font-family="Times,serif" font-size="14.00">stability : Literal</text>
<text text-anchor="start" x="3511.5" y="-46.3" font-family="Times,serif" font-size="14.00">tests : list[str]</text>
<text text-anchor="start" x="3511.5" y="-31.3" font-family="Times,serif" font-size="14.00">thread_safety : Literal[&#39;reentrant&#39;, &#39;threadsafe&#39;, &#39;not&#45;threadsafe&#39;]</text>
<polyline fill="none" stroke="black" points="3503.5,-23.5 3858.5,-23.5 "/>
<text text-anchor="start" x="3679" y="-8.3" font-family="Times,serif" font-size="14.00"> </text>
</g>
<!-- src.kgfoundry_common.errors.UnsupportedMIMEError -->
<g id="node22" class="node">
<title>src.kgfoundry_common.errors.UnsupportedMIMEError</title>
<polygon fill="none" stroke="black" points="3876.5,-89.6 3876.5,-160.4 4029.5,-160.4 4029.5,-89.6 3876.5,-89.6"/>
<text text-anchor="start" x="3884.5" y="-145.2" font-family="Times,serif" font-size="14.00" fill="red">UnsupportedMIMEError</text>
<polyline fill="none" stroke="black" points="3876.5,-137.4 4029.5,-137.4 "/>
<polyline fill="none" stroke="black" points="3876.5,-112.6 4029.5,-112.6 "/>
<text text-anchor="start" x="3951" y="-97.4" font-family="Times,serif" font-size="14.00" fill="red"> </text>
</g>
</g>
</svg>
