<?xml version="1.0" encoding="UTF-8" standalone="no"?>
<!DOCTYPE svg PUBLIC "-//W3C//DTD SVG 1.1//EN"
 "http://www.w3.org/Graphics/SVG/1.1/DTD/svg11.dtd">
<!-- Generated by graphviz version 2.43.0 (0)
 -->
<!-- Title: classes_search_client Pages: 1 -->
<svg width="850pt" height="138pt"
 viewBox="0.00 0.00 850.00 138.00" xmlns="http://www.w3.org/2000/svg" xmlns:xlink="http://www.w3.org/1999/xlink">
<g id="graph0" class="graph" transform="scale(1 1) rotate(0) translate(4 134)">
<title>classes_search_client</title>
<polygon fill="white" stroke="transparent" points="-4,4 -4,-134 846,-134 846,4 -4,4"/>
<!-- src.search_client.client.KGFoundryClient -->
<g id="node1" class="node">
<title>src.search_client.client.KGFoundryClient</title>
<polygon fill="none" stroke="black" points="0,-0.5 0,-129.5 464,-129.5 464,-0.5 0,-0.5"/>
<text text-anchor="start" x="182.5" y="-114.3" font-family="Times,serif" font-size="14.00">KGFoundryClient</text>
<polyline fill="none" stroke="black" points="0,-106.5 464,-106.5 "/>
<text text-anchor="start" x="178" y="-91.3" font-family="Times,serif" font-size="14.00">api_key : str | None</text>
<text text-anchor="start" x="178" y="-76.3" font-family="Times,serif" font-size="14.00">base_url : str</text>
<text text-anchor="start" x="178" y="-61.3" font-family="Times,serif" font-size="14.00">timeout : float</text>
<polyline fill="none" stroke="black" points="0,-53.5 464,-53.5 "/>
<text text-anchor="start" x="8" y="-38.3" font-family="Times,serif" font-size="14.00">concepts(q: str, limit: int): dict[str, Any]</text>
<text text-anchor="start" x="8" y="-23.3" font-family="Times,serif" font-size="14.00">healthz(): dict[str, Any]</text>
<text text-anchor="start" x="8" y="-8.3" font-family="Times,serif" font-size="14.00">search(query: str, k: int, filters: dict[str, Any] | None, explain: bool): dict[str, Any]</text>
</g>
<!-- src.search_client.client.SupportsHttp -->
<g id="node2" class="node">
<title>src.search_client.client.SupportsHttp</title>
<polygon fill="none" stroke="black" points="482,-23.1 482,-106.9 674,-106.9 674,-23.1 482,-23.1"/>
<text text-anchor="start" x="541.5" y="-91.7" font-family="Times,serif" font-size="14.00">SupportsHttp</text>
<polyline fill="none" stroke="black" points="482,-83.9 674,-83.9 "/>
<polyline fill="none" stroke="black" points="482,-59.1 674,-59.1 "/>
<text text-anchor="start" x="490" y="-44.9" font-family="Times,serif" font-style="italic" font-size="14.00">get</text>
<text text-anchor="start" x="507" y="-44.9" font-family="Times,serif" font-size="14.00">(url: str): SupportsResponse</text>
<text text-anchor="start" x="490" y="-30.9" font-family="Times,serif" font-style="italic" font-size="14.00">post</text>
<text text-anchor="start" x="513" y="-30.9" font-family="Times,serif" font-size="14.00">(url: str): SupportsResponse</text>
</g>
<!-- src.search_client.client.SupportsResponse -->
<g id="node3" class="node">
<title>src.search_client.client.SupportsResponse</title>
<polygon fill="none" stroke="black" points="692,-23.1 692,-106.9 842,-106.9 842,-23.1 692,-23.1"/>
<text text-anchor="start" x="717" y="-91.7" font-family="Times,serif" font-size="14.00">SupportsResponse</text>
<polyline fill="none" stroke="black" points="692,-83.9 842,-83.9 "/>
<polyline fill="none" stroke="black" points="692,-59.1 842,-59.1 "/>
<text text-anchor="start" x="700" y="-44.9" font-family="Times,serif" font-style="italic" font-size="14.00">json</text>
<text text-anchor="start" x="723" y="-44.9" font-family="Times,serif" font-size="14.00">(): dict[str, Any]</text>
<text text-anchor="start" x="700" y="-30.9" font-family="Times,serif" font-style="italic" font-size="14.00">raise_for_status</text>
<text text-anchor="start" x="788" y="-30.9" font-family="Times,serif" font-size="14.00">(): None</text>
</g>
</g>
</svg>
