<?xml version="1.0" encoding="UTF-8" standalone="no"?>
<!DOCTYPE svg PUBLIC "-//W3C//DTD SVG 1.1//EN"
 "http://www.w3.org/Graphics/SVG/1.1/DTD/svg11.dtd">
<!-- Generated by graphviz version 2.43.0 (0)
 -->
<!-- Title: classes_search_api Pages: 1 -->
<svg width="1484pt" height="439pt"
 viewBox="0.00 0.00 1483.50 439.00" xmlns="http://www.w3.org/2000/svg" xmlns:xlink="http://www.w3.org/1999/xlink">
<g id="graph0" class="graph" transform="scale(1 1) rotate(0) translate(4 435)">
<title>classes_search_api</title>
<polygon fill="white" stroke="transparent" points="-4,4 -4,-435 1479.5,-435 1479.5,4 -4,4"/>
<!-- src.search_api.bm25_index.BM25Doc -->
<g id="node1" class="node">
<title>src.search_api.bm25_index.BM25Doc</title>
<polygon fill="none" stroke="black" points="81,-271.5 81,-415.5 191,-415.5 191,-271.5 81,-271.5"/>
<text text-anchor="start" x="107" y="-400.3" font-family="Times,serif" font-size="14.00">BM25Doc</text>
<polyline fill="none" stroke="black" points="81,-392.5 191,-392.5 "/>
<text text-anchor="start" x="89" y="-377.3" font-family="Times,serif" font-size="14.00">chunk_id : str</text>
<text text-anchor="start" x="89" y="-362.3" font-family="Times,serif" font-size="14.00">dl : float</text>
<text text-anchor="start" x="89" y="-347.3" font-family="Times,serif" font-size="14.00">doc_id : str</text>
<text text-anchor="start" x="89" y="-332.3" font-family="Times,serif" font-size="14.00">section : str</text>
<text text-anchor="start" x="89" y="-317.3" font-family="Times,serif" font-size="14.00">tf : dict[str, float]</text>
<text text-anchor="start" x="89" y="-302.3" font-family="Times,serif" font-size="14.00">title : str</text>
<polyline fill="none" stroke="black" points="81,-294.5 191,-294.5 "/>
<text text-anchor="start" x="134" y="-279.3" font-family="Times,serif" font-size="14.00"> </text>
</g>
<!-- src.search_api.bm25_index.BM25Index -->
<g id="node2" class="node">
<title>src.search_api.bm25_index.BM25Index</title>
<polygon fill="none" stroke="black" points="0,-0.5 0,-204.5 272,-204.5 272,-0.5 0,-0.5"/>
<text text-anchor="start" x="102.5" y="-189.3" font-family="Times,serif" font-size="14.00">BM25Index</text>
<polyline fill="none" stroke="black" points="0,-181.5 272,-181.5 "/>
<text text-anchor="start" x="76" y="-166.3" font-family="Times,serif" font-size="14.00">N : int</text>
<text text-anchor="start" x="76" y="-151.3" font-family="Times,serif" font-size="14.00">avgdl : float</text>
<text text-anchor="start" x="76" y="-136.3" font-family="Times,serif" font-size="14.00">b : float</text>
<text text-anchor="start" x="76" y="-121.3" font-family="Times,serif" font-size="14.00">df : dict[str, int]</text>
<text text-anchor="start" x="76" y="-106.3" font-family="Times,serif" font-size="14.00">docs : list[BM25Doc]</text>
<text text-anchor="start" x="76" y="-91.3" font-family="Times,serif" font-size="14.00">k1 : float</text>
<polyline fill="none" stroke="black" points="0,-83.5 272,-83.5 "/>
<text text-anchor="start" x="8" y="-68.3" font-family="Times,serif" font-size="14.00">build_from_duckdb(db_path: str): BM25Index</text>
<text text-anchor="start" x="8" y="-53.3" font-family="Times,serif" font-size="14.00">doc(index: int): BM25Doc</text>
<text text-anchor="start" x="8" y="-38.3" font-family="Times,serif" font-size="14.00">load(path: str): BM25Index</text>
<text text-anchor="start" x="8" y="-23.3" font-family="Times,serif" font-size="14.00">save(path: str): None</text>
<text text-anchor="start" x="8" y="-8.3" font-family="Times,serif" font-size="14.00">search(query: str, k: int): list[tuple[int, float]]</text>
</g>
<!-- src.search_api.bm25_index.BM25Index&#45;&gt;src.search_api.bm25_index.BM25Doc -->
<g id="edge1" class="edge">
<title>src.search_api.bm25_index.BM25Index&#45;&gt;src.search_api.bm25_index.BM25Doc</title>
<path fill="none" stroke="black" d="M136,-204.51C136,-223.34 136,-242.8 136,-260.96"/>
<polygon fill="black" stroke="black" points="136,-271.19 131.5,-261.19 136,-266.19 136,-261.19 136,-261.19 136,-261.19 136,-266.19 140.5,-261.19 136,-271.19 136,-271.19"/>
<text text-anchor="middle" x="148.5" y="-226.8" font-family="Times,serif" font-size="14.00" fill="green">docs</text>
</g>
<!-- src.search_api.kg_mock.ConceptMeta -->
<g id="node3" class="node">
<title>src.search_api.kg_mock.ConceptMeta</title>
<polygon fill="none" stroke="black" points="290.5,-60.5 290.5,-144.5 409.5,-144.5 409.5,-60.5 290.5,-60.5"/>
<text text-anchor="start" x="313" y="-129.3" font-family="Times,serif" font-size="14.00">ConceptMeta</text>
<polyline fill="none" stroke="black" points="290.5,-121.5 409.5,-121.5 "/>
<text text-anchor="start" x="298.5" y="-106.3" font-family="Times,serif" font-size="14.00">keywords : list[str]</text>
<text text-anchor="start" x="298.5" y="-91.3" font-family="Times,serif" font-size="14.00">label : str</text>
<polyline fill="none" stroke="black" points="290.5,-83.5 409.5,-83.5 "/>
<text text-anchor="start" x="348" y="-68.3" font-family="Times,serif" font-size="14.00"> </text>
</g>
<!-- src.search_api.faiss_adapter.DenseVecs -->
<g id="node4" class="node">
<title>src.search_api.faiss_adapter.DenseVecs</title>
<polygon fill="none" stroke="black" points="427.5,-60.5 427.5,-144.5 510.5,-144.5 510.5,-60.5 427.5,-60.5"/>
<text text-anchor="start" x="439" y="-129.3" font-family="Times,serif" font-size="14.00">DenseVecs</text>
<polyline fill="none" stroke="black" points="427.5,-121.5 510.5,-121.5 "/>
<text text-anchor="start" x="435.5" y="-106.3" font-family="Times,serif" font-size="14.00">ids : list[str]</text>
<text text-anchor="start" x="435.5" y="-91.3" font-family="Times,serif" font-size="14.00">mat</text>
<polyline fill="none" stroke="black" points="427.5,-83.5 510.5,-83.5 "/>
<text text-anchor="start" x="467" y="-68.3" font-family="Times,serif" font-size="14.00"> </text>
</g>
<!-- src.search_api.faiss_adapter.FaissAdapter -->
<g id="node5" class="node">
<title>src.search_api.faiss_adapter.FaissAdapter</title>
<polygon fill="none" stroke="black" points="322.5,-256.5 322.5,-430.5 615.5,-430.5 615.5,-256.5 322.5,-256.5"/>
<text text-anchor="start" x="433" y="-415.3" font-family="Times,serif" font-size="14.00">FaissAdapter</text>
<polyline fill="none" stroke="black" points="322.5,-407.5 615.5,-407.5 "/>
<text text-anchor="start" x="401.5" y="-392.3" font-family="Times,serif" font-size="14.00">db_path : str</text>
<text text-anchor="start" x="401.5" y="-377.3" font-family="Times,serif" font-size="14.00">factory : str</text>
<text text-anchor="start" x="401.5" y="-362.3" font-family="Times,serif" font-size="14.00">idmap : list[str] | None</text>
<text text-anchor="start" x="401.5" y="-347.3" font-family="Times,serif" font-size="14.00">index : Any | None</text>
<text text-anchor="start" x="401.5" y="-332.3" font-family="Times,serif" font-size="14.00">metric : str</text>
<text text-anchor="start" x="401.5" y="-317.3" font-family="Times,serif" font-size="14.00">vecs : DenseVecs | None</text>
<polyline fill="none" stroke="black" points="322.5,-309.5 615.5,-309.5 "/>
<text text-anchor="start" x="330.5" y="-294.3" font-family="Times,serif" font-size="14.00">build(): None</text>
<text text-anchor="start" x="330.5" y="-279.3" font-family="Times,serif" font-size="14.00">load_or_build(cpu_index_path: str | None): None</text>
<text text-anchor="start" x="330.5" y="-264.3" font-family="Times,serif" font-size="14.00">search(qvec: VecArray, k: int): list[tuple[str, float]]</text>
</g>
<!-- src.search_api.faiss_adapter.DenseVecs&#45;&gt;src.search_api.faiss_adapter.FaissAdapter -->
<g id="edge4" class="edge">
<title>src.search_api.faiss_adapter.DenseVecs&#45;&gt;src.search_api.faiss_adapter.FaissAdapter</title>
<path fill="none" stroke="black" d="M469,-144.59C469,-172.04 469,-209.39 469,-244.25"/>
<polygon fill="none" stroke="black" points="469,-244.46 473,-250.46 469,-256.46 465,-250.46 469,-244.46"/>
<text text-anchor="middle" x="481.5" y="-226.8" font-family="Times,serif" font-size="14.00" fill="green">vecs</text>
</g>
<!-- src.search_api.fixture_index.FixtureDoc -->
<g id="node6" class="node">
<title>src.search_api.fixture_index.FixtureDoc</title>
<polygon fill="none" stroke="black" points="634,-279 634,-408 726,-408 726,-279 634,-279"/>
<text text-anchor="start" x="649" y="-392.8" font-family="Times,serif" font-size="14.00">FixtureDoc</text>
<polyline fill="none" stroke="black" points="634,-385 726,-385 "/>
<text text-anchor="start" x="642" y="-369.8" font-family="Times,serif" font-size="14.00">chunk_id : str</text>
<text text-anchor="start" x="642" y="-354.8" font-family="Times,serif" font-size="14.00">doc_id : str</text>
<text text-anchor="start" x="642" y="-339.8" font-family="Times,serif" font-size="14.00">section : str</text>
<text text-anchor="start" x="642" y="-324.8" font-family="Times,serif" font-size="14.00">text : str</text>
<text text-anchor="start" x="642" y="-309.8" font-family="Times,serif" font-size="14.00">title : str</text>
<polyline fill="none" stroke="black" points="634,-302 726,-302 "/>
<text text-anchor="start" x="678" y="-286.8" font-family="Times,serif" font-size="14.00"> </text>
</g>
<!-- src.search_api.fixture_index.FixtureIndex -->
<g id="node7" class="node">
<title>src.search_api.fixture_index.FixtureIndex</title>
<polygon fill="none" stroke="black" points="548.5,-23 548.5,-182 811.5,-182 811.5,-23 548.5,-23"/>
<text text-anchor="start" x="645" y="-166.8" font-family="Times,serif" font-size="14.00">FixtureIndex</text>
<polyline fill="none" stroke="black" points="548.5,-159 811.5,-159 "/>
<text text-anchor="start" x="618" y="-143.8" font-family="Times,serif" font-size="14.00">N : int</text>
<text text-anchor="start" x="618" y="-128.8" font-family="Times,serif" font-size="14.00">db_path : str</text>
<text text-anchor="start" x="618" y="-113.8" font-family="Times,serif" font-size="14.00">df : dict[str, int]</text>
<text text-anchor="start" x="618" y="-98.8" font-family="Times,serif" font-size="14.00">docs : list[FixtureDoc]</text>
<text text-anchor="start" x="618" y="-83.8" font-family="Times,serif" font-size="14.00">root : Path</text>
<text text-anchor="start" x="618" y="-68.8" font-family="Times,serif" font-size="14.00">tf : list[dict[str, int]]</text>
<polyline fill="none" stroke="black" points="548.5,-61 811.5,-61 "/>
<text text-anchor="start" x="556.5" y="-45.8" font-family="Times,serif" font-size="14.00">doc(index: int): FixtureDoc</text>
<text text-anchor="start" x="556.5" y="-30.8" font-family="Times,serif" font-size="14.00">search(query: str, k: int): list[tuple[int, float]]</text>
</g>
<!-- src.search_api.fixture_index.FixtureIndex&#45;&gt;src.search_api.fixture_index.FixtureDoc -->
<g id="edge2" class="edge">
<title>src.search_api.fixture_index.FixtureIndex&#45;&gt;src.search_api.fixture_index.FixtureDoc</title>
<path fill="none" stroke="black" d="M680,-182.09C680,-209.96 680,-241.2 680,-268.66"/>
<polygon fill="black" stroke="black" points="680,-278.98 675.5,-268.98 680,-273.98 680,-268.98 680,-268.98 680,-268.98 680,-273.98 684.5,-268.98 680,-278.98 680,-278.98"/>
<text text-anchor="middle" x="692.5" y="-226.8" font-family="Times,serif" font-size="14.00" fill="green">docs</text>
</g>
<!-- src.search_api.schemas.SearchRequest -->
<g id="node8" class="node">
<title>src.search_api.schemas.SearchRequest</title>
<polygon fill="none" stroke="black" points="830,-45.5 830,-159.5 1012,-159.5 1012,-45.5 830,-45.5"/>
<text text-anchor="start" x="880.5" y="-144.3" font-family="Times,serif" font-size="14.00">SearchRequest</text>
<polyline fill="none" stroke="black" points="830,-136.5 1012,-136.5 "/>
<text text-anchor="start" x="838" y="-121.3" font-family="Times,serif" font-size="14.00">explain : bool</text>
<text text-anchor="start" x="838" y="-106.3" font-family="Times,serif" font-size="14.00">filters : dict[str, object] | None</text>
<text text-anchor="start" x="838" y="-91.3" font-family="Times,serif" font-size="14.00">k : int</text>
<text text-anchor="start" x="838" y="-76.3" font-family="Times,serif" font-size="14.00">query : Optional[str]</text>
<polyline fill="none" stroke="black" points="830,-68.5 1012,-68.5 "/>
<text text-anchor="start" x="919" y="-53.3" font-family="Times,serif" font-size="14.00"> </text>
</g>
<!-- src.search_api.schemas.SearchResult -->
<g id="node9" class="node">
<title>src.search_api.schemas.SearchResult</title>
<polygon fill="none" stroke="black" points="1030,-15.5 1030,-189.5 1194,-189.5 1194,-15.5 1030,-15.5"/>
<text text-anchor="start" x="1076" y="-174.3" font-family="Times,serif" font-size="14.00">SearchResult</text>
<polyline fill="none" stroke="black" points="1030,-166.5 1194,-166.5 "/>
<text text-anchor="start" x="1038" y="-151.3" font-family="Times,serif" font-size="14.00">chunk_id : str</text>
<text text-anchor="start" x="1038" y="-136.3" font-family="Times,serif" font-size="14.00">concepts : list[dict[str, str]]</text>
<text text-anchor="start" x="1038" y="-121.3" font-family="Times,serif" font-size="14.00">doc_id : str</text>
<text text-anchor="start" x="1038" y="-106.3" font-family="Times,serif" font-size="14.00">score : float</text>
<text text-anchor="start" x="1038" y="-91.3" font-family="Times,serif" font-size="14.00">section : str</text>
<text text-anchor="start" x="1038" y="-76.3" font-family="Times,serif" font-size="14.00">signals : dict[str, float]</text>
<text text-anchor="start" x="1038" y="-61.3" font-family="Times,serif" font-size="14.00">spans : dict[str, int]</text>
<text text-anchor="start" x="1038" y="-46.3" font-family="Times,serif" font-size="14.00">title : str</text>
<polyline fill="none" stroke="black" points="1030,-38.5 1194,-38.5 "/>
<text text-anchor="start" x="1110" y="-23.3" font-family="Times,serif" font-size="14.00"> </text>
</g>
<!-- src.search_api.splade_index.SpladeDoc -->
<g id="node10" class="node">
<title>src.search_api.splade_index.SpladeDoc</title>
<polygon fill="none" stroke="black" points="1298,-286.5 1298,-400.5 1390,-400.5 1390,-286.5 1298,-286.5"/>
<text text-anchor="start" x="1314" y="-385.3" font-family="Times,serif" font-size="14.00">SpladeDoc</text>
<polyline fill="none" stroke="black" points="1298,-377.5 1390,-377.5 "/>
<text text-anchor="start" x="1306" y="-362.3" font-family="Times,serif" font-size="14.00">chunk_id : str</text>
<text text-anchor="start" x="1306" y="-347.3" font-family="Times,serif" font-size="14.00">doc_id : str</text>
<text text-anchor="start" x="1306" y="-332.3" font-family="Times,serif" font-size="14.00">section : str</text>
<text text-anchor="start" x="1306" y="-317.3" font-family="Times,serif" font-size="14.00">text : str</text>
<polyline fill="none" stroke="black" points="1298,-309.5 1390,-309.5 "/>
<text text-anchor="start" x="1342" y="-294.3" font-family="Times,serif" font-size="14.00"> </text>
</g>
<!-- src.search_api.splade_index.SpladeIndex -->
<g id="node11" class="node">
<title>src.search_api.splade_index.SpladeIndex</title>
<polygon fill="none" stroke="black" points="1212.5,-38 1212.5,-167 1475.5,-167 1475.5,-38 1212.5,-38"/>
<text text-anchor="start" x="1310" y="-151.8" font-family="Times,serif" font-size="14.00">SpladeIndex</text>
<polyline fill="none" stroke="black" points="1212.5,-144 1475.5,-144 "/>
<text text-anchor="start" x="1283.5" y="-128.8" font-family="Times,serif" font-size="14.00">N : int</text>
<text text-anchor="start" x="1283.5" y="-113.8" font-family="Times,serif" font-size="14.00">db_path : str</text>
<text text-anchor="start" x="1283.5" y="-98.8" font-family="Times,serif" font-size="14.00">df : dict[str, int]</text>
<text text-anchor="start" x="1283.5" y="-83.8" font-family="Times,serif" font-size="14.00">docs : list[SpladeDoc]</text>
<polyline fill="none" stroke="black" points="1212.5,-76 1475.5,-76 "/>
<text text-anchor="start" x="1220.5" y="-60.8" font-family="Times,serif" font-size="14.00">doc(index: int): SpladeDoc</text>
<text text-anchor="start" x="1220.5" y="-45.8" font-family="Times,serif" font-size="14.00">search(query: str, k: int): list[tuple[int, float]]</text>
</g>
<!-- src.search_api.splade_index.SpladeIndex&#45;&gt;src.search_api.splade_index.SpladeDoc -->
<g id="edge3" class="edge">
<title>src.search_api.splade_index.SpladeIndex&#45;&gt;src.search_api.splade_index.SpladeDoc</title>
<path fill="none" stroke="black" d="M1344,-167.23C1344,-200.82 1344,-241.98 1344,-275.97"/>
<polygon fill="black" stroke="black" points="1344,-286.27 1339.5,-276.27 1344,-281.27 1344,-276.27 1344,-276.27 1344,-276.27 1344,-281.27 1348.5,-276.27 1344,-286.27 1344,-286.27"/>
<text text-anchor="middle" x="1356.5" y="-226.8" font-family="Times,serif" font-size="14.00" fill="green">docs</text>
</g>
</g>
</svg>
