<?xml version="1.0" encoding="UTF-8" standalone="no"?>
<!DOCTYPE svg PUBLIC "-//W3C//DTD SVG 1.1//EN"
 "http://www.w3.org/Graphics/SVG/1.1/DTD/svg11.dtd">
<!-- Generated by graphviz version 2.43.0 (0)
 -->
<!-- Title: classes_embeddings_dense Pages: 1 -->
<svg width="432pt" height="80pt"
 viewBox="0.00 0.00 432.00 79.80" xmlns="http://www.w3.org/2000/svg" xmlns:xlink="http://www.w3.org/1999/xlink">
<g id="graph0" class="graph" transform="scale(1 1) rotate(0) translate(4 75.8)">
<title>classes_embeddings_dense</title>
<polygon fill="white" stroke="transparent" points="-4,4 -4,-75.8 428,-75.8 428,4 -4,4"/>
<!-- embeddings_dense.base.DenseEmbeddingModel -->
<g id="node1" class="node">
<title>embeddings_dense.base.DenseEmbeddingModel</title>
<polygon fill="none" stroke="black" points="0,-0.5 0,-71.3 294,-71.3 294,-0.5 0,-0.5"/>
<text text-anchor="start" x="80.5" y="-56.1" font-family="Times,serif" font-size="14.00">DenseEmbeddingModel</text>
<polyline fill="none" stroke="black" points="0,-48.3 294,-48.3 "/>
<polyline fill="none" stroke="black" points="0,-23.5 294,-23.5 "/>
<text text-anchor="start" x="8" y="-8.3" font-family="Times,serif" font-size="14.00">encode(texts: Sequence[str]): NDArray[np.float32]</text>
</g>
<!-- embeddings_dense.qwen3.Qwen3Embedder -->
<g id="node2" class="node">
<title>embeddings_dense.qwen3.Qwen3Embedder</title>
<polygon fill="none" stroke="black" points="312,-0.5 312,-71.3 424,-71.3 424,-0.5 312,-0.5"/>
<text text-anchor="start" x="320" y="-56.1" font-family="Times,serif" font-size="14.00">Qwen3Embedder</text>
<polyline fill="none" stroke="black" points="312,-48.3 424,-48.3 "/>
<polyline fill="none" stroke="black" points="312,-23.5 424,-23.5 "/>
<text text-anchor="start" x="366" y="-8.3" font-family="Times,serif" font-size="14.00"> </text>
</g>
</g>
</svg>
