<?xml version="1.0" encoding="UTF-8" standalone="no"?>
<!DOCTYPE svg PUBLIC "-//W3C//DTD SVG 1.1//EN"
 "http://www.w3.org/Graphics/SVG/1.1/DTD/svg11.dtd">
<!-- Generated by graphviz version 2.43.0 (0)
 -->
<!-- Title: classes_ontology Pages: 1 -->
<svg width="521pt" height="93pt"
 viewBox="0.00 0.00 520.50 93.00" xmlns="http://www.w3.org/2000/svg" xmlns:xlink="http://www.w3.org/1999/xlink">
<g id="graph0" class="graph" transform="scale(1 1) rotate(0) translate(4 89)">
<title>classes_ontology</title>
<polygon fill="white" stroke="transparent" points="-4,4 -4,-89 516.5,-89 516.5,4 -4,4"/>
<!-- src.ontology.catalog.Concept -->
<g id="node1" class="node">
<title>src.ontology.catalog.Concept</title>
<polygon fill="none" stroke="black" points="0,-0.5 0,-84.5 107,-84.5 107,-0.5 0,-0.5"/>
<text text-anchor="start" x="30.5" y="-69.3" font-family="Times,serif" font-size="14.00">Concept</text>
<polyline fill="none" stroke="black" points="0,-61.5 107,-61.5 "/>
<text text-anchor="start" x="8" y="-46.3" font-family="Times,serif" font-size="14.00">id : str</text>
<text text-anchor="start" x="8" y="-31.3" font-family="Times,serif" font-size="14.00">label : str | None</text>
<polyline fill="none" stroke="black" points="0,-23.5 107,-23.5 "/>
<text text-anchor="start" x="51.5" y="-8.3" font-family="Times,serif" font-size="14.00"> </text>
</g>
<!-- src.ontology.catalog.OntologyCatalog -->
<g id="node2" class="node">
<title>src.ontology.catalog.OntologyCatalog</title>
<polygon fill="none" stroke="black" points="125,-0.5 125,-84.5 388,-84.5 388,-0.5 125,-0.5"/>
<text text-anchor="start" x="209.5" y="-69.3" font-family="Times,serif" font-size="14.00">OntologyCatalog</text>
<polyline fill="none" stroke="black" points="125,-61.5 388,-61.5 "/>
<text text-anchor="start" x="241" y="-46.3" font-family="Times,serif" font-size="14.00">by_id</text>
<polyline fill="none" stroke="black" points="125,-38.5 388,-38.5 "/>
<text text-anchor="start" x="133" y="-23.3" font-family="Times,serif" font-size="14.00">hydrate(concept_id: str): dict[str, Any]</text>
<text text-anchor="start" x="133" y="-8.3" font-family="Times,serif" font-size="14.00">neighbors(concept_id: str, depth: int): set[str]</text>
</g>
<!-- src.ontology.loader.OntologyLoader -->
<g id="node3" class="node">
<title>src.ontology.loader.OntologyLoader</title>
<polygon fill="none" stroke="black" points="406.5,-7.1 406.5,-77.9 512.5,-77.9 512.5,-7.1 406.5,-7.1"/>
<text text-anchor="start" x="414.5" y="-62.7" font-family="Times,serif" font-size="14.00">OntologyLoader</text>
<polyline fill="none" stroke="black" points="406.5,-54.9 512.5,-54.9 "/>
<polyline fill="none" stroke="black" points="406.5,-30.1 512.5,-30.1 "/>
<text text-anchor="start" x="457.5" y="-14.9" font-family="Times,serif" font-size="14.00"> </text>
</g>
</g>
</svg>
