<?xml version="1.0" encoding="UTF-8" standalone="no"?>
<!DOCTYPE svg PUBLIC "-//W3C//DTD SVG 1.1//EN"
 "http://www.w3.org/Graphics/SVG/1.1/DTD/svg11.dtd">
<!-- Generated by graphviz version 2.43.0 (0)
 -->
<!-- Title: classes_search_client Pages: 1 -->
<svg width="786pt" height="261pt"
 viewBox="0.00 0.00 786.00 260.80" xmlns="http://www.w3.org/2000/svg" xmlns:xlink="http://www.w3.org/1999/xlink">
<g id="graph0" class="graph" transform="scale(1 1) rotate(0) translate(4 256.8)">
<title>classes_search_client</title>
<polygon fill="white" stroke="transparent" points="-4,4 -4,-256.8 782,-256.8 782,4 -4,4"/>
<!-- search_client.client.KGFoundryClient -->
<g id="node1" class="node">
<title>search_client.client.KGFoundryClient</title>
<polygon fill="none" stroke="black" points="0,-0.5 0,-129.5 400,-129.5 400,-0.5 0,-0.5"/>
<text text-anchor="start" x="150.5" y="-114.3" font-family="Times,serif" font-size="14.00">KGFoundryClient</text>
<polyline fill="none" stroke="black" points="0,-106.5 400,-106.5 "/>
<text text-anchor="start" x="146" y="-91.3" font-family="Times,serif" font-size="14.00">api_key : str | None</text>
<text text-anchor="start" x="146" y="-76.3" font-family="Times,serif" font-size="14.00">base_url : str</text>
<text text-anchor="start" x="146" y="-61.3" font-family="Times,serif" font-size="14.00">timeout : float</text>
<polyline fill="none" stroke="black" points="0,-53.5 400,-53.5 "/>
<text text-anchor="start" x="8" y="-38.3" font-family="Times,serif" font-size="14.00">concepts(q: str, limit: int): JsonValue</text>
<text text-anchor="start" x="8" y="-23.3" font-family="Times,serif" font-size="14.00">healthz(): JsonValue</text>
<text text-anchor="start" x="8" y="-8.3" font-family="Times,serif" font-size="14.00">search(query: str, k: int, filters: dict[str, JsonValue] | None): JsonValue</text>
</g>
<!-- search_client.client.RequestsHttp -->
<g id="node2" class="node">
<title>search_client.client.RequestsHttp</title>
<polygon fill="none" stroke="black" points="418.5,-22.1 418.5,-107.9 609.5,-107.9 609.5,-22.1 418.5,-22.1"/>
<text text-anchor="start" x="477.5" y="-92.7" font-family="Times,serif" font-size="14.00">RequestsHttp</text>
<polyline fill="none" stroke="black" points="418.5,-84.9 609.5,-84.9 "/>
<polyline fill="none" stroke="black" points="418.5,-60.1 609.5,-60.1 "/>
<text text-anchor="start" x="426.5" y="-44.9" font-family="Times,serif" font-size="14.00">get(url: str): SupportsResponse</text>
<text text-anchor="start" x="426.5" y="-29.9" font-family="Times,serif" font-size="14.00">post(url: str): SupportsResponse</text>
</g>
<!-- search_client.client.SupportsHttp -->
<g id="node3" class="node">
<title>search_client.client.SupportsHttp</title>
<polygon fill="none" stroke="black" points="418.5,-166.5 418.5,-252.3 609.5,-252.3 609.5,-166.5 418.5,-166.5"/>
<text text-anchor="start" x="477.5" y="-237.1" font-family="Times,serif" font-size="14.00">SupportsHttp</text>
<polyline fill="none" stroke="black" points="418.5,-229.3 609.5,-229.3 "/>
<polyline fill="none" stroke="black" points="418.5,-204.5 609.5,-204.5 "/>
<text text-anchor="start" x="426.5" y="-189.3" font-family="Times,serif" font-size="14.00">get(url: str): SupportsResponse</text>
<text text-anchor="start" x="426.5" y="-174.3" font-family="Times,serif" font-size="14.00">post(url: str): SupportsResponse</text>
</g>
<!-- search_client.client.RequestsHttp&#45;&gt;search_client.client.SupportsHttp -->
<g id="edge1" class="edge">
<title>search_client.client.RequestsHttp&#45;&gt;search_client.client.SupportsHttp</title>
<path fill="none" stroke="black" d="M514,-107.95C514,-123.03 514,-140.22 514,-156.07"/>
<polygon fill="none" stroke="black" points="510.5,-156.25 514,-166.25 517.5,-156.25 510.5,-156.25"/>
</g>
<!-- search_client.client.SupportsResponse -->
<g id="node4" class="node">
<title>search_client.client.SupportsResponse</title>
<polygon fill="none" stroke="black" points="628,-23.1 628,-106.9 778,-106.9 778,-23.1 628,-23.1"/>
<text text-anchor="start" x="653" y="-91.7" font-family="Times,serif" font-size="14.00">SupportsResponse</text>
<polyline fill="none" stroke="black" points="628,-83.9 778,-83.9 "/>
<polyline fill="none" stroke="black" points="628,-59.1 778,-59.1 "/>
<text text-anchor="start" x="636" y="-44.9" font-family="Times,serif" font-size="14.00">json(): JsonValue</text>
<text text-anchor="start" x="636" y="-30.9" font-family="Times,serif" font-style="italic" font-size="14.00">raise_for_status</text>
<text text-anchor="start" x="724" y="-30.9" font-family="Times,serif" font-size="14.00">(): None</text>
</g>
</g>
</svg>
