<?xml version="1.0" encoding="UTF-8" standalone="no"?>
<!DOCTYPE svg PUBLIC "-//W3C//DTD SVG 1.1//EN"
 "http://www.w3.org/Graphics/SVG/1.1/DTD/svg11.dtd">
<!-- Generated by graphviz version 2.43.0 (0)
 -->
<!-- Title: classes_embeddings_sparse Pages: 1 -->
<svg width="2745pt" height="228pt"
 viewBox="0.00 0.00 2744.50 228.00" xmlns="http://www.w3.org/2000/svg" xmlns:xlink="http://www.w3.org/1999/xlink">
<g id="graph0" class="graph" transform="scale(1 1) rotate(0) translate(4 224)">
<title>classes_embeddings_sparse</title>
<polygon fill="white" stroke="transparent" points="-4,4 -4,-224 2740.5,-224 2740.5,4 -4,4"/>
<!-- src.embeddings_sparse.bm25.BM25Doc -->
<g id="node1" class="node">
<title>src.embeddings_sparse.bm25.BM25Doc</title>
<polygon fill="none" stroke="black" points="0,-60.5 0,-159.5 121,-159.5 121,-60.5 0,-60.5"/>
<text text-anchor="start" x="31.5" y="-144.3" font-family="Times,serif" font-size="14.00">BM25Doc</text>
<polyline fill="none" stroke="black" points="0,-136.5 121,-136.5 "/>
<text text-anchor="start" x="8" y="-121.3" font-family="Times,serif" font-size="14.00">doc_id : str</text>
<text text-anchor="start" x="8" y="-106.3" font-family="Times,serif" font-size="14.00">fields : dict[str, str]</text>
<text text-anchor="start" x="8" y="-91.3" font-family="Times,serif" font-size="14.00">length : int</text>
<polyline fill="none" stroke="black" points="0,-83.5 121,-83.5 "/>
<text text-anchor="start" x="58.5" y="-68.3" font-family="Times,serif" font-size="14.00"> </text>
</g>
<!-- src.embeddings_sparse.bm25.LuceneBM25 -->
<g id="node2" class="node">
<title>src.embeddings_sparse.bm25.LuceneBM25</title>
<polygon fill="none" stroke="black" points="139,-45.5 139,-174.5 548,-174.5 548,-45.5 139,-45.5"/>
<text text-anchor="start" x="305.5" y="-159.3" font-family="Times,serif" font-size="14.00">LuceneBM25</text>
<polyline fill="none" stroke="black" points="139,-151.5 548,-151.5 "/>
<text text-anchor="start" x="294.5" y="-136.3" font-family="Times,serif" font-size="14.00">b : float</text>
<text text-anchor="start" x="294.5" y="-121.3" font-family="Times,serif" font-size="14.00">field_boosts : dict</text>
<text text-anchor="start" x="294.5" y="-106.3" font-family="Times,serif" font-size="14.00">index_dir : str</text>
<text text-anchor="start" x="294.5" y="-91.3" font-family="Times,serif" font-size="14.00">k1 : float</text>
<polyline fill="none" stroke="black" points="139,-83.5 548,-83.5 "/>
<text text-anchor="start" x="147" y="-68.3" font-family="Times,serif" font-size="14.00">build(docs_iterable: Iterable[tuple[str, dict[str, str]]]): None</text>
<text text-anchor="start" x="147" y="-53.3" font-family="Times,serif" font-size="14.00">search(query: str, k: int, fields: dict[str, str] | None): list[tuple[str, float]]</text>
</g>
<!-- src.embeddings_sparse.splade.LuceneImpactIndex -->
<g id="node3" class="node">
<title>src.embeddings_sparse.splade.LuceneImpactIndex</title>
<polygon fill="none" stroke="black" points="566,-75.5 566,-144.5 827,-144.5 827,-75.5 566,-75.5"/>
<text text-anchor="start" x="642" y="-129.3" font-family="Times,serif" font-size="14.00">LuceneImpactIndex</text>
<polyline fill="none" stroke="black" points="566,-121.5 827,-121.5 "/>
<text text-anchor="start" x="658" y="-106.3" font-family="Times,serif" font-size="14.00">index_dir : str</text>
<polyline fill="none" stroke="black" points="566,-98.5 827,-98.5 "/>
<text text-anchor="start" x="574" y="-83.3" font-family="Times,serif" font-size="14.00">search(query: str, k: int): list[tuple[str, float]]</text>
</g>
<!-- src.embeddings_sparse.splade.PureImpactIndex -->
<g id="node4" class="node">
<title>src.embeddings_sparse.splade.PureImpactIndex</title>
<polygon fill="none" stroke="black" points="845,-38 845,-182 1184,-182 1184,-38 845,-38"/>
<text text-anchor="start" x="967.5" y="-166.8" font-family="Times,serif" font-size="14.00">PureImpactIndex</text>
<polyline fill="none" stroke="black" points="845,-159 1184,-159 "/>
<text text-anchor="start" x="924" y="-143.8" font-family="Times,serif" font-size="14.00">N : int</text>
<text text-anchor="start" x="924" y="-128.8" font-family="Times,serif" font-size="14.00">df : dict[str, int]</text>
<text text-anchor="start" x="924" y="-113.8" font-family="Times,serif" font-size="14.00">index_dir : str</text>
<text text-anchor="start" x="924" y="-98.8" font-family="Times,serif" font-size="14.00">postings : dict[str, dict[str, float]]</text>
<polyline fill="none" stroke="black" points="845,-91 1184,-91 "/>
<text text-anchor="start" x="853" y="-75.8" font-family="Times,serif" font-size="14.00">build(docs_iterable: Iterable[tuple[str, dict[str, str]]]): None</text>
<text text-anchor="start" x="853" y="-60.8" font-family="Times,serif" font-size="14.00">load(): None</text>
<text text-anchor="start" x="853" y="-45.8" font-family="Times,serif" font-size="14.00">search(query: str, k: int): list[tuple[str, float]]</text>
</g>
<!-- src.embeddings_sparse.bm25.PurePythonBM25 -->
<g id="node5" class="node">
<title>src.embeddings_sparse.bm25.PurePythonBM25</title>
<polygon fill="none" stroke="black" points="1202.5,-0.5 1202.5,-219.5 1640.5,-219.5 1640.5,-0.5 1202.5,-0.5"/>
<text text-anchor="start" x="1372" y="-204.3" font-family="Times,serif" font-size="14.00">PurePythonBM25</text>
<polyline fill="none" stroke="black" points="1202.5,-196.5 1640.5,-196.5 "/>
<text text-anchor="start" x="1336.5" y="-181.3" font-family="Times,serif" font-size="14.00">N : int</text>
<text text-anchor="start" x="1336.5" y="-166.3" font-family="Times,serif" font-size="14.00">avgdl : float</text>
<text text-anchor="start" x="1336.5" y="-151.3" font-family="Times,serif" font-size="14.00">b : float</text>
<text text-anchor="start" x="1336.5" y="-136.3" font-family="Times,serif" font-size="14.00">df : dict[str, int]</text>
<text text-anchor="start" x="1336.5" y="-121.3" font-family="Times,serif" font-size="14.00">docs : dict[str, BM25Doc]</text>
<text text-anchor="start" x="1336.5" y="-106.3" font-family="Times,serif" font-size="14.00">field_boosts : dict</text>
<text text-anchor="start" x="1336.5" y="-91.3" font-family="Times,serif" font-size="14.00">index_dir : str</text>
<text text-anchor="start" x="1336.5" y="-76.3" font-family="Times,serif" font-size="14.00">k1 : float</text>
<text text-anchor="start" x="1336.5" y="-61.3" font-family="Times,serif" font-size="14.00">postings : dict[str, dict[str, int]]</text>
<polyline fill="none" stroke="black" points="1202.5,-53.5 1640.5,-53.5 "/>
<text text-anchor="start" x="1210.5" y="-38.3" font-family="Times,serif" font-size="14.00">build(docs_iterable: Iterable[tuple[str, dict[str, str]]]): None</text>
<text text-anchor="start" x="1210.5" y="-23.3" font-family="Times,serif" font-size="14.00">load(): None</text>
<text text-anchor="start" x="1210.5" y="-8.3" font-family="Times,serif" font-size="14.00">search(query: str, k: int, fields: Mapping[str, str] | None): list[tuple[str, float]]</text>
</g>
<!-- src.embeddings_sparse.splade.SPLADEv3Encoder -->
<g id="node6" class="node">
<title>src.embeddings_sparse.splade.SPLADEv3Encoder</title>
<polygon fill="none" stroke="black" points="1658.5,-45.5 1658.5,-174.5 1960.5,-174.5 1960.5,-45.5 1658.5,-45.5"/>
<text text-anchor="start" x="1754.5" y="-159.3" font-family="Times,serif" font-size="14.00">SPLADEv3Encoder</text>
<polyline fill="none" stroke="black" points="1658.5,-151.5 1960.5,-151.5 "/>
<text text-anchor="start" x="1760.5" y="-136.3" font-family="Times,serif" font-size="14.00">device : str</text>
<text text-anchor="start" x="1760.5" y="-121.3" font-family="Times,serif" font-size="14.00">max_seq_len : int</text>
<text text-anchor="start" x="1760.5" y="-106.3" font-family="Times,serif" font-size="14.00">model_id : str</text>
<text text-anchor="start" x="1760.5" y="-91.3" font-family="Times,serif" font-size="14.00">name : str</text>
<text text-anchor="start" x="1760.5" y="-76.3" font-family="Times,serif" font-size="14.00">topk : int</text>
<polyline fill="none" stroke="black" points="1658.5,-68.5 1960.5,-68.5 "/>
<text text-anchor="start" x="1666.5" y="-53.3" font-family="Times,serif" font-size="14.00">encode(texts: list[str]): list[tuple[list[int], list[float]]]</text>
</g>
<!-- src.embeddings_sparse.base.SparseEncoder -->
<g id="node7" class="node">
<title>src.embeddings_sparse.base.SparseEncoder</title>
<polygon fill="none" stroke="black" points="1978.5,-75.5 1978.5,-144.5 2280.5,-144.5 2280.5,-75.5 1978.5,-75.5"/>
<text text-anchor="start" x="2088.5" y="-129.3" font-family="Times,serif" font-size="14.00">SparseEncoder</text>
<polyline fill="none" stroke="black" points="1978.5,-121.5 2280.5,-121.5 "/>
<text text-anchor="start" x="2102" y="-106.3" font-family="Times,serif" font-size="14.00">name : str</text>
<polyline fill="none" stroke="black" points="1978.5,-98.5 2280.5,-98.5 "/>
<text text-anchor="start" x="1986.5" y="-83.3" font-family="Times,serif" font-size="14.00">encode(texts: list[str]): list[tuple[list[int], list[float]]]</text>
</g>
<!-- src.embeddings_sparse.base.SparseIndex -->
<g id="node8" class="node">
<title>src.embeddings_sparse.base.SparseIndex</title>
<polygon fill="none" stroke="black" points="2298.5,-67.1 2298.5,-152.9 2736.5,-152.9 2736.5,-67.1 2298.5,-67.1"/>
<text text-anchor="start" x="2484" y="-137.7" font-family="Times,serif" font-size="14.00">SparseIndex</text>
<polyline fill="none" stroke="black" points="2298.5,-129.9 2736.5,-129.9 "/>
<polyline fill="none" stroke="black" points="2298.5,-105.1 2736.5,-105.1 "/>
<text text-anchor="start" x="2306.5" y="-89.9" font-family="Times,serif" font-size="14.00">build(docs_iterable: Iterable[tuple[str, dict[str, str]]]): None</text>
<text text-anchor="start" x="2306.5" y="-74.9" font-family="Times,serif" font-size="14.00">search(query: str, k: int, fields: Mapping[str, str] | None): list[tuple[str, float]]</text>
</g>
</g>
</svg>
