<?xml version="1.0" encoding="UTF-8" standalone="no"?>
<!DOCTYPE svg PUBLIC "-//W3C//DTD SVG 1.1//EN"
 "http://www.w3.org/Graphics/SVG/1.1/DTD/svg11.dtd">
<!-- Generated by graphviz version 2.43.0 (0)
 -->
<!-- Title: classes_docling Pages: 1 -->
<svg width="258pt" height="80pt"
 viewBox="0.00 0.00 258.00 79.80" xmlns="http://www.w3.org/2000/svg" xmlns:xlink="http://www.w3.org/1999/xlink">
<g id="graph0" class="graph" transform="scale(1 1) rotate(0) translate(4 75.8)">
<title>classes_docling</title>
<polygon fill="white" stroke="transparent" points="-4,4 -4,-75.8 254,-75.8 254,4 -4,4"/>
<!-- src.docling.vlm.GraniteDoclingVLM -->
<g id="node1" class="node">
<title>src.docling.vlm.GraniteDoclingVLM</title>
<polygon fill="none" stroke="black" points="0,-0.5 0,-71.3 131,-71.3 131,-0.5 0,-0.5"/>
<text text-anchor="start" x="8" y="-56.1" font-family="Times,serif" font-size="14.00">GraniteDoclingVLM</text>
<polyline fill="none" stroke="black" points="0,-48.3 131,-48.3 "/>
<polyline fill="none" stroke="black" points="0,-23.5 131,-23.5 "/>
<text text-anchor="start" x="63.5" y="-8.3" font-family="Times,serif" font-size="14.00"> </text>
</g>
<!-- src.docling.hybrid.HybridChunker -->
<g id="node2" class="node">
<title>src.docling.hybrid.HybridChunker</title>
<polygon fill="none" stroke="black" points="149,-0.5 149,-71.3 250,-71.3 250,-0.5 149,-0.5"/>
<text text-anchor="start" x="157" y="-56.1" font-family="Times,serif" font-size="14.00">HybridChunker</text>
<polyline fill="none" stroke="black" points="149,-48.3 250,-48.3 "/>
<polyline fill="none" stroke="black" points="149,-23.5 250,-23.5 "/>
<text text-anchor="start" x="197.5" y="-8.3" font-family="Times,serif" font-size="14.00"> </text>
</g>
</g>
</svg>
