<?xml version="1.0" encoding="UTF-8" standalone="no"?>
<!DOCTYPE svg PUBLIC "-//W3C//DTD SVG 1.1//EN"
 "http://www.w3.org/Graphics/SVG/1.1/DTD/svg11.dtd">
<!-- Generated by graphviz version 2.43.0 (0)
 -->
<!-- Title: classes_kg_builder Pages: 1 -->
<svg width="396pt" height="138pt"
 viewBox="0.00 0.00 396.00 138.00" xmlns="http://www.w3.org/2000/svg" xmlns:xlink="http://www.w3.org/1999/xlink">
<g id="graph0" class="graph" transform="scale(1 1) rotate(0) translate(4 134)">
<title>classes_kg_builder</title>
<polygon fill="white" stroke="transparent" points="-4,4 -4,-134 392,-134 392,4 -4,4"/>
<!-- src.kg_builder.mock_kg.MockKG -->
<g id="node1" class="node">
<title>src.kg_builder.mock_kg.MockKG</title>
<polygon fill="none" stroke="black" points="0,-0.5 0,-129.5 292,-129.5 292,-0.5 0,-0.5"/>
<text text-anchor="start" x="120" y="-114.3" font-family="Times,serif" font-size="14.00">MockKG</text>
<polyline fill="none" stroke="black" points="0,-106.5 292,-106.5 "/>
<text text-anchor="start" x="53" y="-91.3" font-family="Times,serif" font-size="14.00">chunk2concepts : dict[str, set[str]]</text>
<text text-anchor="start" x="53" y="-76.3" font-family="Times,serif" font-size="14.00">neighbors : dict[str, set[str]]</text>
<polyline fill="none" stroke="black" points="0,-68.5 292,-68.5 "/>
<text text-anchor="start" x="8" y="-53.3" font-family="Times,serif" font-size="14.00">add_edge(a: str, b: str): None</text>
<text text-anchor="start" x="8" y="-38.3" font-family="Times,serif" font-size="14.00">add_mention(chunk_id: str, concept_id: str): None</text>
<text text-anchor="start" x="8" y="-23.3" font-family="Times,serif" font-size="14.00">linked_concepts(chunk_id: str): list[str]</text>
<text text-anchor="start" x="8" y="-8.3" font-family="Times,serif" font-size="14.00">one_hop(concept_id: str): list[str]</text>
</g>
<!-- src.kg_builder.neo4j_store.Neo4jStore -->
<g id="node2" class="node">
<title>src.kg_builder.neo4j_store.Neo4jStore</title>
<polygon fill="none" stroke="black" points="310,-29.6 310,-100.4 388,-100.4 388,-29.6 310,-29.6"/>
<text text-anchor="start" x="318" y="-85.2" font-family="Times,serif" font-size="14.00">Neo4jStore</text>
<polyline fill="none" stroke="black" points="310,-77.4 388,-77.4 "/>
<polyline fill="none" stroke="black" points="310,-52.6 388,-52.6 "/>
<text text-anchor="start" x="347" y="-37.4" font-family="Times,serif" font-size="14.00"> </text>
</g>
</g>
</svg>
