<?xml version="1.0" encoding="UTF-8" standalone="no"?>
<!DOCTYPE svg PUBLIC "-//W3C//DTD SVG 1.1//EN"
 "http://www.w3.org/Graphics/SVG/1.1/DTD/svg11.dtd">
<!-- Generated by graphviz version 2.43.0 (0)
 -->
<!-- Title: classes_embeddings_sparse Pages: 1 -->
<svg width="4543pt" height="228pt"
 viewBox="0.00 0.00 4542.50 228.00" xmlns="http://www.w3.org/2000/svg" xmlns:xlink="http://www.w3.org/1999/xlink">
<g id="graph0" class="graph" transform="scale(1 1) rotate(0) translate(4 224)">
<title>classes_embeddings_sparse</title>
<polygon fill="white" stroke="transparent" points="-4,4 -4,-224 4538.5,-224 4538.5,4 -4,4"/>
<!-- embeddings_sparse.bm25.BM25Doc -->
<g id="node1" class="node">
<title>embeddings_sparse.bm25.BM25Doc</title>
<polygon fill="none" stroke="black" points="0,-53 0,-167 151,-167 151,-53 0,-53"/>
<text text-anchor="start" x="46.5" y="-151.8" font-family="Times,serif" font-size="14.00">BM25Doc</text>
<polyline fill="none" stroke="black" points="0,-144 151,-144 "/>
<text text-anchor="start" x="8" y="-128.8" font-family="Times,serif" font-size="14.00">doc_id : str</text>
<text text-anchor="start" x="8" y="-113.8" font-family="Times,serif" font-size="14.00">fields : dict[str, str]</text>
<text text-anchor="start" x="8" y="-98.8" font-family="Times,serif" font-size="14.00">length : int</text>
<text text-anchor="start" x="8" y="-83.8" font-family="Times,serif" font-size="14.00">term_freqs : dict[str, int]</text>
<polyline fill="none" stroke="black" points="0,-76 151,-76 "/>
<text text-anchor="start" x="73.5" y="-60.8" font-family="Times,serif" font-size="14.00"> </text>
</g>
<!-- embeddings_sparse.splade.ImpactHitProtocol -->
<g id="node2" class="node">
<title>embeddings_sparse.splade.ImpactHitProtocol</title>
<polygon fill="none" stroke="black" points="169.5,-68 169.5,-152 287.5,-152 287.5,-68 169.5,-68"/>
<text text-anchor="start" x="177.5" y="-136.8" font-family="Times,serif" font-size="14.00">ImpactHitProtocol</text>
<polyline fill="none" stroke="black" points="169.5,-129 287.5,-129 "/>
<text text-anchor="start" x="196" y="-113.8" font-family="Times,serif" font-size="14.00">docid : str</text>
<text text-anchor="start" x="196" y="-98.8" font-family="Times,serif" font-size="14.00">score : float</text>
<polyline fill="none" stroke="black" points="169.5,-91 287.5,-91 "/>
<text text-anchor="start" x="226.5" y="-75.8" font-family="Times,serif" font-size="14.00"> </text>
</g>
<!-- embeddings_sparse.bm25.LuceneBM25 -->
<g id="node3" class="node">
<title>embeddings_sparse.bm25.LuceneBM25</title>
<polygon fill="none" stroke="black" points="305.5,-38 305.5,-182 743.5,-182 743.5,-38 305.5,-38"/>
<text text-anchor="start" x="486.5" y="-166.8" font-family="Times,serif" font-size="14.00">LuceneBM25</text>
<polyline fill="none" stroke="black" points="305.5,-159 743.5,-159 "/>
<text text-anchor="start" x="475.5" y="-143.8" font-family="Times,serif" font-size="14.00">b : float</text>
<text text-anchor="start" x="475.5" y="-128.8" font-family="Times,serif" font-size="14.00">field_boosts : dict</text>
<text text-anchor="start" x="475.5" y="-113.8" font-family="Times,serif" font-size="14.00">index_dir : str</text>
<text text-anchor="start" x="475.5" y="-98.8" font-family="Times,serif" font-size="14.00">k1 : float</text>
<polyline fill="none" stroke="black" points="305.5,-91 743.5,-91 "/>
<text text-anchor="start" x="313.5" y="-75.8" font-family="Times,serif" font-size="14.00">build(docs_iterable: Iterable[tuple[str, dict[str, str]]]): None</text>
<text text-anchor="start" x="313.5" y="-60.8" font-family="Times,serif" font-size="14.00">load(): None</text>
<text text-anchor="start" x="313.5" y="-45.8" font-family="Times,serif" font-size="14.00">search(query: str, k: int, fields: Mapping[str, str] | None): list[tuple[str, float]]</text>
</g>
<!-- embeddings_sparse.bm25.LuceneHitProtocol -->
<g id="node4" class="node">
<title>embeddings_sparse.bm25.LuceneHitProtocol</title>
<polygon fill="none" stroke="black" points="762,-68 762,-152 881,-152 881,-68 762,-68"/>
<text text-anchor="start" x="770" y="-136.8" font-family="Times,serif" font-size="14.00">LuceneHitProtocol</text>
<polyline fill="none" stroke="black" points="762,-129 881,-129 "/>
<text text-anchor="start" x="789" y="-113.8" font-family="Times,serif" font-size="14.00">docid : str</text>
<text text-anchor="start" x="789" y="-98.8" font-family="Times,serif" font-size="14.00">score : float</text>
<polyline fill="none" stroke="black" points="762,-91 881,-91 "/>
<text text-anchor="start" x="819.5" y="-75.8" font-family="Times,serif" font-size="14.00"> </text>
</g>
<!-- embeddings_sparse.splade.LuceneImpactIndex -->
<g id="node5" class="node">
<title>embeddings_sparse.splade.LuceneImpactIndex</title>
<polygon fill="none" stroke="black" points="899,-60.5 899,-159.5 1160,-159.5 1160,-60.5 899,-60.5"/>
<text text-anchor="start" x="975" y="-144.3" font-family="Times,serif" font-size="14.00">LuceneImpactIndex</text>
<polyline fill="none" stroke="black" points="899,-136.5 1160,-136.5 "/>
<text text-anchor="start" x="976.5" y="-121.3" font-family="Times,serif" font-size="14.00">index_dir : str</text>
<text text-anchor="start" x="976.5" y="-106.3" font-family="Times,serif" font-size="14.00">query_encoder : str</text>
<polyline fill="none" stroke="black" points="899,-98.5 1160,-98.5 "/>
<text text-anchor="start" x="907" y="-83.3" font-family="Times,serif" font-size="14.00">ensure_available(): None</text>
<text text-anchor="start" x="907" y="-68.3" font-family="Times,serif" font-size="14.00">search(query: str, k: int): list[tuple[str, float]]</text>
</g>
<!-- embeddings_sparse.splade.LuceneImpactSearcherFactory -->
<g id="node6" class="node">
<title>embeddings_sparse.splade.LuceneImpactSearcherFactory</title>
<polygon fill="none" stroke="black" points="1178,-74.6 1178,-145.4 1361,-145.4 1361,-74.6 1178,-74.6"/>
<text text-anchor="start" x="1186" y="-130.2" font-family="Times,serif" font-size="14.00">LuceneImpactSearcherFactory</text>
<polyline fill="none" stroke="black" points="1178,-122.4 1361,-122.4 "/>
<polyline fill="none" stroke="black" points="1178,-97.6 1361,-97.6 "/>
<text text-anchor="start" x="1267.5" y="-82.4" font-family="Times,serif" font-size="14.00"> </text>
</g>
<!-- embeddings_sparse.splade.LuceneImpactSearcherProtocol -->
<g id="node7" class="node">
<title>embeddings_sparse.splade.LuceneImpactSearcherProtocol</title>
<polygon fill="none" stroke="black" points="1379,-74.6 1379,-145.4 1696,-145.4 1696,-74.6 1379,-74.6"/>
<text text-anchor="start" x="1451.5" y="-130.2" font-family="Times,serif" font-size="14.00">LuceneImpactSearcherProtocol</text>
<polyline fill="none" stroke="black" points="1379,-122.4 1696,-122.4 "/>
<polyline fill="none" stroke="black" points="1379,-97.6 1696,-97.6 "/>
<text text-anchor="start" x="1387" y="-82.4" font-family="Times,serif" font-size="14.00">search(query: str, k: int): Sequence[ImpactHitProtocol]</text>
</g>
<!-- embeddings_sparse.bm25.LuceneIndexerFactory -->
<g id="node8" class="node">
<title>embeddings_sparse.bm25.LuceneIndexerFactory</title>
<polygon fill="none" stroke="black" points="1714,-74.6 1714,-145.4 1853,-145.4 1853,-74.6 1714,-74.6"/>
<text text-anchor="start" x="1722" y="-130.2" font-family="Times,serif" font-size="14.00">LuceneIndexerFactory</text>
<polyline fill="none" stroke="black" points="1714,-122.4 1853,-122.4 "/>
<polyline fill="none" stroke="black" points="1714,-97.6 1853,-97.6 "/>
<text text-anchor="start" x="1781.5" y="-82.4" font-family="Times,serif" font-size="14.00"> </text>
</g>
<!-- embeddings_sparse.bm25.LuceneIndexerProtocol -->
<g id="node9" class="node">
<title>embeddings_sparse.bm25.LuceneIndexerProtocol</title>
<polygon fill="none" stroke="black" points="1871.5,-67.1 1871.5,-152.9 2125.5,-152.9 2125.5,-67.1 1871.5,-67.1"/>
<text text-anchor="start" x="1935" y="-137.7" font-family="Times,serif" font-size="14.00">LuceneIndexerProtocol</text>
<polyline fill="none" stroke="black" points="1871.5,-129.9 2125.5,-129.9 "/>
<polyline fill="none" stroke="black" points="1871.5,-105.1 2125.5,-105.1 "/>
<text text-anchor="start" x="1879.5" y="-89.9" font-family="Times,serif" font-size="14.00">add_doc_dict(doc: Mapping[str, str]): None</text>
<text text-anchor="start" x="1879.5" y="-74.9" font-family="Times,serif" font-size="14.00">close(): None</text>
</g>
<!-- embeddings_sparse.bm25.LuceneSearcherFactory -->
<g id="node10" class="node">
<title>embeddings_sparse.bm25.LuceneSearcherFactory</title>
<polygon fill="none" stroke="black" points="2144,-74.6 2144,-145.4 2289,-145.4 2289,-74.6 2144,-74.6"/>
<text text-anchor="start" x="2152" y="-130.2" font-family="Times,serif" font-size="14.00">LuceneSearcherFactory</text>
<polyline fill="none" stroke="black" points="2144,-122.4 2289,-122.4 "/>
<polyline fill="none" stroke="black" points="2144,-97.6 2289,-97.6 "/>
<text text-anchor="start" x="2214.5" y="-82.4" font-family="Times,serif" font-size="14.00"> </text>
</g>
<!-- embeddings_sparse.bm25.LuceneSearcherProtocol -->
<g id="node11" class="node">
<title>embeddings_sparse.bm25.LuceneSearcherProtocol</title>
<polygon fill="none" stroke="black" points="2306.5,-67.1 2306.5,-152.9 2624.5,-152.9 2624.5,-67.1 2306.5,-67.1"/>
<text text-anchor="start" x="2399" y="-137.7" font-family="Times,serif" font-size="14.00">LuceneSearcherProtocol</text>
<polyline fill="none" stroke="black" points="2306.5,-129.9 2624.5,-129.9 "/>
<polyline fill="none" stroke="black" points="2306.5,-105.1 2624.5,-105.1 "/>
<text text-anchor="start" x="2314.5" y="-89.9" font-family="Times,serif" font-size="14.00">search(query: str, k: int): Sequence[LuceneHitProtocol]</text>
<text text-anchor="start" x="2314.5" y="-74.9" font-family="Times,serif" font-size="14.00">set_bm25(k1: float, b: float): None</text>
</g>
<!-- embeddings_sparse.splade.PureImpactIndex -->
<g id="node12" class="node">
<title>embeddings_sparse.splade.PureImpactIndex</title>
<polygon fill="none" stroke="black" points="2643,-38 2643,-182 2982,-182 2982,-38 2643,-38"/>
<text text-anchor="start" x="2765.5" y="-166.8" font-family="Times,serif" font-size="14.00">PureImpactIndex</text>
<polyline fill="none" stroke="black" points="2643,-159 2982,-159 "/>
<text text-anchor="start" x="2722" y="-143.8" font-family="Times,serif" font-size="14.00">N : int</text>
<text text-anchor="start" x="2722" y="-128.8" font-family="Times,serif" font-size="14.00">df : dict[str, int]</text>
<text text-anchor="start" x="2722" y="-113.8" font-family="Times,serif" font-size="14.00">index_dir : str</text>
<text text-anchor="start" x="2722" y="-98.8" font-family="Times,serif" font-size="14.00">postings : dict[str, dict[str, float]]</text>
<polyline fill="none" stroke="black" points="2643,-91 2982,-91 "/>
<text text-anchor="start" x="2651" y="-75.8" font-family="Times,serif" font-size="14.00">build(docs_iterable: Iterable[tuple[str, dict[str, str]]]): None</text>
<text text-anchor="start" x="2651" y="-60.8" font-family="Times,serif" font-size="14.00">load(): None</text>
<text text-anchor="start" x="2651" y="-45.8" font-family="Times,serif" font-size="14.00">search(query: str, k: int): list[tuple[str, float]]</text>
</g>
<!-- embeddings_sparse.bm25.PurePythonBM25 -->
<g id="node13" class="node">
<title>embeddings_sparse.bm25.PurePythonBM25</title>
<polygon fill="none" stroke="black" points="3000.5,-0.5 3000.5,-219.5 3438.5,-219.5 3438.5,-0.5 3000.5,-0.5"/>
<text text-anchor="start" x="3170" y="-204.3" font-family="Times,serif" font-size="14.00">PurePythonBM25</text>
<polyline fill="none" stroke="black" points="3000.5,-196.5 3438.5,-196.5 "/>
<text text-anchor="start" x="3134.5" y="-181.3" font-family="Times,serif" font-size="14.00">N : int</text>
<text text-anchor="start" x="3134.5" y="-166.3" font-family="Times,serif" font-size="14.00">avgdl : float</text>
<text text-anchor="start" x="3134.5" y="-151.3" font-family="Times,serif" font-size="14.00">b : float</text>
<text text-anchor="start" x="3134.5" y="-136.3" font-family="Times,serif" font-size="14.00">df : dict[str, int]</text>
<text text-anchor="start" x="3134.5" y="-121.3" font-family="Times,serif" font-size="14.00">docs : dict[str, BM25Doc]</text>
<text text-anchor="start" x="3134.5" y="-106.3" font-family="Times,serif" font-size="14.00">field_boosts : dict</text>
<text text-anchor="start" x="3134.5" y="-91.3" font-family="Times,serif" font-size="14.00">index_dir : str</text>
<text text-anchor="start" x="3134.5" y="-76.3" font-family="Times,serif" font-size="14.00">k1 : float</text>
<text text-anchor="start" x="3134.5" y="-61.3" font-family="Times,serif" font-size="14.00">postings : dict[str, dict[str, int]]</text>
<polyline fill="none" stroke="black" points="3000.5,-53.5 3438.5,-53.5 "/>
<text text-anchor="start" x="3008.5" y="-38.3" font-family="Times,serif" font-size="14.00">build(docs_iterable: Iterable[tuple[str, dict[str, str]]]): None</text>
<text text-anchor="start" x="3008.5" y="-23.3" font-family="Times,serif" font-size="14.00">load(): None</text>
<text text-anchor="start" x="3008.5" y="-8.3" font-family="Times,serif" font-size="14.00">search(query: str, k: int, fields: Mapping[str, str] | None): list[tuple[str, float]]</text>
</g>
<!-- embeddings_sparse.splade.SPLADEv3Encoder -->
<g id="node14" class="node">
<title>embeddings_sparse.splade.SPLADEv3Encoder</title>
<polygon fill="none" stroke="black" points="3456.5,-45.5 3456.5,-174.5 3758.5,-174.5 3758.5,-45.5 3456.5,-45.5"/>
<text text-anchor="start" x="3552.5" y="-159.3" font-family="Times,serif" font-size="14.00">SPLADEv3Encoder</text>
<polyline fill="none" stroke="black" points="3456.5,-151.5 3758.5,-151.5 "/>
<text text-anchor="start" x="3558.5" y="-136.3" font-family="Times,serif" font-size="14.00">device : str</text>
<text text-anchor="start" x="3558.5" y="-121.3" font-family="Times,serif" font-size="14.00">max_seq_len : int</text>
<text text-anchor="start" x="3558.5" y="-106.3" font-family="Times,serif" font-size="14.00">model_id : str</text>
<text text-anchor="start" x="3558.5" y="-91.3" font-family="Times,serif" font-size="14.00">name : str</text>
<text text-anchor="start" x="3558.5" y="-76.3" font-family="Times,serif" font-size="14.00">topk : int</text>
<polyline fill="none" stroke="black" points="3456.5,-68.5 3758.5,-68.5 "/>
<text text-anchor="start" x="3464.5" y="-53.3" font-family="Times,serif" font-size="14.00">encode(texts: list[str]): list[tuple[list[int], list[float]]]</text>
</g>
<!-- embeddings_sparse.base.SparseEncoder -->
<g id="node15" class="node">
<title>embeddings_sparse.base.SparseEncoder</title>
<polygon fill="none" stroke="black" points="3776.5,-75.5 3776.5,-144.5 4078.5,-144.5 4078.5,-75.5 3776.5,-75.5"/>
<text text-anchor="start" x="3886.5" y="-129.3" font-family="Times,serif" font-size="14.00">SparseEncoder</text>
<polyline fill="none" stroke="black" points="3776.5,-121.5 4078.5,-121.5 "/>
<text text-anchor="start" x="3900" y="-106.3" font-family="Times,serif" font-size="14.00">name : str</text>
<polyline fill="none" stroke="black" points="3776.5,-98.5 4078.5,-98.5 "/>
<text text-anchor="start" x="3784.5" y="-83.3" font-family="Times,serif" font-size="14.00">encode(texts: list[str]): list[tuple[list[int], list[float]]]</text>
</g>
<!-- embeddings_sparse.base.SparseIndex -->
<g id="node16" class="node">
<title>embeddings_sparse.base.SparseIndex</title>
<polygon fill="none" stroke="black" points="4096.5,-67.1 4096.5,-152.9 4534.5,-152.9 4534.5,-67.1 4096.5,-67.1"/>
<text text-anchor="start" x="4282" y="-137.7" font-family="Times,serif" font-size="14.00">SparseIndex</text>
<polyline fill="none" stroke="black" points="4096.5,-129.9 4534.5,-129.9 "/>
<polyline fill="none" stroke="black" points="4096.5,-105.1 4534.5,-105.1 "/>
<text text-anchor="start" x="4104.5" y="-89.9" font-family="Times,serif" font-size="14.00">build(docs_iterable: Iterable[tuple[str, dict[str, str]]]): None</text>
<text text-anchor="start" x="4104.5" y="-74.9" font-family="Times,serif" font-size="14.00">search(query: str, k: int, fields: Mapping[str, str] | None): list[tuple[str, float]]</text>
</g>
</g>
</svg>
